<?xml version="1.0" encoding="UTF-8"?> <svg xmlns="http://www.w3.org/2000/svg" width="200" height="50" viewBox="0 0 200 50" fill="none"> <path d="M25 1C31.0392 1 36.8565 3.27682 41.2912 7.37626C45.726 11.4757 48.4522 17.0964 48.926 23.117C49.3998 29.1376 47.5865 35.1155 43.8476 39.8583C40.1087 44.601 34.7193 47.7598 28.7544 48.7045C22.7895 49.6493 16.6877 48.3105 11.6663 44.9553C6.64487 41.6 3.07295 36.475 1.66312 30.6027C0.253291 24.7303 1.1092 18.5423 4.0601 13.2731C7.011 8.00388 11.84 4.04086 17.5836 2.17464" stroke="#F2F3F5" stroke-width="2"></path> <path d="M19.3207 18.195C19.9045 18.1992 20.4798 18.3058 21.0466 18.5146C21.6133 18.7234 22.1247 19.0643 22.5807 19.5373C23.0409 20.0103 23.4074 20.6495 23.6801 21.4549C23.9571 22.256 24.0977 23.2532 24.102 24.4464C24.102 25.5927 23.9869 26.6133 23.7568 27.5082C23.5267 28.3988 23.1964 29.1509 22.766 29.7646C22.3399 30.3782 21.8221 30.8448 21.2128 31.1644C20.6034 31.484 19.9173 31.6438 19.1545 31.6438C18.3747 31.6438 17.6822 31.4904 17.0771 31.1836C16.472 30.8768 15.9798 30.4528 15.6005 29.9116C15.2213 29.3661 14.9848 28.7397 14.891 28.0323H16.8406C16.9684 28.5948 17.2284 29.0508 17.6204 29.4002C18.0167 29.7454 18.5281 29.918 19.1545 29.918C20.1133 29.918 20.8612 29.5004 21.3981 28.6651C21.9351 27.8256 22.2057 26.6538 22.2099 25.1495H22.1076C21.8861 25.516 21.6091 25.8313 21.2767 26.0955C20.9486 26.3597 20.5799 26.5643 20.1709 26.7092C19.7618 26.854 19.325 26.9265 18.8605 26.9265C18.1062 26.9265 17.4201 26.7411 16.8022 26.3704C16.1843 25.9996 15.6922 25.4904 15.3257 24.8427C14.9592 24.195 14.776 23.4556 14.776 22.6246C14.776 21.7979 14.9635 21.0479 15.3385 20.3746C15.7177 19.7013 16.2461 19.1687 16.9237 18.7766C17.6055 18.3803 18.4045 18.1864 19.3207 18.195ZM19.3271 19.8569C18.8285 19.8569 18.379 19.9805 17.9784 20.2276C17.5821 20.4705 17.2689 20.8008 17.0388 21.2184C16.8086 21.6317 16.6936 22.092 16.6936 22.5991C16.6936 23.1062 16.8044 23.5664 17.026 23.9798C17.2518 24.3888 17.5586 24.7148 17.9464 24.9577C18.3385 25.1964 18.7859 25.3157 19.2888 25.3157C19.6638 25.3157 20.0132 25.2433 20.337 25.0984C20.6609 24.9535 20.9443 24.7532 21.1872 24.4975C21.4301 24.2376 21.6197 23.9435 21.7561 23.6154C21.8924 23.2873 21.9606 22.9421 21.9606 22.5799C21.9606 22.0984 21.8456 21.6509 21.6155 21.2376C21.3896 20.8242 21.0785 20.4918 20.6822 20.2404C20.2859 19.9847 19.8342 19.8569 19.3271 19.8569ZM30.8344 31.6438C29.9182 31.6438 29.1085 31.4862 28.4054 31.1708C27.7065 30.8555 27.159 30.4208 26.7627 29.8668C26.3663 29.3129 26.1703 28.6822 26.1746 27.9748C26.1703 27.4208 26.2832 26.9116 26.5134 26.4471C26.7477 25.9783 27.0652 25.5884 27.4658 25.2773C27.8663 24.962 28.3138 24.7617 28.8081 24.6765V24.5998C28.1561 24.4421 27.6341 24.0927 27.2421 23.5515C26.85 23.0103 26.6561 22.3881 26.6604 21.685C26.6561 21.016 26.833 20.4194 27.1909 19.8952C27.5531 19.3668 28.0496 18.9513 28.6803 18.6488C29.3109 18.3462 30.029 18.195 30.8344 18.195C31.6313 18.195 32.3429 18.3484 32.9693 18.6552C33.6 18.9577 34.0965 19.3732 34.4587 19.9016C34.8209 20.4258 35.0041 21.0202 35.0084 21.685C35.0041 22.3881 34.8038 23.0103 34.4075 23.5515C34.0112 24.0927 33.4956 24.4421 32.8607 24.5998V24.6765C33.3507 24.7617 33.7918 24.962 34.1838 25.2773C34.5801 25.5884 34.8955 25.9783 35.1298 26.4471C35.3685 26.9116 35.4899 27.4208 35.4942 27.9748C35.4899 28.6822 35.2896 29.3129 34.8933 29.8668C34.497 30.4208 33.9473 30.8555 33.2442 31.1708C32.5453 31.4862 31.7421 31.6438 30.8344 31.6438ZM30.8344 30.0266C31.3756 30.0266 31.8443 29.9371 32.2406 29.7582C32.6369 29.5749 32.9438 29.3214 33.1611 28.9975C33.3784 28.6694 33.4892 28.2859 33.4935 27.8469C33.4892 27.391 33.3699 26.9883 33.1355 26.6388C32.9054 26.2894 32.5922 26.0146 32.1959 25.8143C31.7996 25.614 31.3457 25.5138 30.8344 25.5138C30.3188 25.5138 29.8607 25.614 29.4601 25.8143C29.0595 26.0146 28.7442 26.2894 28.5141 26.6388C28.284 26.9883 28.171 27.391 28.1753 27.8469C28.171 28.2859 28.2754 28.6694 28.4885 28.9975C28.7058 29.3214 29.0148 29.5749 29.4153 29.7582C29.8159 29.9371 30.2889 30.0266 30.8344 30.0266ZM30.8344 23.935C31.269 23.935 31.6547 23.8477 31.9913 23.6729C32.328 23.4982 32.5922 23.2553 32.784 22.9442C32.98 22.6332 33.0801 22.2688 33.0844 21.8512C33.0801 21.4421 32.9821 21.0842 32.7904 20.7773C32.6029 20.4705 32.3408 20.234 32.0041 20.0678C31.6675 19.8974 31.2776 19.8121 30.8344 19.8121C30.3827 19.8121 29.9864 19.8974 29.6455 20.0678C29.3088 20.234 29.0467 20.4705 28.8592 20.7773C28.6717 21.0842 28.5801 21.4421 28.5844 21.8512C28.5801 22.2688 28.6739 22.6332 28.8656 22.9442C29.0574 23.2553 29.3216 23.4982 29.6582 23.6729C29.9992 23.8477 30.3912 23.935 30.8344 23.935Z" fill="#1F2024"></path> <rect x="60" y="8" width="7.99999" height="8" rx="3.99999" fill="#F2F3F5"></rect> <path d="M74.7078 7.98864V7.27273H81.036V7.98864H78.2703V16H77.4735V7.98864H74.7078ZM83.8171 16.1364C83.2518 16.1364 82.7518 15.9929 82.3171 15.706C81.8853 15.419 81.5472 15.0227 81.3029 14.517C81.0586 14.0085 80.9365 13.4219 80.9365 12.7571C80.9365 12.0866 81.0586 11.4972 81.3029 10.9886C81.5472 10.4773 81.8853 10.0795 82.3171 9.79545C82.7518 9.50852 83.2518 9.36506 83.8171 9.36506C84.3825 9.36506 84.8811 9.50852 85.3129 9.79545C85.7447 10.0824 86.0828 10.4801 86.3271 10.9886C86.5742 11.4972 86.6978 12.0866 86.6978 12.7571C86.6978 13.4219 86.5757 14.0085 86.3313 14.517C86.087 15.0227 85.7475 15.419 85.3129 15.706C84.8811 15.9929 84.3825 16.1364 83.8171 16.1364ZM83.8171 15.4418C84.2717 15.4418 84.6566 15.3196 84.972 15.0753C85.2873 14.831 85.5259 14.5057 85.6879 14.0994C85.8526 13.6932 85.935 13.2457 85.935 12.7571C85.935 12.2685 85.8526 11.8196 85.6879 11.4105C85.5259 11.0014 85.2873 10.6733 84.972 10.4261C84.6566 10.179 84.2717 10.0554 83.8171 10.0554C83.3654 10.0554 82.9805 10.179 82.6623 10.4261C82.347 10.6733 82.1069 11.0014 81.9421 11.4105C81.7802 11.8196 81.6992 12.2685 81.6992 12.7571C81.6992 13.2457 81.7802 13.6932 81.9421 14.0994C82.1069 14.5057 82.347 14.831 82.6623 15.0753C82.9776 15.3196 83.3626 15.4418 83.8171 15.4418ZM90.4911 9.45455V10.1151H87.3675V9.45455H90.4911ZM88.3433 7.88636H89.1061V14.2912C89.1061 14.5639 89.153 14.7784 89.2468 14.9347C89.3405 15.0881 89.4627 15.1974 89.6132 15.2628C89.7638 15.3253 89.9243 15.3565 90.0948 15.3565C90.1942 15.3565 90.2794 15.3509 90.3504 15.3395C90.4215 15.3253 90.484 15.3111 90.5379 15.2969L90.6999 15.983C90.626 16.0114 90.5351 16.0369 90.4271 16.0597C90.3192 16.0852 90.1857 16.098 90.0266 16.098C89.7482 16.098 89.4797 16.0369 89.2212 15.9148C88.9655 15.7926 88.7553 15.6108 88.5905 15.3693C88.4257 15.1278 88.3433 14.8281 88.3433 14.4702V7.88636ZM93.5918 16.1491C93.197 16.1491 92.8362 16.0724 92.5095 15.919C92.1828 15.7628 91.9228 15.5384 91.7296 15.2457C91.5365 14.9503 91.4399 14.5923 91.4399 14.1719C91.4399 13.848 91.5009 13.5753 91.6231 13.3537C91.7453 13.1321 91.9186 12.9503 92.143 12.8082C92.3674 12.6662 92.633 12.554 92.9399 12.4716C93.2467 12.3892 93.5847 12.3253 93.9541 12.2798C94.3205 12.2344 94.6302 12.1946 94.883 12.1605C95.1387 12.1264 95.3333 12.0724 95.4668 11.9986C95.6004 11.9247 95.6671 11.8054 95.6671 11.6406V11.4872C95.6671 11.0412 95.5336 10.6903 95.2666 10.4347C95.0024 10.1761 94.6217 10.0469 94.1245 10.0469C93.6529 10.0469 93.268 10.1506 92.9697 10.358C92.6742 10.5653 92.4668 10.8097 92.3475 11.0909L91.6274 10.831C91.7751 10.473 91.9796 10.1875 92.241 9.97443C92.5024 9.75852 92.795 9.60369 93.1188 9.50994C93.4427 9.41335 93.7708 9.36506 94.1032 9.36506C94.3532 9.36506 94.6132 9.39773 94.883 9.46307C95.1558 9.52841 95.4086 9.64205 95.6416 9.80398C95.8745 9.96307 96.0634 10.1861 96.2083 10.473C96.3532 10.7571 96.4257 11.1179 96.4257 11.5554V16H95.6671V14.9645H95.6203C95.5293 15.1577 95.3944 15.3452 95.2154 15.527C95.0365 15.7088 94.812 15.858 94.5421 15.9744C94.2722 16.0909 93.9555 16.1491 93.5918 16.1491ZM93.6941 15.4545C94.0975 15.4545 94.447 15.3651 94.7424 15.1861C95.0379 15.0071 95.2651 14.7699 95.4242 14.4744C95.5862 14.1761 95.6671 13.848 95.6671 13.4901V12.544C95.6103 12.598 95.5151 12.6463 95.3816 12.6889C95.2509 12.7315 95.099 12.7699 94.9257 12.804C94.7552 12.8352 94.5847 12.8622 94.4143 12.8849C94.2438 12.9077 94.0904 12.9276 93.9541 12.9446C93.5847 12.9901 93.2694 13.0611 93.008 13.1577C92.7467 13.2543 92.5464 13.3878 92.4072 13.5582C92.268 13.7259 92.1984 13.9418 92.1984 14.206C92.1984 14.6037 92.3404 14.9119 92.6245 15.1307C92.9086 15.3466 93.2651 15.4545 93.6941 15.4545ZM98.7519 7.27273V16H97.9934V7.27273H98.7519ZM103.993 7.27273V16H103.234V7.27273H103.993ZM108.094 16.1364C107.528 16.1364 107.028 15.9929 106.594 15.706C106.162 15.419 105.824 15.0227 105.579 14.517C105.335 14.0085 105.213 13.4219 105.213 12.7571C105.213 12.0866 105.335 11.4972 105.579 10.9886C105.824 10.4773 106.162 10.0795 106.594 9.79545C107.028 9.50852 107.528 9.36506 108.094 9.36506C108.659 9.36506 109.158 9.50852 109.589 9.79545C110.021 10.0824 110.359 10.4801 110.604 10.9886C110.851 11.4972 110.974 12.0866 110.974 12.7571C110.974 13.4219 110.852 14.0085 110.608 14.517C110.364 15.0227 110.024 15.419 109.589 15.706C109.158 15.9929 108.659 16.1364 108.094 16.1364ZM108.094 15.4418C108.548 15.4418 108.933 15.3196 109.249 15.0753C109.564 14.831 109.803 14.5057 109.964 14.0994C110.129 13.6932 110.212 13.2457 110.212 12.7571C110.212 12.2685 110.129 11.8196 109.964 11.4105C109.803 11.0014 109.564 10.6733 109.249 10.4261C108.933 10.179 108.548 10.0554 108.094 10.0554C107.642 10.0554 107.257 10.179 106.939 10.4261C106.624 10.6733 106.383 11.0014 106.219 11.4105C106.057 11.8196 105.976 12.2685 105.976 12.7571C105.976 13.2457 106.057 13.6932 106.219 14.0994C106.383 14.5057 106.624 14.831 106.939 15.0753C107.254 15.3196 107.639 15.4418 108.094 15.4418ZM114.018 16.1491C113.623 16.1491 113.262 16.0724 112.935 15.919C112.609 15.7628 112.349 15.5384 112.155 15.2457C111.962 14.9503 111.866 14.5923 111.866 14.1719C111.866 13.848 111.927 13.5753 112.049 13.3537C112.171 13.1321 112.344 12.9503 112.569 12.8082C112.793 12.6662 113.059 12.554 113.366 12.4716C113.672 12.3892 114.011 12.3253 114.38 12.2798C114.746 12.2344 115.056 12.1946 115.309 12.1605C115.565 12.1264 115.759 12.0724 115.893 11.9986C116.026 11.9247 116.093 11.8054 116.093 11.6406V11.4872C116.093 11.0412 115.959 10.6903 115.692 10.4347C115.428 10.1761 115.047 10.0469 114.55 10.0469C114.079 10.0469 113.694 10.1506 113.395 10.358C113.1 10.5653 112.893 10.8097 112.773 11.0909L112.053 10.831C112.201 10.473 112.405 10.1875 112.667 9.97443C112.928 9.75852 113.221 9.60369 113.545 9.50994C113.868 9.41335 114.197 9.36506 114.529 9.36506C114.779 9.36506 115.039 9.39773 115.309 9.46307C115.582 9.52841 115.834 9.64205 116.067 9.80398C116.3 9.96307 116.489 10.1861 116.634 10.473C116.779 10.7571 116.851 11.1179 116.851 11.5554V16H116.093V14.9645H116.046C115.955 15.1577 115.82 15.3452 115.641 15.527C115.462 15.7088 115.238 15.858 114.968 15.9744C114.698 16.0909 114.381 16.1491 114.018 16.1491ZM114.12 15.4545C114.523 15.4545 114.873 15.3651 115.168 15.1861C115.464 15.0071 115.691 14.7699 115.85 14.4744C116.012 14.1761 116.093 13.848 116.093 13.4901V12.544C116.036 12.598 115.941 12.6463 115.807 12.6889C115.677 12.7315 115.525 12.7699 115.351 12.804C115.181 12.8352 115.011 12.8622 114.84 12.8849C114.67 12.9077 114.516 12.9276 114.38 12.9446C114.011 12.9901 113.695 13.0611 113.434 13.1577C113.172 13.2543 112.972 13.3878 112.833 13.5582C112.694 13.7259 112.624 13.9418 112.624 14.206C112.624 14.6037 112.766 14.9119 113.05 15.1307C113.334 15.3466 113.691 15.4545 114.12 15.4545ZM120.776 16.1364C120.239 16.1364 119.769 15.9943 119.365 15.7102C118.962 15.4261 118.646 15.0298 118.419 14.5213C118.195 14.0128 118.083 13.4205 118.083 12.7443C118.083 12.071 118.195 11.4815 118.419 10.9759C118.646 10.4673 118.963 10.0724 119.369 9.79119C119.776 9.5071 120.249 9.36506 120.789 9.36506C121.186 9.36506 121.517 9.43608 121.781 9.57812C122.046 9.71733 122.257 9.89062 122.416 10.098C122.575 10.3054 122.699 10.5071 122.787 10.7031H122.855V7.27273H123.618V16H122.877V14.7855H122.787C122.699 14.9844 122.574 15.1889 122.412 15.3991C122.25 15.6065 122.036 15.7812 121.769 15.9233C121.504 16.0653 121.173 16.1364 120.776 16.1364ZM120.865 15.4418C121.289 15.4418 121.649 15.3267 121.948 15.0966C122.246 14.8636 122.473 14.544 122.629 14.1378C122.789 13.7287 122.868 13.2599 122.868 12.7315C122.868 12.2088 122.79 11.7472 122.634 11.3466C122.477 10.9432 122.25 10.6278 121.952 10.4006C121.654 10.1705 121.291 10.0554 120.865 10.0554C120.428 10.0554 120.058 10.1747 119.757 10.4134C119.459 10.6491 119.232 10.9687 119.075 11.3722C118.922 11.7756 118.845 12.2287 118.845 12.7315C118.845 13.2401 118.923 13.6989 119.08 14.108C119.236 14.517 119.463 14.8423 119.762 15.0838C120.063 15.3224 120.431 15.4418 120.865 15.4418ZM125.337 16V9.45455H126.1V16H125.337ZM125.725 8.32955C125.569 8.32955 125.435 8.27699 125.324 8.17188C125.214 8.06392 125.158 7.93466 125.158 7.78409C125.158 7.63352 125.214 7.50568 125.324 7.40057C125.435 7.29261 125.569 7.23864 125.725 7.23864C125.881 7.23864 126.015 7.29261 126.125 7.40057C126.236 7.50568 126.292 7.63352 126.292 7.78409C126.292 7.93466 126.236 8.06392 126.125 8.17188C126.015 8.27699 125.881 8.32955 125.725 8.32955ZM128.414 11.9091V16H127.656V9.45455H128.393V10.4815H128.461C128.615 10.1463 128.853 9.87784 129.177 9.67614C129.504 9.47159 129.907 9.36932 130.387 9.36932C130.828 9.36932 131.214 9.46165 131.547 9.64631C131.882 9.82812 132.142 10.0966 132.326 10.4517C132.514 10.8068 132.608 11.2429 132.608 11.7599V16H131.849V11.8068C131.849 11.2699 131.699 10.8452 131.397 10.5327C131.099 10.2202 130.699 10.0639 130.196 10.0639C129.852 10.0639 129.547 10.1378 129.279 10.2855C129.012 10.4332 128.801 10.6463 128.645 10.9247C128.491 11.2003 128.414 11.5284 128.414 11.9091ZM136.652 18.5909C136.206 18.5909 135.816 18.5327 135.48 18.4162C135.145 18.3026 134.863 18.1463 134.632 17.9474C134.402 17.7486 134.223 17.5256 134.095 17.2784L134.718 16.8693C134.811 17.0341 134.936 17.196 135.093 17.3551C135.252 17.5142 135.458 17.6463 135.711 17.7514C135.966 17.8565 136.28 17.9091 136.652 17.9091C137.232 17.9091 137.699 17.7642 138.054 17.4744C138.412 17.1847 138.591 16.7344 138.591 16.1236V14.6491H138.523C138.435 14.848 138.309 15.0469 138.144 15.2457C137.979 15.4418 137.763 15.6051 137.496 15.7358C137.232 15.8665 136.904 15.9318 136.512 15.9318C135.989 15.9318 135.524 15.8026 135.118 15.544C134.715 15.2855 134.397 14.9162 134.164 14.4361C133.934 13.9531 133.818 13.3778 133.818 12.7102C133.818 12.0483 133.931 11.4659 134.155 10.9631C134.382 10.4602 134.699 10.0682 135.105 9.78693C135.512 9.50568 135.985 9.36506 136.524 9.36506C136.925 9.36506 137.257 9.43608 137.522 9.57812C137.786 9.71733 137.997 9.89062 138.157 10.098C138.318 10.3054 138.445 10.5071 138.536 10.7031H138.613V9.45455H139.354V16.1705C139.354 16.7244 139.236 17.1804 139 17.5384C138.765 17.8963 138.443 18.1605 138.037 18.331C137.631 18.5043 137.169 18.5909 136.652 18.5909ZM136.601 15.2372C137.022 15.2372 137.381 15.1364 137.679 14.9347C137.978 14.7301 138.206 14.4375 138.365 14.0568C138.524 13.6761 138.604 13.223 138.604 12.6974C138.604 12.1861 138.526 11.733 138.37 11.3381C138.213 10.9403 137.986 10.6278 137.688 10.4006C137.392 10.1705 137.03 10.0554 136.601 10.0554C136.164 10.0554 135.794 10.1733 135.493 10.4091C135.192 10.6449 134.965 10.9631 134.811 11.3636C134.658 11.7614 134.581 12.206 134.581 12.6974C134.581 13.1974 134.659 13.6392 134.816 14.0227C134.972 14.4034 135.201 14.7017 135.502 14.9176C135.803 15.1307 136.169 15.2372 136.601 15.2372ZM146.415 9.45455V10.1151H143.292V9.45455H146.415ZM144.268 7.88636H145.03V14.2912C145.03 14.5639 145.077 14.7784 145.171 14.9347C145.265 15.0881 145.387 15.1974 145.537 15.2628C145.688 15.3253 145.849 15.3565 146.019 15.3565C146.118 15.3565 146.204 15.3509 146.275 15.3395C146.346 15.3253 146.408 15.3111 146.462 15.2969L146.624 15.983C146.55 16.0114 146.459 16.0369 146.351 16.0597C146.243 16.0852 146.11 16.098 145.951 16.098C145.672 16.098 145.404 16.0369 145.145 15.9148C144.89 15.7926 144.679 15.6108 144.515 15.3693C144.35 15.1278 144.268 14.8281 144.268 14.4702V7.88636ZM147.696 16V9.45455H148.459V16H147.696ZM148.084 8.32955C147.928 8.32955 147.794 8.27699 147.684 8.17188C147.573 8.06392 147.517 7.93466 147.517 7.78409C147.517 7.63352 147.573 7.50568 147.684 7.40057C147.794 7.29261 147.928 7.23864 148.084 7.23864C148.241 7.23864 148.374 7.29261 148.485 7.40057C148.596 7.50568 148.651 7.63352 148.651 7.78409C148.651 7.93466 148.596 8.06392 148.485 8.17188C148.374 8.27699 148.241 8.32955 148.084 8.32955ZM150.015 16V9.45455H150.753V10.4602H150.821C150.951 10.1222 151.169 9.85653 151.473 9.66335C151.779 9.46733 152.147 9.36932 152.576 9.36932C153.028 9.36932 153.399 9.47585 153.689 9.68892C153.981 9.89915 154.2 10.1889 154.345 10.5582H154.4C154.548 10.1946 154.788 9.90625 155.12 9.69318C155.456 9.47727 155.862 9.36932 156.339 9.36932C156.947 9.36932 157.427 9.56108 157.779 9.9446C158.132 10.3253 158.308 10.8821 158.308 11.6151V16H157.549V11.6151C157.549 11.098 157.417 10.7102 157.153 10.4517C156.889 10.1932 156.541 10.0639 156.109 10.0639C155.609 10.0639 155.224 10.2173 154.954 10.5241C154.684 10.831 154.549 11.2202 154.549 11.6918V16H153.774V11.5469C153.774 11.1037 153.65 10.7457 153.403 10.473C153.156 10.2003 152.808 10.0639 152.359 10.0639C152.058 10.0639 151.787 10.1378 151.545 10.2855C151.306 10.4332 151.118 10.6392 150.978 10.9034C150.842 11.1648 150.774 11.4659 150.774 11.8068V16H150.015ZM162.512 16.1364C161.902 16.1364 161.373 15.9943 160.927 15.7102C160.481 15.4233 160.136 15.027 159.892 14.5213C159.65 14.0128 159.529 13.4276 159.529 12.7656C159.529 12.1065 159.65 11.5213 159.892 11.0099C160.136 10.4957 160.473 10.0937 160.902 9.80398C161.333 9.51136 161.832 9.36506 162.397 9.36506C162.752 9.36506 163.095 9.4304 163.424 9.56108C163.754 9.68892 164.049 9.88636 164.311 10.1534C164.575 10.4176 164.784 10.7514 164.937 11.1548C165.09 11.5554 165.167 12.0298 165.167 12.5781V12.9531H160.054V12.2841H164.392C164.392 11.8636 164.306 11.4858 164.136 11.1506C163.968 10.8125 163.734 10.5455 163.433 10.3494C163.135 10.1534 162.789 10.0554 162.397 10.0554C161.983 10.0554 161.617 10.1662 161.302 10.3878C160.987 10.6094 160.74 10.902 160.561 11.2656C160.385 11.6293 160.295 12.027 160.292 12.4588V12.8594C160.292 13.3793 160.382 13.8338 160.561 14.223C160.742 14.6094 161 14.9091 161.332 15.1222C161.664 15.3352 162.058 15.4418 162.512 15.4418C162.822 15.4418 163.093 15.3935 163.326 15.2969C163.562 15.2003 163.76 15.071 163.919 14.9091C164.081 14.7443 164.203 14.5639 164.285 14.3679L165.005 14.6023C164.906 14.8778 164.742 15.1321 164.515 15.3651C164.291 15.598 164.01 15.7855 163.671 15.9276C163.336 16.0668 162.95 16.1364 162.512 16.1364Z" fill="#86878A"></path> <path d="M80.0345 25.6845V38.7754H78.4493V27.3464H78.3726L75.1766 29.4686V27.8578L78.4493 25.6845H80.0345ZM84.5516 36.9856L84.4493 37.676C84.3769 38.1618 84.2661 38.6816 84.1169 39.2356C83.972 39.7896 83.8208 40.3116 83.6631 40.8017C83.5054 41.2917 83.3754 41.6816 83.2732 41.9714H82.1226C82.178 41.6987 82.2504 41.3386 82.3399 40.8912C82.4294 40.4437 82.5189 39.943 82.6084 39.389C82.7021 38.8393 82.7789 38.2768 82.8385 37.7015L82.9152 36.9856H84.5516ZM90.6155 25.5055C91.1524 25.5098 91.6894 25.612 92.2263 25.8123C92.7632 26.0126 93.2533 26.345 93.6965 26.8095C94.1396 27.2697 94.4955 27.8983 94.7639 28.6951C95.0324 29.492 95.1666 30.4913 95.1666 31.693C95.1666 32.8564 95.0558 33.8897 94.8343 34.7931C94.6169 35.6923 94.3016 36.4508 93.8882 37.0687C93.4791 37.6866 92.9806 38.1554 92.3925 38.475C91.8087 38.7946 91.1482 38.9544 90.411 38.9544C89.678 38.9544 89.0239 38.8095 88.4486 38.5197C87.8776 38.2257 87.4088 37.8187 87.0423 37.2988C86.6801 36.7747 86.4479 36.1674 86.3456 35.4771H87.9053C88.0459 36.0779 88.325 36.5744 88.7426 36.9664C89.1645 37.3542 89.7206 37.5481 90.411 37.5481C91.4209 37.5481 92.2178 37.1071 92.8016 36.225C93.3896 35.3429 93.6837 34.0964 93.6837 32.4856H93.5814C93.3428 32.8436 93.0594 33.1525 92.7313 33.4125C92.4031 33.6724 92.0388 33.8727 91.6382 34.0133C91.2377 34.1539 90.8115 34.2243 90.3598 34.2243C89.6098 34.2243 88.9216 34.0389 88.2952 33.6681C87.673 33.2931 87.1744 32.7797 86.7994 32.1277C86.4287 31.4714 86.2433 30.7214 86.2433 29.8777C86.2433 29.0765 86.4223 28.3436 86.7803 27.6788C87.1425 27.0098 87.6496 26.4771 88.3016 26.0808C88.9578 25.6845 89.7291 25.4927 90.6155 25.5055ZM90.6155 26.9118C90.0786 26.9118 89.5949 27.046 89.1645 27.3145C88.7384 27.5787 88.3996 27.9366 88.1482 28.3883C87.901 28.8358 87.7774 29.3322 87.7774 29.8777C87.7774 30.4231 87.8968 30.9196 88.1354 31.367C88.3783 31.8102 88.7085 32.1639 89.1262 32.4281C89.548 32.688 90.0274 32.818 90.5644 32.818C90.9692 32.818 91.3463 32.7392 91.6958 32.5815C92.0452 32.4196 92.3499 32.2001 92.6098 31.9231C92.874 31.6419 93.0807 31.3244 93.2298 30.9707C93.379 30.6127 93.4536 30.2399 93.4536 29.8521C93.4536 29.3407 93.33 28.8613 93.0828 28.4139C92.8399 27.9664 92.5033 27.6042 92.0729 27.3272C91.6468 27.0502 91.161 26.9118 90.6155 26.9118ZM103.91 31.1561L102.555 31.5396C102.47 31.3137 102.344 31.0943 102.178 30.8812C102.016 30.6639 101.795 30.4849 101.513 30.3443C101.232 30.2037 100.872 30.1333 100.433 30.1333C99.8323 30.1333 99.3316 30.2718 98.931 30.5488C98.5347 30.8216 98.3366 31.1689 98.3366 31.5907C98.3366 31.9657 98.4729 32.2619 98.7457 32.4792C99.0184 32.6966 99.4445 32.8777 100.024 33.0225L101.481 33.3805C102.359 33.5936 103.013 33.9196 103.444 34.3585C103.874 34.7931 104.089 35.3535 104.089 36.0396C104.089 36.6021 103.927 37.1049 103.604 37.5481C103.284 37.9913 102.837 38.3407 102.261 38.5964C101.686 38.8521 101.017 38.9799 100.254 38.9799C99.2528 38.9799 98.4239 38.7626 97.7677 38.3279C97.1114 37.8933 96.6959 37.2583 96.5212 36.4231L97.953 36.0652C98.0894 36.5936 98.3472 36.9899 98.7265 37.2541C99.11 37.5183 99.6107 37.6504 100.229 37.6504C100.932 37.6504 101.49 37.5012 101.903 37.2029C102.321 36.9004 102.53 36.5382 102.53 36.1163C102.53 35.7754 102.41 35.4899 102.172 35.2598C101.933 35.0254 101.567 34.8507 101.072 34.7356L99.436 34.3521C98.5368 34.139 97.8763 33.8088 97.4545 33.3613C97.0368 32.9096 96.828 32.345 96.828 31.6674C96.828 31.1135 96.9836 30.6234 97.2947 30.1973C97.61 29.7711 98.0383 29.4366 98.5795 29.1937C99.1249 28.9508 99.7428 28.8294 100.433 28.8294C101.405 28.8294 102.168 29.0424 102.722 29.4686C103.28 29.8947 103.676 30.4572 103.91 31.1561Z" fill="#1F2024"></path> </svg> 