<?xml version="1.0" encoding="UTF-8"?> <svg xmlns="http://www.w3.org/2000/svg" width="200" height="50" viewBox="0 0 200 50" fill="none"> <path opacity="0.8" d="M1.15909 19.2727H2.07955L5.24574 26.875H5.32244L8.48864 19.2727H9.40909V28H8.65909V20.956H8.59091L5.64631 28H4.92188L1.97727 20.956H1.90909V28H1.15909V19.2727ZM12.8906 28.1491C12.4957 28.1491 12.1349 28.0724 11.8082 27.919C11.4815 27.7628 11.2216 27.5384 11.0284 27.2457C10.8352 26.9503 10.7386 26.5923 10.7386 26.1719C10.7386 25.848 10.7997 25.5753 10.9218 25.3537C11.044 25.1321 11.2173 24.9503 11.4417 24.8082C11.6662 24.6662 11.9318 24.554 12.2386 24.4716C12.5454 24.3892 12.8835 24.3253 13.2528 24.2798C13.6193 24.2344 13.929 24.1946 14.1818 24.1605C14.4375 24.1264 14.6321 24.0724 14.7656 23.9986C14.8991 23.9247 14.9659 23.8054 14.9659 23.6406V23.4872C14.9659 23.0412 14.8324 22.6903 14.5653 22.4347C14.3011 22.1761 13.9204 22.0469 13.4233 22.0469C12.9517 22.0469 12.5667 22.1506 12.2684 22.358C11.973 22.5653 11.7656 22.8097 11.6463 23.0909L10.9261 22.831C11.0738 22.473 11.2784 22.1875 11.5397 21.9744C11.8011 21.7585 12.0937 21.6037 12.4176 21.5099C12.7415 21.4134 13.0696 21.3651 13.402 21.3651C13.652 21.3651 13.9119 21.3977 14.1818 21.4631C14.4545 21.5284 14.7074 21.642 14.9403 21.804C15.1733 21.9631 15.3622 22.1861 15.5071 22.473C15.652 22.7571 15.7244 23.1179 15.7244 23.5554V28H14.9659V26.9645H14.919C14.8281 27.1577 14.6932 27.3452 14.5142 27.527C14.3352 27.7088 14.1108 27.858 13.8409 27.9744C13.571 28.0909 13.2542 28.1491 12.8906 28.1491ZM12.9929 27.4545C13.3963 27.4545 13.7457 27.3651 14.0412 27.1861C14.3366 27.0071 14.5639 26.7699 14.723 26.4744C14.8849 26.1761 14.9659 25.848 14.9659 25.4901V24.544C14.9091 24.598 14.8139 24.6463 14.6804 24.6889C14.5497 24.7315 14.3977 24.7699 14.2244 24.804C14.054 24.8352 13.8835 24.8622 13.713 24.8849C13.5426 24.9077 13.3892 24.9276 13.2528 24.9446C12.8835 24.9901 12.5682 25.0611 12.3068 25.1577C12.0454 25.2543 11.8451 25.3878 11.7059 25.5582C11.5667 25.7259 11.4971 25.9418 11.4971 26.206C11.4971 26.6037 11.6392 26.9119 11.9233 27.1307C12.2074 27.3466 12.5639 27.4545 12.9929 27.4545ZM19.5894 28.1364C19.0525 28.1364 18.5823 27.9943 18.1789 27.7102C17.7755 27.4261 17.4602 27.0298 17.2329 26.5213C17.0085 26.0128 16.8963 25.4205 16.8963 24.7443C16.8963 24.071 17.0085 23.4815 17.2329 22.9759C17.4602 22.4673 17.7769 22.0724 18.1832 21.7912C18.5894 21.5071 19.0624 21.3651 19.6022 21.3651C19.9999 21.3651 20.3309 21.4361 20.5951 21.5781C20.8593 21.7173 21.071 21.8906 21.2301 22.098C21.3892 22.3054 21.5127 22.5071 21.6008 22.7031H21.669V19.2727H22.4318V28H21.6903V26.7855H21.6008C21.5127 26.9844 21.3877 27.1889 21.2258 27.3991C21.0639 27.6065 20.8494 27.7812 20.5823 27.9233C20.3181 28.0653 19.9872 28.1364 19.5894 28.1364ZM19.6789 27.4418C20.1022 27.4418 20.463 27.3267 20.7613 27.0966C21.0596 26.8636 21.2869 26.544 21.4431 26.1378C21.6022 25.7287 21.6818 25.2599 21.6818 24.7315C21.6818 24.2088 21.6036 23.7472 21.4474 23.3466C21.2911 22.9432 21.0639 22.6278 20.7656 22.4006C20.4673 22.1705 20.1051 22.0554 19.6789 22.0554C19.2414 22.0554 18.8721 22.1747 18.571 22.4134C18.2727 22.6491 18.0454 22.9687 17.8892 23.3722C17.7357 23.7756 17.659 24.2287 17.659 24.7315C17.659 25.2401 17.7372 25.6989 17.8934 26.108C18.0497 26.517 18.2769 26.8423 18.5752 27.0838C18.8764 27.3224 19.2443 27.4418 19.6789 27.4418ZM26.7293 28.1364C26.1185 28.1364 25.5901 27.9943 25.1441 27.7102C24.6981 27.4233 24.3529 27.027 24.1086 26.5213C23.8671 26.0128 23.7464 25.4276 23.7464 24.7656C23.7464 24.1065 23.8671 23.5213 24.1086 23.0099C24.3529 22.4957 24.6896 22.0937 25.1185 21.804C25.5503 21.5114 26.0489 21.3651 26.6143 21.3651C26.9694 21.3651 27.3117 21.4304 27.6413 21.5611C27.9708 21.6889 28.2663 21.8864 28.5276 22.1534C28.7918 22.4176 29.0006 22.7514 29.154 23.1548C29.3074 23.5554 29.3842 24.0298 29.3842 24.5781V24.9531H24.2705V24.2841H28.6086C28.6086 23.8636 28.5234 23.4858 28.3529 23.1506C28.1853 22.8125 27.9509 22.5455 27.6498 22.3494C27.3515 22.1534 27.0063 22.0554 26.6143 22.0554C26.1995 22.0554 25.8344 22.1662 25.5191 22.3878C25.2038 22.6094 24.9566 22.902 24.7776 23.2656C24.6015 23.6293 24.512 24.027 24.5092 24.4588V24.8594C24.5092 25.3793 24.5986 25.8338 24.7776 26.223C24.9594 26.6094 25.2165 26.9091 25.5489 27.1222C25.8813 27.3352 26.2748 27.4418 26.7293 27.4418C27.039 27.4418 27.3103 27.3935 27.5432 27.2969C27.779 27.2003 27.9765 27.071 28.1356 26.9091C28.2975 26.7443 28.4197 26.5639 28.5021 26.3679L29.2222 26.6023C29.1228 26.8778 28.9594 27.1321 28.7322 27.3651C28.5077 27.598 28.2265 27.7855 27.8884 27.9276C27.5532 28.0668 27.1668 28.1364 26.7293 28.1364ZM34.8653 28L32.888 21.4545H33.6891L35.2403 26.8537H35.2957L36.8426 21.4545H37.648L39.182 26.8409H39.2417L40.7928 21.4545H41.594L39.6167 28H38.8326L37.2815 22.6349H37.2005L35.6494 28H34.8653ZM42.5677 28V21.4545H43.3305V28H42.5677ZM42.9555 20.3295C42.7992 20.3295 42.6657 20.277 42.5549 20.1719C42.4441 20.0639 42.3887 19.9347 42.3887 19.7841C42.3887 19.6335 42.4441 19.5057 42.5549 19.4006C42.6657 19.2926 42.7992 19.2386 42.9555 19.2386C43.1117 19.2386 43.2452 19.2926 43.356 19.4006C43.4668 19.5057 43.5222 19.6335 43.5222 19.7841C43.5222 19.9347 43.4668 20.0639 43.356 20.1719C43.2452 20.277 43.1117 20.3295 42.9555 20.3295ZM47.4054 21.4545V22.1151H44.2818V21.4545H47.4054ZM45.2576 19.8864H46.0204V26.2912C46.0204 26.5639 46.0673 26.7784 46.161 26.9347C46.2548 27.0881 46.3769 27.1974 46.5275 27.2628C46.6781 27.3253 46.8386 27.3565 47.009 27.3565C47.1085 27.3565 47.1937 27.3509 47.2647 27.3395C47.3358 27.3253 47.3983 27.3111 47.4522 27.2969L47.6142 27.983C47.5403 28.0114 47.4494 28.0369 47.3414 28.0597C47.2335 28.0852 47.1 28.098 46.9409 28.098C46.6625 28.098 46.394 28.0369 46.1355 27.9148C45.8798 27.7926 45.6696 27.6108 45.5048 27.3693C45.34 27.1278 45.2576 26.8281 45.2576 26.4702V19.8864ZM49.5179 23.9091V28H48.7594V19.2727H49.5179V22.4815H49.5861C49.7395 22.1435 49.9767 21.8736 50.2977 21.6719C50.6216 21.4702 51.0307 21.3693 51.525 21.3693C51.9682 21.3693 52.3574 21.4602 52.6926 21.642C53.0278 21.8239 53.2892 22.0923 53.4767 22.4474C53.6642 22.8026 53.758 23.2401 53.758 23.7599V28H52.9952V23.8068C52.9952 23.267 52.8446 22.8423 52.5435 22.5327C52.2452 22.2202 51.8418 22.0639 51.3332 22.0639C50.9838 22.0639 50.6727 22.1378 50.4 22.2855C50.1273 22.4332 49.9114 22.6463 49.7523 22.9247C49.596 23.2003 49.5179 23.5284 49.5179 23.9091ZM58.8705 19.2727V28H58.112V19.2727H58.8705ZM62.9124 28.1364C62.347 28.1364 61.847 27.9929 61.4124 27.706C60.9805 27.419 60.6425 27.0227 60.3981 26.517C60.1538 26.0085 60.0317 25.4219 60.0317 24.7571C60.0317 24.0866 60.1538 23.4972 60.3981 22.9886C60.6425 22.4773 60.9805 22.0795 61.4124 21.7955C61.847 21.5085 62.347 21.3651 62.9124 21.3651C63.4777 21.3651 63.9763 21.5085 64.4081 21.7955C64.8399 22.0824 65.178 22.4801 65.4223 22.9886C65.6695 23.4972 65.793 24.0866 65.793 24.7571C65.793 25.4219 65.6709 26.0085 65.4266 26.517C65.1822 27.0227 64.8428 27.419 64.4081 27.706C63.9763 27.9929 63.4777 28.1364 62.9124 28.1364ZM62.9124 27.4418C63.3669 27.4418 63.7518 27.3196 64.0672 27.0753C64.3825 26.831 64.6212 26.5057 64.7831 26.0994C64.9479 25.6932 65.0302 25.2457 65.0302 24.7571C65.0302 24.2685 64.9479 23.8196 64.7831 23.4105C64.6212 23.0014 64.3825 22.6733 64.0672 22.4261C63.7518 22.179 63.3669 22.0554 62.9124 22.0554C62.4606 22.0554 62.0757 22.179 61.7575 22.4261C61.4422 22.6733 61.2021 23.0014 61.0374 23.4105C60.8754 23.8196 60.7945 24.2685 60.7945 24.7571C60.7945 25.2457 60.8754 25.6932 61.0374 26.0994C61.2021 26.5057 61.4422 26.831 61.7575 27.0753C62.0729 27.3196 62.4578 27.4418 62.9124 27.4418ZM71.7813 21.4545L69.3907 28H68.581L66.1904 21.4545H67.0128L68.956 26.9986H69.0157L70.9588 21.4545H71.7813ZM75.168 28.1364C74.5572 28.1364 74.0288 27.9943 73.5828 27.7102C73.1367 27.4233 72.7916 27.027 72.5472 26.5213C72.3058 26.0128 72.185 25.4276 72.185 24.7656C72.185 24.1065 72.3058 23.5213 72.5472 23.0099C72.7916 22.4957 73.1282 22.0937 73.5572 21.804C73.989 21.5114 74.4876 21.3651 75.0529 21.3651C75.408 21.3651 75.7504 21.4304 76.0799 21.5611C76.4095 21.6889 76.7049 21.8864 76.9663 22.1534C77.2305 22.4176 77.4393 22.7514 77.5927 23.1548C77.7461 23.5554 77.8228 24.0298 77.8228 24.5781V24.9531H72.7092V24.2841H77.0472C77.0472 23.8636 76.962 23.4858 76.7916 23.1506C76.6239 22.8125 76.3896 22.5455 76.0884 22.3494C75.7901 22.1534 75.445 22.0554 75.0529 22.0554C74.6382 22.0554 74.2731 22.1662 73.9578 22.3878C73.6424 22.6094 73.3953 22.902 73.2163 23.2656C73.0401 23.6293 72.9507 24.027 72.9478 24.4588V24.8594C72.9478 25.3793 73.0373 25.8338 73.2163 26.223C73.3981 26.6094 73.6552 26.9091 73.9876 27.1222C74.32 27.3352 74.7134 27.4418 75.168 27.4418C75.4776 27.4418 75.7489 27.3935 75.9819 27.2969C76.2177 27.2003 76.4151 27.071 76.5742 26.9091C76.7362 26.7443 76.8583 26.5639 76.9407 26.3679L77.6609 26.6023C77.5614 26.8778 77.3981 27.1321 77.1708 27.3651C76.9464 27.598 76.6651 27.7855 76.3271 27.9276C75.9918 28.0668 75.6055 28.1364 75.168 28.1364ZM83.6789 28.1491C83.2841 28.1491 82.9233 28.0724 82.5966 27.919C82.2699 27.7628 82.0099 27.5384 81.8167 27.2457C81.6235 26.9503 81.527 26.5923 81.527 26.1719C81.527 25.848 81.588 25.5753 81.7102 25.3537C81.8324 25.1321 82.0056 24.9503 82.2301 24.8082C82.4545 24.6662 82.7201 24.554 83.027 24.4716C83.3338 24.3892 83.6718 24.3253 84.0412 24.2798C84.4076 24.2344 84.7173 24.1946 84.9701 24.1605C85.2258 24.1264 85.4204 24.0724 85.5539 23.9986C85.6875 23.9247 85.7542 23.8054 85.7542 23.6406V23.4872C85.7542 23.0412 85.6207 22.6903 85.3537 22.4347C85.0895 22.1761 84.7088 22.0469 84.2116 22.0469C83.74 22.0469 83.3551 22.1506 83.0568 22.358C82.7613 22.5653 82.5539 22.8097 82.4346 23.0909L81.7145 22.831C81.8622 22.473 82.0667 22.1875 82.3281 21.9744C82.5895 21.7585 82.8821 21.6037 83.2059 21.5099C83.5298 21.4134 83.8579 21.3651 84.1903 21.3651C84.4403 21.3651 84.7002 21.3977 84.9701 21.4631C85.2429 21.5284 85.4957 21.642 85.7287 21.804C85.9616 21.9631 86.1505 22.1861 86.2954 22.473C86.4403 22.7571 86.5127 23.1179 86.5127 23.5554V28H85.7542V26.9645H85.7074C85.6164 27.1577 85.4815 27.3452 85.3025 27.527C85.1235 27.7088 84.8991 27.858 84.6292 27.9744C84.3593 28.0909 84.0426 28.1491 83.6789 28.1491ZM83.7812 27.4545C84.1846 27.4545 84.5341 27.3651 84.8295 27.1861C85.125 27.0071 85.3522 26.7699 85.5113 26.4744C85.6733 26.1761 85.7542 25.848 85.7542 25.4901V24.544C85.6974 24.598 85.6022 24.6463 85.4687 24.6889C85.338 24.7315 85.186 24.7699 85.0127 24.804C84.8423 24.8352 84.6718 24.8622 84.5014 24.8849C84.3309 24.9077 84.1775 24.9276 84.0412 24.9446C83.6718 24.9901 83.3565 25.0611 83.0951 25.1577C82.8338 25.2543 82.6335 25.3878 82.4943 25.5582C82.3551 25.7259 82.2855 25.9418 82.2855 26.206C82.2855 26.6037 82.4275 26.9119 82.7116 27.1307C82.9957 27.3466 83.3522 27.4545 83.7812 27.4545ZM88.7798 23.9091V28H88.0212V21.4545H88.7585V22.4815H88.8266C88.98 22.1463 89.2187 21.8778 89.5425 21.6761C89.8693 21.4716 90.2727 21.3693 90.7528 21.3693C91.1931 21.3693 91.5795 21.4616 91.9119 21.6463C92.2471 21.8281 92.507 22.0966 92.6917 22.4517C92.8792 22.8068 92.9729 23.2429 92.9729 23.7599V28H92.2144V23.8068C92.2144 23.2699 92.0639 22.8452 91.7627 22.5327C91.4644 22.2202 91.0639 22.0639 90.561 22.0639C90.2173 22.0639 89.9119 22.1378 89.6448 22.2855C89.3778 22.4332 89.1661 22.6463 89.0099 22.9247C88.8565 23.2003 88.7798 23.5284 88.7798 23.9091ZM96.8177 28.1364C96.2808 28.1364 95.8106 27.9943 95.4072 27.7102C95.0038 27.4261 94.6885 27.0298 94.4612 26.5213C94.2368 26.0128 94.1246 25.4205 94.1246 24.7443C94.1246 24.071 94.2368 23.4815 94.4612 22.9759C94.6885 22.4673 95.0052 22.0724 95.4115 21.7912C95.8177 21.5071 96.2907 21.3651 96.8305 21.3651C97.2282 21.3651 97.5592 21.4361 97.8234 21.5781C98.0876 21.7173 98.2993 21.8906 98.4584 22.098C98.6174 22.3054 98.741 22.5071 98.8291 22.7031H98.8973V19.2727H99.6601V28H98.9186V26.7855H98.8291C98.741 26.9844 98.616 27.1889 98.4541 27.3991C98.2922 27.6065 98.0777 27.7812 97.8106 27.9233C97.5464 28.0653 97.2155 28.1364 96.8177 28.1364ZM96.9072 27.4418C97.3305 27.4418 97.6913 27.3267 97.9896 27.0966C98.2879 26.8636 98.5152 26.544 98.6714 26.1378C98.8305 25.7287 98.9101 25.2599 98.9101 24.7315C98.9101 24.2088 98.8319 23.7472 98.6757 23.3466C98.5194 22.9432 98.2922 22.6278 97.9939 22.4006C97.6956 22.1705 97.3334 22.0554 96.9072 22.0554C96.4697 22.0554 96.1004 22.1747 95.7993 22.4134C95.501 22.6491 95.2737 22.9687 95.1174 23.3722C94.964 23.7756 94.8873 24.2287 94.8873 24.7315C94.8873 25.2401 94.9655 25.6989 95.1217 26.108C95.278 26.517 95.5052 26.8423 95.8035 27.0838C96.1047 27.3224 96.4726 27.4418 96.9072 27.4418ZM104.186 28V21.4545H104.948V28H104.186ZM104.573 20.3295C104.417 20.3295 104.284 20.277 104.173 20.1719C104.062 20.0639 104.007 19.9347 104.007 19.7841C104.007 19.6335 104.062 19.5057 104.173 19.4006C104.284 19.2926 104.417 19.2386 104.573 19.2386C104.73 19.2386 104.863 19.2926 104.974 19.4006C105.085 19.5057 105.14 19.6335 105.14 19.7841C105.14 19.9347 105.085 20.0639 104.974 20.1719C104.863 20.277 104.73 20.3295 104.573 20.3295ZM107.204 23.9091V28H106.445V21.4545H107.182V22.4815H107.251C107.404 22.1463 107.643 21.8778 107.966 21.6761C108.293 21.4716 108.697 21.3693 109.177 21.3693C109.617 21.3693 110.003 21.4616 110.336 21.6463C110.671 21.8281 110.931 22.0966 111.116 22.4517C111.303 22.8068 111.397 23.2429 111.397 23.7599V28H110.638V23.8068C110.638 23.2699 110.488 22.8452 110.187 22.5327C109.888 22.2202 109.488 22.0639 108.985 22.0639C108.641 22.0639 108.336 22.1378 108.069 22.2855C107.802 22.4332 107.59 22.6463 107.434 22.9247C107.28 23.2003 107.204 23.5284 107.204 23.9091ZM117.283 22.8906L116.588 23.0866C116.52 22.8906 116.423 22.7131 116.298 22.554C116.173 22.3949 116.01 22.2685 115.808 22.1747C115.61 22.081 115.362 22.0341 115.067 22.0341C114.624 22.0341 114.26 22.1392 113.976 22.3494C113.692 22.5597 113.55 22.831 113.55 23.1634C113.55 23.4446 113.646 23.6733 113.84 23.8494C114.036 24.0227 114.337 24.1605 114.743 24.2628L115.732 24.5057C116.28 24.6392 116.691 24.8509 116.963 25.1406C117.239 25.4304 117.377 25.794 117.377 26.2315C117.377 26.6009 117.274 26.929 117.07 27.2159C116.865 27.5028 116.58 27.7287 116.213 27.8935C115.85 28.0554 115.428 28.1364 114.948 28.1364C114.308 28.1364 113.781 27.9929 113.367 27.706C112.952 27.4162 112.686 26.9986 112.57 26.4531L113.298 26.2741C113.392 26.6634 113.575 26.9574 113.848 27.1562C114.124 27.3551 114.486 27.4545 114.935 27.4545C115.438 27.4545 115.84 27.3423 116.141 27.1179C116.442 26.8906 116.592 26.6065 116.592 26.2656C116.592 26.0014 116.504 25.7798 116.328 25.6009C116.152 25.419 115.885 25.2855 115.527 25.2003L114.458 24.9446C113.889 24.8082 113.469 24.5923 113.196 24.2969C112.923 24.0014 112.787 23.6349 112.787 23.1974C112.787 22.8366 112.885 22.5199 113.081 22.2472C113.277 21.9716 113.547 21.7557 113.891 21.5994C114.235 21.4432 114.627 21.3651 115.067 21.3651C115.666 21.3651 116.145 21.5014 116.503 21.7741C116.864 22.044 117.124 22.4162 117.283 22.8906ZM118.528 30.4545V21.4545H119.265V22.7031H119.355C119.446 22.5071 119.571 22.3068 119.73 22.1023C119.889 21.8949 120.099 21.7202 120.361 21.5781C120.625 21.4361 120.957 21.3651 121.358 21.3651C121.898 21.3651 122.369 21.5071 122.773 21.7912C123.179 22.0724 123.494 22.4673 123.719 22.9759C123.946 23.4815 124.059 24.071 124.059 24.7443C124.059 25.4205 123.946 26.0128 123.719 26.5213C123.494 27.0298 123.179 27.4261 122.773 27.7102C122.369 27.9943 121.9 28.1364 121.366 28.1364C120.971 28.1364 120.64 28.0653 120.373 27.9233C120.109 27.7812 119.895 27.6065 119.73 27.3991C119.568 27.1889 119.443 26.9844 119.355 26.7855H119.287V30.4545H118.528ZM119.278 24.7315C119.278 25.2599 119.356 25.7287 119.513 26.1378C119.672 26.544 119.899 26.8636 120.194 27.0966C120.493 27.3267 120.853 27.4418 121.277 27.4418C121.711 27.4418 122.078 27.3224 122.376 27.0838C122.677 26.8423 122.906 26.517 123.062 26.108C123.221 25.6989 123.301 25.2401 123.301 24.7315C123.301 24.2287 123.223 23.7756 123.067 23.3722C122.913 22.9687 122.686 22.6491 122.385 22.4134C122.084 22.1747 121.714 22.0554 121.277 22.0554C120.851 22.0554 120.488 22.1705 120.19 22.4006C119.892 22.6278 119.665 22.9432 119.508 23.3466C119.355 23.7472 119.278 24.2088 119.278 24.7315ZM125.223 28V21.4545H125.986V28H125.223ZM125.611 20.3295C125.454 20.3295 125.321 20.277 125.21 20.1719C125.099 20.0639 125.044 19.9347 125.044 19.7841C125.044 19.6335 125.099 19.5057 125.21 19.4006C125.321 19.2926 125.454 19.2386 125.611 19.2386C125.767 19.2386 125.9 19.2926 126.011 19.4006C126.122 19.5057 126.177 19.6335 126.177 19.7841C126.177 19.9347 126.122 20.0639 126.011 20.1719C125.9 20.277 125.767 20.3295 125.611 20.3295ZM127.482 28V21.4545H128.22V22.4602H128.275C128.406 22.1307 128.633 21.8651 128.957 21.6634C129.283 21.4588 129.653 21.3565 130.065 21.3565C130.127 21.3565 130.197 21.358 130.274 21.3608C130.35 21.3636 130.414 21.3665 130.465 21.3693V22.1406C130.431 22.1349 130.372 22.1264 130.286 22.1151C130.201 22.1037 130.109 22.098 130.009 22.098C129.668 22.098 129.364 22.1705 129.097 22.3153C128.833 22.4574 128.624 22.6548 128.471 22.9077C128.318 23.1605 128.241 23.4489 128.241 23.7727V28H127.482ZM133.079 28.1491C132.684 28.1491 132.323 28.0724 131.996 27.919C131.669 27.7628 131.41 27.5384 131.216 27.2457C131.023 26.9503 130.927 26.5923 130.927 26.1719C130.927 25.848 130.988 25.5753 131.11 25.3537C131.232 25.1321 131.405 24.9503 131.63 24.8082C131.854 24.6662 132.12 24.554 132.427 24.4716C132.733 24.3892 133.071 24.3253 133.441 24.2798C133.807 24.2344 134.117 24.1946 134.37 24.1605C134.625 24.1264 134.82 24.0724 134.954 23.9986C135.087 23.9247 135.154 23.8054 135.154 23.6406V23.4872C135.154 23.0412 135.02 22.6903 134.753 22.4347C134.489 22.1761 134.108 22.0469 133.611 22.0469C133.14 22.0469 132.755 22.1506 132.456 22.358C132.161 22.5653 131.954 22.8097 131.834 23.0909L131.114 22.831C131.262 22.473 131.466 22.1875 131.728 21.9744C131.989 21.7585 132.282 21.6037 132.606 21.5099C132.929 21.4134 133.258 21.3651 133.59 21.3651C133.84 21.3651 134.1 21.3977 134.37 21.4631C134.642 21.5284 134.895 21.642 135.128 21.804C135.361 21.9631 135.55 22.1861 135.695 22.473C135.84 22.7571 135.912 23.1179 135.912 23.5554V28H135.154V26.9645H135.107C135.016 27.1577 134.881 27.3452 134.702 27.527C134.523 27.7088 134.299 27.858 134.029 27.9744C133.759 28.0909 133.442 28.1491 133.079 28.1491ZM133.181 27.4545C133.584 27.4545 133.934 27.3651 134.229 27.1861C134.525 27.0071 134.752 26.7699 134.911 26.4744C135.073 26.1761 135.154 25.848 135.154 25.4901V24.544C135.097 24.598 135.002 24.6463 134.868 24.6889C134.738 24.7315 134.586 24.7699 134.412 24.804C134.242 24.8352 134.071 24.8622 133.901 24.8849C133.731 24.9077 133.577 24.9276 133.441 24.9446C133.071 24.9901 132.756 25.0611 132.495 25.1577C132.233 25.2543 132.033 25.3878 131.894 25.5582C131.755 25.7259 131.685 25.9418 131.685 26.206C131.685 26.6037 131.827 26.9119 132.111 27.1307C132.395 27.3466 132.752 27.4545 133.181 27.4545ZM139.999 21.4545V22.1151H136.875V21.4545H139.999ZM137.851 19.8864H138.614V26.2912C138.614 26.5639 138.661 26.7784 138.755 26.9347C138.848 27.0881 138.971 27.1974 139.121 27.2628C139.272 27.3253 139.432 27.3565 139.603 27.3565C139.702 27.3565 139.787 27.3509 139.858 27.3395C139.929 27.3253 139.992 27.3111 140.046 27.2969L140.208 27.983C140.134 28.0114 140.043 28.0369 139.935 28.0597C139.827 28.0852 139.694 28.098 139.534 28.098C139.256 28.098 138.988 28.0369 138.729 27.9148C138.473 27.7926 138.263 27.6108 138.098 27.3693C137.934 27.1278 137.851 26.8281 137.851 26.4702V19.8864ZM141.221 28V21.4545H141.984V28H141.221ZM141.609 20.3295C141.452 20.3295 141.319 20.277 141.208 20.1719C141.097 20.0639 141.042 19.9347 141.042 19.7841C141.042 19.6335 141.097 19.5057 141.208 19.4006C141.319 19.2926 141.452 19.2386 141.609 19.2386C141.765 19.2386 141.898 19.2926 142.009 19.4006C142.12 19.5057 142.175 19.6335 142.175 19.7841C142.175 19.9347 142.12 20.0639 142.009 20.1719C141.898 20.277 141.765 20.3295 141.609 20.3295ZM146.024 28.1364C145.459 28.1364 144.959 27.9929 144.524 27.706C144.093 27.419 143.755 27.0227 143.51 26.517C143.266 26.0085 143.144 25.4219 143.144 24.7571C143.144 24.0866 143.266 23.4972 143.51 22.9886C143.755 22.4773 144.093 22.0795 144.524 21.7955C144.959 21.5085 145.459 21.3651 146.024 21.3651C146.59 21.3651 147.088 21.5085 147.52 21.7955C147.952 22.0824 148.29 22.4801 148.534 22.9886C148.782 23.4972 148.905 24.0866 148.905 24.7571C148.905 25.4219 148.783 26.0085 148.539 26.517C148.294 27.0227 147.955 27.419 147.52 27.706C147.088 27.9929 146.59 28.1364 146.024 28.1364ZM146.024 27.4418C146.479 27.4418 146.864 27.3196 147.179 27.0753C147.495 26.831 147.733 26.5057 147.895 26.0994C148.06 25.6932 148.142 25.2457 148.142 24.7571C148.142 24.2685 148.06 23.8196 147.895 23.4105C147.733 23.0014 147.495 22.6733 147.179 22.4261C146.864 22.179 146.479 22.0554 146.024 22.0554C145.573 22.0554 145.188 22.179 144.87 22.4261C144.554 22.6733 144.314 23.0014 144.149 23.4105C143.988 23.8196 143.907 24.2685 143.907 24.7571C143.907 25.2457 143.988 25.6932 144.149 26.0994C144.314 26.5057 144.554 26.831 144.87 27.0753C145.185 27.3196 145.57 27.4418 146.024 27.4418ZM150.82 23.9091V28H150.061V21.4545H150.798V22.4815H150.866C151.02 22.1463 151.258 21.8778 151.582 21.6761C151.909 21.4716 152.312 21.3693 152.793 21.3693C153.233 21.3693 153.619 21.4616 153.952 21.6463C154.287 21.8281 154.547 22.0966 154.731 22.4517C154.919 22.8068 155.013 23.2429 155.013 23.7599V28H154.254V23.8068C154.254 23.2699 154.104 22.8452 153.802 22.5327C153.504 22.2202 153.104 22.0639 152.601 22.0639C152.257 22.0639 151.952 22.1378 151.685 22.2855C151.418 22.4332 151.206 22.6463 151.05 22.9247C150.896 23.2003 150.82 23.5284 150.82 23.9091Z" fill="#E4E5E7"></path> <rect width="200" height="1.22222" transform="matrix(1 0 0 -1 0 35.2588)" fill="#F2F3F5"></rect> <path fill-rule="evenodd" clip-rule="evenodd" d="M24.6347 5C24.6793 5 24.8798 5.07081 25.0804 5.14162C25.3033 5.21242 25.4593 5.42484 25.4147 5.61366C25.3924 5.80248 24.8576 6.0385 24.0998 6.20372C23.3867 6.34533 21.5592 6.77017 20.0215 7.12421C18.4837 7.50184 15.7871 8.23352 14.0042 8.77637C12.2213 9.31922 9.8144 10.1217 8.65552 10.5701C7.49664 11.0186 5.55775 11.8211 4.35429 12.3875C3.15084 12.9304 2.19253 13.4496 2.19253 13.5676C2.19253 13.662 2.7274 13.7801 3.3737 13.8509C3.99771 13.8981 9.14582 14.0161 14.7842 14.0633C20.6455 14.1105 27.2199 14.3229 30.1617 14.5353C32.9697 14.7478 37.2487 15.0782 39.6333 15.267C42.0179 15.4794 46.386 15.8807 49.3278 16.2111C52.2695 16.5179 54.721 16.7303 54.7879 16.6595C54.8547 16.5887 54.9439 15.1726 55.1222 10.5465H56.2365L56.3702 13.7329C56.437 15.4794 56.5262 16.9192 56.5262 16.9192C56.5485 16.9192 57.9971 17.0136 59.7354 17.108C61.496 17.2024 63.9252 17.3912 65.1509 17.5328C66.3767 17.6744 70.3436 18.2409 73.954 18.8074C77.5643 19.3974 81.4867 20.0347 82.6456 20.2235C83.8267 20.4359 85.6542 20.9788 86.7685 21.4508C87.8828 21.8993 89.0417 22.4893 89.3983 22.7253C89.8663 23.0794 90 23.3626 90 23.9999C90 24.5899 89.8663 24.9203 89.5097 25.18C89.1754 25.416 87.5262 25.7228 85.097 26.0061C82.9576 26.2893 80.2387 26.6905 79.0798 26.9501C77.9209 27.2098 76.0043 27.4694 74.8454 27.5638C73.6865 27.6346 72.4162 27.7998 72.0596 27.9178C71.5248 28.0831 71.3465 28.3191 71.1459 29.1216C70.9899 29.688 70.6333 31.1986 70.3213 32.4967C70.0093 33.7948 69.6973 35.1165 69.6304 35.447C69.5859 35.7774 69.0733 36.6979 68.5161 37.5004C67.959 38.3265 67.1567 39.1525 66.7778 39.365C66.2207 39.6718 65.8418 39.6954 65.1509 39.5302C64.4823 39.3886 64.1258 39.1053 63.7023 38.4445C63.3903 37.9724 63.1006 37.6184 63.0337 37.6656C62.9669 37.7128 62.0754 39.3886 61.0503 41.3712C60.0251 43.3774 58.7548 45.6904 58.2422 46.5401C57.7296 47.3897 57.1502 48.4282 56.9496 48.8531C56.7491 49.2543 56.3479 49.7264 56.0805 49.868C55.6793 50.0804 55.501 50.0332 55.2336 49.75C54.9662 49.4195 54.9216 48.8059 55.0107 46.3512C55.0553 44.6991 55.0999 40.2618 55.0776 36.5091C55.0553 32.7563 54.9662 26.9265 54.6764 17.5092L53.785 17.3912C53.2947 17.3204 50.2415 16.99 46.9877 16.6831C43.7339 16.3527 37.9841 15.8099 34.1732 15.4558C27.7102 14.8658 26.4399 14.8186 14.3385 14.8186C3.28456 14.795 1.32337 14.7478 0.743933 14.4409C0.320496 14.2049 0.053065 13.8745 0.00849271 13.4968C-0.0360796 13.1428 0.0976373 12.7416 0.342785 12.5055C0.565647 12.2931 1.70224 11.6559 2.86112 11.1366C4.02 10.5937 6.29319 9.79127 7.8755 9.36643C9.45782 8.94159 12.3327 8.1155 14.2271 7.52545C16.1214 6.93539 19.1969 6.18012 21.0243 5.84968C22.8741 5.49565 24.4118 5.16522 24.4564 5.11801C24.501 5.0472 24.5901 5 24.6347 5ZM56.4593 23.7166C56.3702 26.9737 56.281 33.2992 56.2587 37.76C56.2587 42.1972 56.281 45.832 56.3479 45.832C56.4148 45.8556 57.0388 44.9587 57.7296 43.8966C58.4428 42.8109 59.3788 41.4184 59.8023 40.7575C60.248 40.1202 60.8051 38.9873 61.028 38.2793C61.2731 37.5712 61.6074 36.7215 61.7634 36.3911C61.9194 36.0606 62.3875 35.5886 62.8109 35.3526C63.3309 35.0536 63.7915 34.9592 64.1926 35.0693C64.6606 35.1637 64.9058 35.4706 65.1955 36.2731C65.4184 36.8631 65.6635 37.3588 65.7527 37.3352C65.8641 37.3352 66.243 37.0519 66.6218 36.6979C67.023 36.3203 67.5133 35.6594 67.7138 35.211C67.9367 34.7625 68.2264 33.7476 68.3601 32.9687C68.5161 32.1899 68.8282 30.9153 69.051 30.1365C69.2962 29.3576 69.4967 28.2955 69.5413 27.7998C69.5859 27.139 69.7642 26.7377 70.1653 26.4309C70.5665 26.1005 71.3242 25.9116 72.8397 25.7464C73.9985 25.6284 76.8066 25.3924 79.0798 25.2036C81.353 24.9912 83.9605 24.7315 84.8742 24.5663C85.7879 24.4247 86.7462 24.2123 86.9914 24.1179C87.3479 23.9999 87.0582 23.811 85.6542 23.2446C84.6736 22.8433 82.5564 22.0881 80.9741 21.5688C78.6786 20.8135 76.6506 20.3887 71.1682 19.539C67.3796 18.949 62.9 18.2881 61.2509 18.0993C59.6017 17.9105 57.8857 17.7452 57.4399 17.7452H56.6376L56.4593 23.7166Z" fill="#1F2024"></path> </svg> 