<?xml version="1.0" encoding="UTF-8"?> <svg xmlns="http://www.w3.org/2000/svg" width="220" height="50" viewBox="0 0 220 50" fill="none"><path d="M4.15723 13.5H3.16357V6.94727L1.11719 7.72607V6.81836L4.07666 5.67969H4.15723V13.5ZM2.09473 40.1118H2.80371C3.05436 40.1118 3.27458 40.0778 3.46436 40.0098C3.65771 39.9417 3.82064 39.8486 3.95312 39.7305C4.08203 39.6123 4.1805 39.4709 4.24854 39.3062C4.31657 39.1414 4.35059 38.9606 4.35059 38.7637C4.35059 38.5309 4.32015 38.3286 4.25928 38.1567C4.1984 37.9813 4.10889 37.8363 3.99072 37.7217C3.87614 37.6107 3.73291 37.5283 3.56104 37.4746C3.39274 37.4173 3.19938 37.3887 2.98096 37.3887C2.76969 37.3887 2.57633 37.4209 2.40088 37.4854C2.229 37.5462 2.08219 37.6357 1.96045 37.7539C1.83512 37.8721 1.73844 38.0135 1.67041 38.1782C1.60238 38.3429 1.56836 38.5273 1.56836 38.7314H0.569336C0.569336 38.4342 0.626628 38.1549 0.741211 37.8936C0.859375 37.6286 1.02409 37.3976 1.23535 37.2007C1.44661 37.0073 1.69906 36.8551 1.99268 36.7441C2.28988 36.6296 2.6193 36.5723 2.98096 36.5723C3.33187 36.5723 3.65234 36.6206 3.94238 36.7173C4.23242 36.8104 4.48128 36.95 4.68896 37.1362C4.89665 37.3224 5.05778 37.5534 5.17236 37.8291C5.28695 38.1048 5.34424 38.4235 5.34424 38.7852C5.34424 38.9355 5.32096 39.0913 5.27441 39.2524C5.22786 39.4136 5.15625 39.5693 5.05957 39.7197C4.96289 39.8737 4.83757 40.0187 4.68359 40.1548C4.5332 40.2873 4.35238 40.3983 4.14111 40.4878C4.39535 40.5701 4.60661 40.6776 4.7749 40.8101C4.94678 40.9425 5.08464 41.0911 5.18848 41.2559C5.28874 41.4206 5.35856 41.5942 5.39795 41.7769C5.44092 41.9595 5.4624 42.1403 5.4624 42.3193C5.4624 42.6846 5.39974 43.0086 5.27441 43.2915C5.14909 43.5744 4.97542 43.8125 4.75342 44.0059C4.53141 44.2028 4.26823 44.3532 3.96387 44.457C3.66309 44.5573 3.33724 44.6074 2.98633 44.6074C2.64258 44.6074 2.31852 44.5591 2.01416 44.4624C1.71338 44.3657 1.45199 44.2243 1.22998 44.0381C1.00798 43.8519 0.830729 43.6245 0.698242 43.356C0.569336 43.0874 0.504883 42.7812 0.504883 42.4375H1.49854C1.49854 42.6416 1.53255 42.8278 1.60059 42.9961C1.6722 43.1644 1.77246 43.3076 1.90137 43.4258C2.03027 43.5439 2.18604 43.6353 2.36865 43.6997C2.55485 43.7642 2.76074 43.7964 2.98633 43.7964C3.21191 43.7964 3.41602 43.7677 3.59863 43.7104C3.78125 43.6496 3.93701 43.5583 4.06592 43.4365C4.19482 43.3148 4.29329 43.1644 4.36133 42.9854C4.43294 42.8027 4.46875 42.5879 4.46875 42.3408C4.46875 42.0973 4.42757 41.8879 4.34521 41.7124C4.26644 41.5334 4.15544 41.3848 4.01221 41.2666C3.8654 41.1484 3.68815 41.0607 3.48047 41.0034C3.27637 40.9461 3.05078 40.9175 2.80371 40.9175H2.09473V40.1118Z" fill="#CAC9CF"></path><path d="M5.73096 29.5H0.606934V28.7856L3.16895 25.939C3.39811 25.6847 3.58968 25.4591 3.74365 25.2622C3.89762 25.0653 4.02116 24.8826 4.11426 24.7144C4.20736 24.5496 4.2736 24.3939 4.31299 24.2471C4.35238 24.0967 4.37207 23.9427 4.37207 23.7852C4.37207 23.5918 4.33984 23.411 4.27539 23.2427C4.21452 23.0708 4.125 22.9222 4.00684 22.7969C3.88509 22.6715 3.73828 22.5731 3.56641 22.5015C3.39811 22.4263 3.20654 22.3887 2.9917 22.3887C2.73031 22.3887 2.50293 22.4263 2.30957 22.5015C2.11979 22.5767 1.96224 22.6823 1.83691 22.8184C1.70801 22.958 1.61133 23.1263 1.54688 23.3232C1.486 23.5202 1.45557 23.7404 1.45557 23.9839H0.456543C0.456543 23.6545 0.513835 23.3447 0.628418 23.0547C0.743001 22.7611 0.909505 22.505 1.12793 22.2866C1.34277 22.0682 1.60596 21.8945 1.91748 21.7656C2.23258 21.6367 2.59066 21.5723 2.9917 21.5723C3.36051 21.5723 3.69173 21.6278 3.98535 21.7388C4.28255 21.8462 4.5332 21.9966 4.7373 22.1899C4.94141 22.3833 5.09717 22.6125 5.20459 22.8774C5.31559 23.1424 5.37109 23.4307 5.37109 23.7422C5.37109 23.9749 5.33171 24.2059 5.25293 24.4351C5.17415 24.6606 5.06852 24.8844 4.93604 25.1064C4.79997 25.3285 4.64242 25.5487 4.46338 25.7671C4.28792 25.9819 4.10173 26.1968 3.90479 26.4116L1.80469 28.689H5.73096V29.5Z" fill="#201F24"></path><path d="M25.54 12.4473L20.9854 10.4116V9.62744L25.54 7.59717V8.6499L22.2529 9.93896L21.9683 10.0303L22.2529 10.127L25.54 11.3945V12.4473ZM31.4751 11.9585C31.4751 11.8403 31.4518 11.7347 31.4053 11.6416C31.3587 11.5449 31.2799 11.4572 31.1689 11.3784C31.0579 11.2996 30.9111 11.228 30.7285 11.1636C30.5459 11.0955 30.3185 11.0347 30.0464 10.981C29.7134 10.9129 29.409 10.8306 29.1333 10.7339C28.8612 10.6372 28.6284 10.5208 28.4351 10.3848C28.2381 10.2523 28.0859 10.0965 27.9785 9.91748C27.8711 9.73486 27.8174 9.5236 27.8174 9.28369C27.8174 9.04736 27.8729 8.82715 27.9839 8.62305C28.0949 8.41536 28.2507 8.23454 28.4512 8.08057C28.6517 7.9266 28.8898 7.80485 29.1655 7.71533C29.4448 7.62581 29.751 7.58105 30.084 7.58105C30.4421 7.58105 30.7643 7.6276 31.0508 7.7207C31.3372 7.8138 31.5807 7.94271 31.7812 8.10742C31.9818 8.27214 32.1357 8.46549 32.2432 8.6875C32.3542 8.90592 32.4097 9.14225 32.4097 9.39648H31.416C31.416 9.27116 31.3838 9.14941 31.3193 9.03125C31.2549 8.90951 31.1654 8.80208 31.0508 8.70898C30.9362 8.61589 30.7965 8.54069 30.6318 8.4834C30.4707 8.42611 30.2881 8.39746 30.084 8.39746C29.8727 8.39746 29.6865 8.42074 29.5254 8.46729C29.3678 8.51383 29.2371 8.5765 29.1333 8.65527C29.0259 8.73405 28.9453 8.82536 28.8916 8.9292C28.8379 9.03304 28.811 9.14046 28.811 9.25146C28.811 9.36605 28.8325 9.4681 28.8755 9.55762C28.9185 9.64714 28.9937 9.7277 29.1011 9.79932C29.2049 9.87093 29.3446 9.93538 29.52 9.99268C29.6991 10.05 29.9246 10.1055 30.1968 10.1592C30.5549 10.2344 30.8753 10.3221 31.1582 10.4224C31.4411 10.519 31.6792 10.6354 31.8726 10.7715C32.0659 10.9111 32.2127 11.0723 32.313 11.2549C32.4168 11.4375 32.4688 11.6488 32.4688 11.8887C32.4688 12.1465 32.4097 12.381 32.2915 12.5923C32.1769 12.8035 32.0158 12.9844 31.8081 13.1348C31.6004 13.2852 31.3516 13.4015 31.0615 13.4839C30.7715 13.5662 30.4546 13.6074 30.1108 13.6074C29.717 13.6074 29.366 13.5555 29.0581 13.4517C28.7502 13.3442 28.4906 13.2028 28.2793 13.0273C28.0645 12.8555 27.8997 12.6549 27.7852 12.4258C27.6742 12.1966 27.6187 11.9585 27.6187 11.7114H28.6123C28.6266 11.9155 28.6803 12.0874 28.7734 12.2271C28.8701 12.3667 28.9901 12.4795 29.1333 12.5654C29.2729 12.6514 29.4287 12.7122 29.6006 12.748C29.7725 12.7839 29.9425 12.8018 30.1108 12.8018C30.3758 12.8018 30.6068 12.7713 30.8037 12.7104C31.0007 12.646 31.1546 12.5583 31.2656 12.4473C31.3337 12.3792 31.3856 12.304 31.4214 12.2217C31.4572 12.1393 31.4751 12.0516 31.4751 11.9585ZM36.6958 12.8018C36.8748 12.8018 37.0485 12.7731 37.2168 12.7158C37.3887 12.6585 37.5409 12.578 37.6733 12.4741C37.8058 12.3739 37.9115 12.2557 37.9902 12.1196C38.0726 11.98 38.1156 11.8296 38.1191 11.6685H39.0591C39.0555 11.9263 38.9875 12.1733 38.855 12.4097C38.7261 12.6424 38.5524 12.8465 38.334 13.022C38.1156 13.201 37.8649 13.3442 37.582 13.4517C37.2992 13.5555 37.0037 13.6074 36.6958 13.6074C36.2554 13.6074 35.8704 13.5286 35.541 13.3711C35.2116 13.2135 34.9377 13.0005 34.7192 12.7319C34.4972 12.467 34.3307 12.1608 34.2197 11.8135C34.1087 11.4626 34.0532 11.0938 34.0532 10.707V10.4814C34.0532 10.0983 34.1087 9.73128 34.2197 9.38037C34.3307 9.02946 34.4972 8.71973 34.7192 8.45117C34.9377 8.1862 35.2116 7.97493 35.541 7.81738C35.8704 7.65983 36.2554 7.58105 36.6958 7.58105C37.0396 7.58105 37.3547 7.63656 37.6411 7.74756C37.9312 7.85498 38.1818 8.00179 38.3931 8.18799C38.6007 8.37777 38.7637 8.60156 38.8818 8.85938C39 9.11719 39.0591 9.3929 39.0591 9.68652H38.1191C38.1156 9.51107 38.0762 9.34635 38.001 9.19238C37.9294 9.03483 37.8309 8.89697 37.7056 8.77881C37.5802 8.66064 37.4299 8.56755 37.2544 8.49951C37.0825 8.43148 36.8963 8.39746 36.6958 8.39746C36.3879 8.39746 36.1283 8.46012 35.917 8.58545C35.7093 8.70719 35.541 8.86654 35.4121 9.06348C35.2832 9.264 35.1901 9.48779 35.1328 9.73486C35.0791 9.98193 35.0522 10.2308 35.0522 10.4814V10.707C35.0522 10.9613 35.0791 11.2137 35.1328 11.4644C35.1901 11.7114 35.2832 11.9334 35.4121 12.1304C35.5374 12.3309 35.7039 12.4938 35.9116 12.6191C36.1229 12.7409 36.3843 12.8018 36.6958 12.8018ZM44.6343 7.58105C44.8169 7.58105 45.0067 7.59359 45.2036 7.61865C45.4041 7.64372 45.5545 7.67773 45.6548 7.7207L45.5205 8.69287C45.3271 8.6499 45.1427 8.61947 44.9673 8.60156C44.7954 8.58008 44.6146 8.56934 44.4248 8.56934C44.1813 8.56934 43.9611 8.59977 43.7642 8.66064C43.5672 8.71794 43.3953 8.80387 43.2485 8.91846C43.116 9.01872 42.9997 9.14225 42.8994 9.28906C42.8027 9.43229 42.7222 9.59342 42.6577 9.77246V13.5H41.6587V7.68848H42.604L42.647 8.46729L42.6523 8.6123C42.8887 8.29362 43.1715 8.04297 43.501 7.86035C43.834 7.67415 44.2118 7.58105 44.6343 7.58105ZM47.5884 7.68848H50.5586V12.6406H52.4546V13.5H47.5884V12.6406H49.5649V8.55322H47.5884V7.68848ZM49.436 6.16309C49.436 6.07715 49.4486 5.99658 49.4736 5.92139C49.5023 5.84619 49.5452 5.78174 49.6025 5.72803C49.6491 5.68148 49.7082 5.64567 49.7798 5.62061C49.855 5.59196 49.9391 5.57764 50.0322 5.57764C50.1253 5.57764 50.2077 5.59196 50.2793 5.62061C50.3509 5.64567 50.41 5.68148 50.4565 5.72803C50.5138 5.77816 50.5568 5.84082 50.5854 5.91602C50.6141 5.99121 50.6284 6.07357 50.6284 6.16309C50.6284 6.32422 50.5783 6.4585 50.478 6.56592C50.3778 6.67334 50.2292 6.72705 50.0322 6.72705C49.8317 6.72705 49.6813 6.67334 49.5811 6.56592C49.4844 6.4585 49.436 6.32422 49.436 6.16309ZM54.0337 15.7344V7.68848H54.9414L54.9897 8.32227C55.0685 8.22201 55.1545 8.13249 55.2476 8.05371C55.3407 7.97135 55.4409 7.90153 55.5483 7.84424C55.6987 7.7583 55.8652 7.69385 56.0479 7.65088C56.234 7.60433 56.4328 7.58105 56.644 7.58105C57.0164 7.58105 57.3459 7.65446 57.6323 7.80127C57.9188 7.94808 58.1587 8.15218 58.3521 8.41357C58.5454 8.67497 58.6922 8.98828 58.7925 9.35352C58.8927 9.71517 58.9429 10.1126 58.9429 10.5459V10.6587C58.9429 11.0741 58.8927 11.4626 58.7925 11.8242C58.6922 12.1823 58.5454 12.4938 58.3521 12.7588C58.1587 13.0238 57.9188 13.2314 57.6323 13.3818C57.3494 13.5322 57.0254 13.6074 56.6602 13.6074C56.4382 13.6074 56.2305 13.5841 56.0371 13.5376C55.8473 13.491 55.6755 13.4248 55.5215 13.3389C55.4284 13.2852 55.3407 13.2261 55.2583 13.1616C55.1759 13.0936 55.099 13.0202 55.0273 12.9414V15.7344H54.0337ZM57.9492 10.5459C57.9492 10.263 57.917 9.99447 57.8525 9.74023C57.7917 9.48242 57.6968 9.25505 57.5679 9.05811C57.4354 8.86475 57.2689 8.71077 57.0684 8.59619C56.8678 8.48161 56.6279 8.42432 56.3486 8.42432C56.1947 8.42432 56.0514 8.44222 55.9189 8.47803C55.79 8.51383 55.6737 8.56576 55.5698 8.63379C55.4552 8.70182 55.3532 8.78597 55.2637 8.88623C55.1742 8.98649 55.0954 9.09749 55.0273 9.21924V12.0176C55.0882 12.125 55.158 12.2253 55.2368 12.3184C55.3156 12.4115 55.4051 12.4902 55.5054 12.5547C55.62 12.6299 55.7471 12.689 55.8867 12.7319C56.0299 12.7749 56.1875 12.7964 56.3594 12.7964C56.6351 12.7964 56.8732 12.7391 57.0737 12.6245C57.2743 12.5063 57.439 12.3488 57.5679 12.1519C57.6968 11.9549 57.7917 11.7275 57.8525 11.4697C57.917 11.2119 57.9492 10.9416 57.9492 10.6587V10.5459ZM62.998 6.28125V7.68848H65.2109V8.45654H62.998V11.6147C62.998 11.8403 63.0267 12.0265 63.084 12.1733C63.1413 12.3201 63.2201 12.4365 63.3203 12.5225C63.4206 12.612 63.5352 12.6746 63.6641 12.7104C63.7965 12.7463 63.9362 12.7642 64.083 12.7642C64.1904 12.7642 64.3014 12.7588 64.416 12.748C64.5306 12.7337 64.6434 12.7176 64.7544 12.6997C64.8618 12.6818 64.9621 12.6639 65.0552 12.646C65.1519 12.6245 65.2306 12.6066 65.2915 12.5923L65.4312 13.2959C65.3488 13.346 65.2485 13.3908 65.1304 13.4302C65.0122 13.466 64.8833 13.4964 64.7437 13.5215C64.604 13.5501 64.4554 13.5716 64.2979 13.5859C64.1439 13.6003 63.9899 13.6074 63.8359 13.6074C63.5781 13.6074 63.3364 13.5716 63.1108 13.5C62.8888 13.4248 62.6955 13.3066 62.5308 13.1455C62.366 12.988 62.2354 12.7839 62.1387 12.5332C62.0456 12.279 61.999 11.9728 61.999 11.6147V8.45654H60.4736V7.68848H61.999V6.28125H62.998ZM67.2734 12.4419V11.4106L70.7485 10.1001L71.0708 10.0088L70.7485 9.90674L67.2734 8.61768V7.5918L72.0161 9.62207V10.4062L67.2734 12.4419ZM25.54 43.4473L20.9854 41.4116V40.6274L25.54 38.5972V39.6499L22.2529 40.939L21.9683 41.0303L22.2529 41.127L25.54 42.3945V43.4473ZM28.9238 45.1714H28.0322L31.2979 36.6797H32.1841L28.9238 45.1714ZM38.0815 42.9585C38.0815 42.8403 38.0583 42.7347 38.0117 42.6416C37.9652 42.5449 37.8864 42.4572 37.7754 42.3784C37.6644 42.2996 37.5176 42.228 37.335 42.1636C37.1523 42.0955 36.925 42.0347 36.6528 41.981C36.3198 41.9129 36.0155 41.8306 35.7397 41.7339C35.4676 41.6372 35.2349 41.5208 35.0415 41.3848C34.8446 41.2523 34.6924 41.0965 34.585 40.9175C34.4775 40.7349 34.4238 40.5236 34.4238 40.2837C34.4238 40.0474 34.4793 39.8271 34.5903 39.623C34.7013 39.4154 34.8571 39.2345 35.0576 39.0806C35.2581 38.9266 35.4963 38.8049 35.772 38.7153C36.0513 38.6258 36.3574 38.5811 36.6904 38.5811C37.0485 38.5811 37.3708 38.6276 37.6572 38.7207C37.9437 38.8138 38.1872 38.9427 38.3877 39.1074C38.5882 39.2721 38.7422 39.4655 38.8496 39.6875C38.9606 39.9059 39.0161 40.1423 39.0161 40.3965H38.0225C38.0225 40.2712 37.9902 40.1494 37.9258 40.0312C37.8613 39.9095 37.7718 39.8021 37.6572 39.709C37.5426 39.6159 37.403 39.5407 37.2383 39.4834C37.0771 39.4261 36.8945 39.3975 36.6904 39.3975C36.4792 39.3975 36.293 39.4207 36.1318 39.4673C35.9743 39.5138 35.8436 39.5765 35.7397 39.6553C35.6323 39.734 35.5518 39.8254 35.498 39.9292C35.4443 40.033 35.4175 40.1405 35.4175 40.2515C35.4175 40.366 35.439 40.4681 35.4819 40.5576C35.5249 40.6471 35.6001 40.7277 35.7075 40.7993C35.8114 40.8709 35.951 40.9354 36.1265 40.9927C36.3055 41.05 36.5311 41.1055 36.8032 41.1592C37.1613 41.2344 37.4818 41.3221 37.7646 41.4224C38.0475 41.519 38.2856 41.6354 38.479 41.7715C38.6724 41.9111 38.8192 42.0723 38.9194 42.2549C39.0233 42.4375 39.0752 42.6488 39.0752 42.8887C39.0752 43.1465 39.0161 43.381 38.8979 43.5923C38.7834 43.8035 38.6222 43.9844 38.4146 44.1348C38.2069 44.2852 37.958 44.4015 37.668 44.4839C37.3779 44.5662 37.061 44.6074 36.7173 44.6074C36.3234 44.6074 35.9725 44.5555 35.6646 44.4517C35.3566 44.3442 35.097 44.2028 34.8857 44.0273C34.6709 43.8555 34.5062 43.6549 34.3916 43.4258C34.2806 43.1966 34.2251 42.9585 34.2251 42.7114H35.2188C35.2331 42.9155 35.2868 43.0874 35.3799 43.2271C35.4766 43.3667 35.5965 43.4795 35.7397 43.5654C35.8794 43.6514 36.0352 43.7122 36.207 43.748C36.3789 43.7839 36.549 43.8018 36.7173 43.8018C36.9823 43.8018 37.2132 43.7713 37.4102 43.7104C37.6071 43.646 37.7611 43.5583 37.8721 43.4473C37.9401 43.3792 37.992 43.304 38.0278 43.2217C38.0636 43.1393 38.0815 43.0516 38.0815 42.9585ZM43.3022 43.8018C43.4813 43.8018 43.6549 43.7731 43.8232 43.7158C43.9951 43.6585 44.1473 43.578 44.2798 43.4741C44.4123 43.3739 44.5179 43.2557 44.5967 43.1196C44.679 42.98 44.722 42.8296 44.7256 42.6685H45.6655C45.6619 42.9263 45.5939 43.1733 45.4614 43.4097C45.3325 43.6424 45.1589 43.8465 44.9404 44.022C44.722 44.201 44.4714 44.3442 44.1885 44.4517C43.9056 44.5555 43.6102 44.6074 43.3022 44.6074C42.8618 44.6074 42.4769 44.5286 42.1475 44.3711C41.818 44.2135 41.5441 44.0005 41.3257 43.7319C41.1037 43.467 40.9372 43.1608 40.8262 42.8135C40.7152 42.4626 40.6597 42.0938 40.6597 41.707V41.4814C40.6597 41.0983 40.7152 40.7313 40.8262 40.3804C40.9372 40.0295 41.1037 39.7197 41.3257 39.4512C41.5441 39.1862 41.818 38.9749 42.1475 38.8174C42.4769 38.6598 42.8618 38.5811 43.3022 38.5811C43.646 38.5811 43.9611 38.6366 44.2476 38.7476C44.5376 38.855 44.7882 39.0018 44.9995 39.188C45.2072 39.3778 45.3701 39.6016 45.4883 39.8594C45.6064 40.1172 45.6655 40.3929 45.6655 40.6865H44.7256C44.722 40.5111 44.6826 40.3464 44.6074 40.1924C44.5358 40.0348 44.4373 39.897 44.312 39.7788C44.1867 39.6606 44.0363 39.5675 43.8608 39.4995C43.689 39.4315 43.5028 39.3975 43.3022 39.3975C42.9943 39.3975 42.7347 39.4601 42.5234 39.5854C42.3158 39.7072 42.1475 39.8665 42.0186 40.0635C41.8896 40.264 41.7965 40.4878 41.7393 40.7349C41.6855 40.9819 41.6587 41.2308 41.6587 41.4814V41.707C41.6587 41.9613 41.6855 42.2137 41.7393 42.4644C41.7965 42.7114 41.8896 42.9334 42.0186 43.1304C42.1439 43.3309 42.3104 43.4938 42.5181 43.6191C42.7293 43.7409 42.9907 43.8018 43.3022 43.8018ZM51.2407 38.5811C51.4233 38.5811 51.6131 38.5936 51.8101 38.6187C52.0106 38.6437 52.161 38.6777 52.2612 38.7207L52.127 39.6929C51.9336 39.6499 51.7492 39.6195 51.5737 39.6016C51.4019 39.5801 51.221 39.5693 51.0312 39.5693C50.7878 39.5693 50.5675 39.5998 50.3706 39.6606C50.1737 39.7179 50.0018 39.8039 49.855 39.9185C49.7225 40.0187 49.6061 40.1423 49.5059 40.2891C49.4092 40.4323 49.3286 40.5934 49.2642 40.7725V44.5H48.2651V38.6885H49.2104L49.2534 39.4673L49.2588 39.6123C49.4951 39.2936 49.778 39.043 50.1074 38.8604C50.4404 38.6742 50.8182 38.5811 51.2407 38.5811ZM54.1948 38.6885H57.165V43.6406H59.061V44.5H54.1948V43.6406H56.1714V39.5532H54.1948V38.6885ZM56.0425 37.1631C56.0425 37.0771 56.055 36.9966 56.0801 36.9214C56.1087 36.8462 56.1517 36.7817 56.209 36.728C56.2555 36.6815 56.3146 36.6457 56.3862 36.6206C56.4614 36.592 56.5456 36.5776 56.6387 36.5776C56.7318 36.5776 56.8141 36.592 56.8857 36.6206C56.9574 36.6457 57.0164 36.6815 57.063 36.728C57.1203 36.7782 57.1632 36.8408 57.1919 36.916C57.2205 36.9912 57.2349 37.0736 57.2349 37.1631C57.2349 37.3242 57.1847 37.4585 57.0845 37.5659C56.9842 37.6733 56.8356 37.7271 56.6387 37.7271C56.4382 37.7271 56.2878 37.6733 56.1875 37.5659C56.0908 37.4585 56.0425 37.3242 56.0425 37.1631ZM60.6401 46.7344V38.6885H61.5479L61.5962 39.3223C61.675 39.222 61.7609 39.1325 61.854 39.0537C61.9471 38.9714 62.0474 38.9015 62.1548 38.8442C62.3052 38.7583 62.4717 38.6938 62.6543 38.6509C62.8405 38.6043 63.0392 38.5811 63.2505 38.5811C63.6229 38.5811 63.9523 38.6545 64.2388 38.8013C64.5252 38.9481 64.7651 39.1522 64.9585 39.4136C65.1519 39.675 65.2987 39.9883 65.3989 40.3535C65.4992 40.7152 65.5493 41.1126 65.5493 41.5459V41.6587C65.5493 42.0741 65.4992 42.4626 65.3989 42.8242C65.2987 43.1823 65.1519 43.4938 64.9585 43.7588C64.7651 44.0238 64.5252 44.2314 64.2388 44.3818C63.9559 44.5322 63.6318 44.6074 63.2666 44.6074C63.0446 44.6074 62.8369 44.5841 62.6436 44.5376C62.4538 44.491 62.2819 44.4248 62.1279 44.3389C62.0348 44.2852 61.9471 44.2261 61.8647 44.1616C61.7824 44.0936 61.7054 44.0202 61.6338 43.9414V46.7344H60.6401ZM64.5557 41.5459C64.5557 41.263 64.5234 40.9945 64.459 40.7402C64.3981 40.4824 64.3032 40.255 64.1743 40.0581C64.0418 39.8647 63.8753 39.7108 63.6748 39.5962C63.4743 39.4816 63.2344 39.4243 62.9551 39.4243C62.8011 39.4243 62.6579 39.4422 62.5254 39.478C62.3965 39.5138 62.2801 39.5658 62.1763 39.6338C62.0617 39.7018 61.9596 39.786 61.8701 39.8862C61.7806 39.9865 61.7018 40.0975 61.6338 40.2192V43.0176C61.6947 43.125 61.7645 43.2253 61.8433 43.3184C61.922 43.4115 62.0116 43.4902 62.1118 43.5547C62.2264 43.6299 62.3535 43.689 62.4932 43.7319C62.6364 43.7749 62.7939 43.7964 62.9658 43.7964C63.2415 43.7964 63.4797 43.7391 63.6802 43.6245C63.8807 43.5063 64.0454 43.3488 64.1743 43.1519C64.3032 42.9549 64.3981 42.7275 64.459 42.4697C64.5234 42.2119 64.5557 41.9416 64.5557 41.6587V41.5459ZM69.6045 37.2812V38.6885H71.8174V39.4565H69.6045V42.6147C69.6045 42.8403 69.6331 43.0265 69.6904 43.1733C69.7477 43.3201 69.8265 43.4365 69.9268 43.5225C70.027 43.612 70.1416 43.6746 70.2705 43.7104C70.403 43.7463 70.5426 43.7642 70.6895 43.7642C70.7969 43.7642 70.9079 43.7588 71.0225 43.748C71.137 43.7337 71.2498 43.7176 71.3608 43.6997C71.4683 43.6818 71.5685 43.6639 71.6616 43.646C71.7583 43.6245 71.8371 43.6066 71.8979 43.5923L72.0376 44.2959C71.9552 44.346 71.855 44.3908 71.7368 44.4302C71.6187 44.466 71.4897 44.4964 71.3501 44.5215C71.2104 44.5501 71.0618 44.5716 70.9043 44.5859C70.7503 44.6003 70.5964 44.6074 70.4424 44.6074C70.1846 44.6074 69.9429 44.5716 69.7173 44.5C69.4953 44.4248 69.3019 44.3066 69.1372 44.1455C68.9725 43.988 68.8418 43.7839 68.7451 43.5332C68.652 43.279 68.6055 42.9728 68.6055 42.6147V39.4565H67.0801V38.6885H68.6055V37.2812H69.6045ZM73.8799 43.4419V42.4106L77.355 41.1001L77.6772 41.0088L77.355 40.9067L73.8799 39.6177V38.5918L78.6226 40.6221V41.4062L73.8799 43.4419Z" fill="#CAC9CF"></path><path d="M35.7021 29.5V24.4565H34.1016V23.6885H35.7021V23.2803C35.7021 22.9079 35.7559 22.582 35.8633 22.3027C35.9743 22.0199 36.13 21.7835 36.3306 21.5938C36.5275 21.404 36.7656 21.2607 37.0449 21.1641C37.3242 21.0674 37.6357 21.019 37.9795 21.019C38.1227 21.019 38.2642 21.028 38.4038 21.0459C38.5435 21.0602 38.6813 21.0799 38.8174 21.105C38.9069 21.1229 38.9964 21.1426 39.0859 21.1641C39.1755 21.182 39.2668 21.2035 39.3599 21.2285L39.2417 22.0503C39.0949 22.0002 38.923 21.9572 38.7261 21.9214C38.5327 21.882 38.325 21.8623 38.103 21.8623C37.8774 21.8623 37.6769 21.891 37.5015 21.9482C37.3296 22.002 37.1864 22.0843 37.0718 22.1953C36.95 22.3099 36.8569 22.4585 36.7925 22.6411C36.7316 22.8237 36.7012 23.0368 36.7012 23.2803V23.6885H38.9409V24.4565H36.7012V29.5H35.7021ZM44.6558 29.5L44.5967 28.6997C44.4033 28.9862 44.1616 29.21 43.8716 29.3711C43.5815 29.5286 43.2467 29.6074 42.8672 29.6074C42.5628 29.6074 42.2871 29.5609 42.04 29.4678C41.793 29.3711 41.5817 29.2225 41.4062 29.022C41.2308 28.8215 41.0947 28.5672 40.998 28.2593C40.9049 27.9478 40.8584 27.5754 40.8584 27.1421V23.6885H41.8521V27.1528C41.8521 27.4679 41.8771 27.7293 41.9272 27.937C41.9774 28.1447 42.0526 28.3094 42.1528 28.4312C42.2531 28.5565 42.3748 28.6442 42.5181 28.6943C42.6649 28.7445 42.8332 28.7695 43.0229 28.7695C43.245 28.7695 43.4437 28.7445 43.6191 28.6943C43.7946 28.6406 43.9468 28.5672 44.0757 28.4741C44.1831 28.3989 44.2762 28.3094 44.355 28.2056C44.4373 28.0981 44.5054 27.9818 44.5591 27.8564V23.6885H45.5581V29.5H44.6558ZM47.4326 29.5V23.6885H48.3242L48.394 24.5479C48.48 24.4261 48.5731 24.3151 48.6733 24.2148C48.7772 24.111 48.8864 24.0215 49.001 23.9463C49.1729 23.8317 49.359 23.744 49.5596 23.6831C49.7637 23.6187 49.9785 23.5846 50.2041 23.5811C50.5085 23.5811 50.7842 23.624 51.0312 23.71C51.2819 23.7959 51.495 23.9302 51.6704 24.1128C51.8459 24.2954 51.9801 24.5282 52.0732 24.811C52.1699 25.0903 52.2183 25.4233 52.2183 25.8101V29.5H51.2246V25.8315C51.2246 25.5737 51.196 25.3553 51.1387 25.1763C51.0814 24.9972 50.9972 24.8522 50.8862 24.7412C50.7716 24.6302 50.632 24.5496 50.4673 24.4995C50.3062 24.4494 50.12 24.4243 49.9087 24.4243C49.7261 24.4243 49.556 24.4512 49.3984 24.5049C49.2409 24.555 49.0959 24.6248 48.9634 24.7144C48.856 24.7931 48.7557 24.8844 48.6626 24.9883C48.5731 25.0921 48.4943 25.2067 48.4263 25.332V29.5H47.4326ZM56.5151 28.8018C56.6942 28.8018 56.8678 28.7731 57.0361 28.7158C57.208 28.6585 57.3602 28.578 57.4927 28.4741C57.6252 28.3739 57.7308 28.2557 57.8096 28.1196C57.8919 27.98 57.9349 27.8296 57.9385 27.6685H58.8784C58.8748 27.9263 58.8068 28.1733 58.6743 28.4097C58.5454 28.6424 58.3717 28.8465 58.1533 29.022C57.9349 29.201 57.6842 29.3442 57.4014 29.4517C57.1185 29.5555 56.8231 29.6074 56.5151 29.6074C56.0747 29.6074 55.6898 29.5286 55.3604 29.3711C55.0309 29.2135 54.757 29.0005 54.5386 28.7319C54.3166 28.467 54.1501 28.1608 54.0391 27.8135C53.9281 27.4626 53.8726 27.0938 53.8726 26.707V26.4814C53.8726 26.0983 53.9281 25.7313 54.0391 25.3804C54.1501 25.0295 54.3166 24.7197 54.5386 24.4512C54.757 24.1862 55.0309 23.9749 55.3604 23.8174C55.6898 23.6598 56.0747 23.5811 56.5151 23.5811C56.8589 23.5811 57.174 23.6366 57.4604 23.7476C57.7505 23.855 58.0011 24.0018 58.2124 24.188C58.4201 24.3778 58.583 24.6016 58.7012 24.8594C58.8193 25.1172 58.8784 25.3929 58.8784 25.6865H57.9385C57.9349 25.5111 57.8955 25.3464 57.8203 25.1924C57.7487 25.0348 57.6502 24.897 57.5249 24.7788C57.3996 24.6606 57.2492 24.5675 57.0737 24.4995C56.9019 24.4315 56.7157 24.3975 56.5151 24.3975C56.2072 24.3975 55.9476 24.4601 55.7363 24.5854C55.5286 24.7072 55.3604 24.8665 55.2314 25.0635C55.1025 25.264 55.0094 25.4878 54.9521 25.7349C54.8984 25.9819 54.8716 26.2308 54.8716 26.4814V26.707C54.8716 26.9613 54.8984 27.2137 54.9521 27.4644C55.0094 27.7114 55.1025 27.9334 55.2314 28.1304C55.3568 28.3309 55.5233 28.4938 55.731 28.6191C55.9422 28.7409 56.2036 28.8018 56.5151 28.8018ZM62.998 22.2812V23.6885H65.2109V24.4565H62.998V27.6147C62.998 27.8403 63.0267 28.0265 63.084 28.1733C63.1413 28.3201 63.2201 28.4365 63.3203 28.5225C63.4206 28.612 63.5352 28.6746 63.6641 28.7104C63.7965 28.7463 63.9362 28.7642 64.083 28.7642C64.1904 28.7642 64.3014 28.7588 64.416 28.748C64.5306 28.7337 64.6434 28.7176 64.7544 28.6997C64.8618 28.6818 64.9621 28.6639 65.0552 28.646C65.1519 28.6245 65.2306 28.6066 65.2915 28.5923L65.4312 29.2959C65.3488 29.346 65.2485 29.3908 65.1304 29.4302C65.0122 29.466 64.8833 29.4964 64.7437 29.5215C64.604 29.5501 64.4554 29.5716 64.2979 29.5859C64.1439 29.6003 63.9899 29.6074 63.8359 29.6074C63.5781 29.6074 63.3364 29.5716 63.1108 29.5C62.8888 29.4248 62.6955 29.3066 62.5308 29.1455C62.366 28.988 62.2354 28.7839 62.1387 28.5332C62.0456 28.279 61.999 27.9728 61.999 27.6147V24.4565H60.4736V23.6885H61.999V22.2812H62.998ZM67.4077 23.6885H70.3779V28.6406H72.2739V29.5H67.4077V28.6406H69.3843V24.5532H67.4077V23.6885ZM69.2554 22.1631C69.2554 22.0771 69.2679 21.9966 69.293 21.9214C69.3216 21.8462 69.3646 21.7817 69.4219 21.728C69.4684 21.6815 69.5275 21.6457 69.5991 21.6206C69.6743 21.592 69.7585 21.5776 69.8516 21.5776C69.9447 21.5776 70.027 21.592 70.0986 21.6206C70.1702 21.6457 70.2293 21.6815 70.2759 21.728C70.3332 21.7782 70.3761 21.8408 70.4048 21.916C70.4334 21.9912 70.4478 22.0736 70.4478 22.1631C70.4478 22.3242 70.3976 22.4585 70.2974 22.5659C70.1971 22.6733 70.0485 22.7271 69.8516 22.7271C69.651 22.7271 69.5007 22.6733 69.4004 22.5659C69.3037 22.4585 69.2554 22.3242 69.2554 22.1631ZM73.5791 26.5405C73.5791 26.1216 73.64 25.7331 73.7617 25.375C73.8835 25.0133 74.0589 24.7 74.2881 24.4351C74.5137 24.1701 74.7894 23.9624 75.1152 23.812C75.4411 23.658 75.8081 23.5811 76.2163 23.5811C76.6281 23.5811 76.9969 23.658 77.3228 23.812C77.6522 23.9624 77.9315 24.1701 78.1606 24.4351C78.3862 24.7 78.5599 25.0133 78.6816 25.375C78.8034 25.7331 78.8643 26.1216 78.8643 26.5405V26.6587C78.8643 27.0776 78.8034 27.4661 78.6816 27.8242C78.5599 28.1823 78.3862 28.4938 78.1606 28.7588C77.9315 29.0238 77.654 29.2314 77.3281 29.3818C77.0023 29.5322 76.6353 29.6074 76.2271 29.6074C75.8153 29.6074 75.4447 29.5322 75.1152 29.3818C74.7894 29.2314 74.5137 29.0238 74.2881 28.7588C74.0589 28.4938 73.8835 28.1823 73.7617 27.8242C73.64 27.4661 73.5791 27.0776 73.5791 26.6587V26.5405ZM74.5728 26.6587C74.5728 26.9451 74.6068 27.2191 74.6748 27.4805C74.7428 27.7383 74.8467 27.9657 74.9863 28.1626C75.1224 28.3595 75.2943 28.5153 75.502 28.6299C75.7096 28.7445 75.9513 28.8018 76.2271 28.8018C76.4992 28.8018 76.7373 28.7445 76.9414 28.6299C77.1491 28.5153 77.3228 28.3595 77.4624 28.1626C77.5985 27.9657 77.7005 27.7383 77.7686 27.4805C77.8366 27.2191 77.8706 26.9451 77.8706 26.6587V26.5405C77.8706 26.2576 77.8348 25.9873 77.7632 25.7295C77.6951 25.4681 77.5931 25.2389 77.457 25.042C77.3174 24.8451 77.1437 24.6893 76.936 24.5747C76.7319 24.4565 76.492 24.3975 76.2163 24.3975C75.9406 24.3975 75.7007 24.4565 75.4966 24.5747C75.2925 24.6893 75.1224 24.8451 74.9863 25.042C74.8467 25.2389 74.7428 25.4681 74.6748 25.7295C74.6068 25.9873 74.5728 26.2576 74.5728 26.5405V26.6587ZM80.4648 29.5V23.6885H81.3564L81.4263 24.5479C81.5122 24.4261 81.6053 24.3151 81.7056 24.2148C81.8094 24.111 81.9186 24.0215 82.0332 23.9463C82.2051 23.8317 82.3913 23.744 82.5918 23.6831C82.7959 23.6187 83.0107 23.5846 83.2363 23.5811C83.5407 23.5811 83.8164 23.624 84.0635 23.71C84.3141 23.7959 84.5272 23.9302 84.7026 24.1128C84.8781 24.2954 85.0124 24.5282 85.1055 24.811C85.2021 25.0903 85.2505 25.4233 85.2505 25.8101V29.5H84.2568V25.8315C84.2568 25.5737 84.2282 25.3553 84.1709 25.1763C84.1136 24.9972 84.0295 24.8522 83.9185 24.7412C83.8039 24.6302 83.6642 24.5496 83.4995 24.4995C83.3384 24.4494 83.1522 24.4243 82.9409 24.4243C82.7583 24.4243 82.5882 24.4512 82.4307 24.5049C82.2731 24.555 82.1281 24.6248 81.9956 24.7144C81.8882 24.7931 81.7879 24.8844 81.6948 24.9883C81.6053 25.0921 81.5265 25.2067 81.4585 25.332V29.5H80.4648ZM173.938 26.3257C173.938 25.8136 173.977 25.332 174.056 24.8809C174.139 24.4297 174.248 24.0107 174.384 23.624C174.52 23.2409 174.676 22.89 174.851 22.5713C175.03 22.2526 175.218 21.9697 175.415 21.7227C175.608 21.4756 175.804 21.2643 176 21.0889C176.197 20.9134 176.385 20.7756 176.564 20.6753L176.774 21.3306C176.659 21.4165 176.543 21.5203 176.425 21.6421C176.31 21.7638 176.197 21.8999 176.086 22.0503C175.922 22.283 175.764 22.557 175.614 22.8721C175.463 23.1836 175.338 23.5256 175.238 23.8979C175.141 24.2345 175.066 24.6051 175.012 25.0098C174.958 25.4144 174.932 25.8494 174.932 26.3149V26.3901C174.932 26.8377 174.957 27.2567 175.007 27.647C175.057 28.0373 175.125 28.3971 175.211 28.7266C175.304 29.0596 175.411 29.3675 175.533 29.6504C175.655 29.9368 175.782 30.1929 175.915 30.4185C176.051 30.6333 176.19 30.8231 176.333 30.9878C176.48 31.1561 176.627 31.2993 176.774 31.4175L176.564 32.0244C176.385 31.9242 176.196 31.7863 175.995 31.6108C175.798 31.439 175.603 31.2277 175.41 30.9771C175.213 30.73 175.025 30.4471 174.846 30.1284C174.67 29.8133 174.516 29.4624 174.384 29.0757C174.248 28.6925 174.139 28.2754 174.056 27.8242C173.977 27.373 173.938 26.8914 173.938 26.3794V26.3257ZM183.391 29.5L183.332 28.6997C183.139 28.9862 182.897 29.21 182.607 29.3711C182.317 29.5286 181.982 29.6074 181.603 29.6074C181.298 29.6074 181.022 29.5609 180.775 29.4678C180.528 29.3711 180.317 29.2225 180.142 29.022C179.966 28.8215 179.83 28.5672 179.733 28.2593C179.64 27.9478 179.594 27.5754 179.594 27.1421V23.6885H180.587V27.1528C180.587 27.4679 180.612 27.7293 180.663 27.937C180.713 28.1447 180.788 28.3094 180.888 28.4312C180.988 28.5565 181.11 28.6442 181.253 28.6943C181.4 28.7445 181.569 28.7695 181.758 28.7695C181.98 28.7695 182.179 28.7445 182.354 28.6943C182.53 28.6406 182.682 28.5672 182.811 28.4741C182.918 28.3989 183.012 28.3094 183.09 28.2056C183.173 28.0981 183.241 27.9818 183.294 27.8564V23.6885H184.293V29.5H183.391ZM188.569 25.8423L190.121 23.6885H191.287L189.122 26.562L191.346 29.5H190.196L188.59 27.2871L186.984 29.5H185.824L188.048 26.562L185.883 23.6885H187.033L188.569 25.8423ZM196.4 26.3794C196.4 26.8914 196.359 27.373 196.276 27.8242C196.198 28.2754 196.09 28.6925 195.954 29.0757C195.818 29.4624 195.66 29.8133 195.481 30.1284C195.306 30.4471 195.122 30.73 194.928 30.9771C194.731 31.2277 194.533 31.439 194.332 31.6108C194.135 31.7863 193.947 31.9242 193.768 32.0244L193.559 31.4175C193.709 31.3065 193.861 31.1632 194.015 30.9878C194.169 30.8123 194.316 30.61 194.456 30.3809C194.588 30.1481 194.715 29.8849 194.837 29.5913C194.962 29.3013 195.064 28.9826 195.143 28.6353C195.225 28.313 195.288 27.9657 195.331 27.5933C195.378 27.2173 195.401 26.8162 195.401 26.3901V26.3149C195.401 25.8315 195.37 25.3929 195.31 24.999C195.252 24.6051 195.188 24.2703 195.116 23.9946C195.012 23.6007 194.887 23.248 194.74 22.9365C194.593 22.6214 194.443 22.3475 194.289 22.1147C194.171 21.9321 194.049 21.7728 193.924 21.6367C193.799 21.4971 193.677 21.3789 193.559 21.2822L193.768 20.6753C193.947 20.7756 194.137 20.9134 194.337 21.0889C194.538 21.2643 194.735 21.4756 194.928 21.7227C195.129 21.9769 195.317 22.2598 195.492 22.5713C195.668 22.8828 195.822 23.2337 195.954 23.624C196.083 24 196.189 24.4082 196.271 24.8486C196.357 25.2855 196.4 25.7778 196.4 26.3257V26.3794ZM210.306 31.4658C209.958 31.4551 209.658 31.3745 209.403 31.2241C209.149 31.0737 208.938 30.875 208.77 30.6279C208.608 30.3916 208.487 30.1266 208.404 29.833C208.322 29.543 208.281 29.2547 208.281 28.9683V28.0605C208.281 27.5449 208.157 27.1707 207.91 26.938C207.667 26.7052 207.292 26.5871 206.788 26.5835V25.8047C207.292 25.8047 207.667 25.6901 207.91 25.4609C208.157 25.2282 208.281 24.8522 208.281 24.333V23.4199C208.281 23.1299 208.318 22.8345 208.394 22.5337C208.472 22.2293 208.596 21.9572 208.764 21.7173C208.922 21.4881 209.128 21.3019 209.382 21.1587C209.636 21.0119 209.944 20.9331 210.306 20.9224L210.418 21.54C210.161 21.5472 209.955 21.6081 209.801 21.7227C209.65 21.8372 209.538 21.9823 209.462 22.1577C209.384 22.3368 209.333 22.5373 209.312 22.7593C209.291 22.9813 209.28 23.2015 209.28 23.4199V24.333C209.28 24.7627 209.18 25.1405 208.979 25.4663C208.782 25.7886 208.476 26.0339 208.061 26.2021C208.476 26.3669 208.782 26.6121 208.979 26.938C209.176 27.2603 209.276 27.6344 209.28 28.0605V28.9683C209.28 29.1903 209.298 29.4105 209.333 29.6289C209.369 29.8509 209.432 30.0496 209.521 30.2251C209.607 30.4041 209.722 30.5509 209.865 30.6655C210.012 30.7801 210.196 30.841 210.418 30.8481L210.306 31.4658ZM213.394 30.8481C213.612 30.841 213.795 30.7801 213.942 30.6655C214.089 30.5509 214.207 30.4041 214.296 30.2251C214.382 30.0496 214.443 29.8509 214.479 29.6289C214.518 29.4105 214.538 29.1903 214.538 28.9683V28.0605C214.538 27.7777 214.579 27.5163 214.662 27.2764C214.748 27.0365 214.878 26.8288 215.054 26.6533C215.147 26.5602 215.251 26.4761 215.365 26.4009C215.483 26.3257 215.612 26.2594 215.752 26.2021C215.609 26.1449 215.476 26.0768 215.354 25.998C215.236 25.9193 215.132 25.8315 215.043 25.7349C214.871 25.5558 214.744 25.3481 214.662 25.1118C214.579 24.8719 214.538 24.6123 214.538 24.333V23.4199C214.538 23.2015 214.526 22.9813 214.5 22.7593C214.479 22.5373 214.431 22.3368 214.355 22.1577C214.277 21.9823 214.162 21.8372 214.012 21.7227C213.861 21.6081 213.657 21.5472 213.399 21.54L213.507 20.9224C213.854 20.9331 214.151 21.0065 214.398 21.1426C214.649 21.2786 214.855 21.4559 215.016 21.6743C215.199 21.9214 215.329 22.1989 215.408 22.5068C215.491 22.8148 215.532 23.1191 215.532 23.4199V24.333C215.532 24.5479 215.551 24.7376 215.591 24.9023C215.634 25.0635 215.696 25.2031 215.779 25.3213C215.897 25.4896 216.06 25.6131 216.268 25.6919C216.479 25.7671 216.731 25.8047 217.025 25.8047V26.5835C216.767 26.5871 216.542 26.6193 216.348 26.6802C216.158 26.7375 216.003 26.8288 215.881 26.9541C215.763 27.0758 215.675 27.228 215.618 27.4106C215.56 27.5933 215.532 27.8099 215.532 28.0605V28.9683C215.532 29.2547 215.492 29.543 215.414 29.833C215.335 30.1266 215.213 30.3934 215.048 30.6333C214.88 30.8732 214.669 31.0701 214.415 31.2241C214.16 31.3781 213.858 31.4587 213.507 31.4658L213.394 30.8481Z" fill="#201F24"></path><path d="M94.3491 23.6885H97.2817V29.5376C97.2817 29.91 97.2298 30.2394 97.126 30.5259C97.0257 30.8123 96.8789 31.0522 96.6855 31.2456C96.4886 31.4425 96.2487 31.5911 95.9658 31.6914C95.6865 31.7952 95.3678 31.8472 95.0098 31.8472C94.8988 31.8472 94.7913 31.8454 94.6875 31.8418C94.5837 31.8382 94.4816 31.8328 94.3813 31.8257C94.299 31.8185 94.2166 31.8078 94.1343 31.7935C94.0519 31.7827 93.966 31.7702 93.8765 31.7559L93.9463 30.9395C94.0072 30.9502 94.0841 30.9591 94.1772 30.9663C94.2703 30.9771 94.3652 30.9842 94.4619 30.9878C94.555 30.995 94.6445 30.9985 94.7305 30.9985C94.82 31.0021 94.8898 31.0039 94.9399 31.0039C95.1261 31.0039 95.3016 30.9788 95.4663 30.9287C95.631 30.8822 95.7743 30.8016 95.896 30.687C96.0177 30.5724 96.1126 30.4202 96.1807 30.2305C96.2523 30.0443 96.2881 29.8133 96.2881 29.5376V24.5532H94.3491V23.6885ZM96.1484 22.1577C96.1484 21.9966 96.1968 21.8605 96.2935 21.7495C96.3901 21.6349 96.5387 21.5776 96.7393 21.5776C96.9398 21.5776 97.0902 21.6349 97.1904 21.7495C97.2907 21.8605 97.3408 21.9966 97.3408 22.1577C97.3408 22.3188 97.2907 22.4549 97.1904 22.5659C97.0902 22.6733 96.9398 22.7271 96.7393 22.7271C96.5387 22.7271 96.3901 22.6733 96.2935 22.5659C96.1968 22.4549 96.1484 22.3188 96.1484 22.1577ZM100.005 26.5405C100.005 26.1216 100.066 25.7331 100.188 25.375C100.309 25.0133 100.485 24.7 100.714 24.4351C100.939 24.1701 101.215 23.9624 101.541 23.812C101.867 23.658 102.234 23.5811 102.642 23.5811C103.054 23.5811 103.423 23.658 103.749 23.812C104.078 23.9624 104.357 24.1701 104.586 24.4351C104.812 24.7 104.986 25.0133 105.107 25.375C105.229 25.7331 105.29 26.1216 105.29 26.5405V26.6587C105.29 27.0776 105.229 27.4661 105.107 27.8242C104.986 28.1823 104.812 28.4938 104.586 28.7588C104.357 29.0238 104.08 29.2314 103.754 29.3818C103.428 29.5322 103.061 29.6074 102.653 29.6074C102.241 29.6074 101.87 29.5322 101.541 29.3818C101.215 29.2314 100.939 29.0238 100.714 28.7588C100.485 28.4938 100.309 28.1823 100.188 27.8242C100.066 27.4661 100.005 27.0776 100.005 26.6587V26.5405ZM100.999 26.6587C100.999 26.9451 101.033 27.2191 101.101 27.4805C101.169 27.7383 101.272 27.9657 101.412 28.1626C101.548 28.3595 101.72 28.5153 101.928 28.6299C102.135 28.7445 102.377 28.8018 102.653 28.8018C102.925 28.8018 103.163 28.7445 103.367 28.6299C103.575 28.5153 103.749 28.3595 103.888 28.1626C104.024 27.9657 104.126 27.7383 104.194 27.4805C104.262 27.2191 104.296 26.9451 104.296 26.6587V26.5405C104.296 26.2576 104.261 25.9873 104.189 25.7295C104.121 25.4681 104.019 25.2389 103.883 25.042C103.743 24.8451 103.569 24.6893 103.362 24.5747C103.158 24.4565 102.918 24.3975 102.642 24.3975C102.366 24.3975 102.126 24.4565 101.922 24.5747C101.718 24.6893 101.548 24.8451 101.412 25.042C101.272 25.2389 101.169 25.4681 101.101 25.7295C101.033 25.9873 100.999 26.2576 100.999 26.5405V26.6587ZM111.816 26.6587C111.816 26.9129 111.796 27.1582 111.757 27.3945C111.721 27.6273 111.667 27.8457 111.596 28.0498C111.499 28.3184 111.372 28.5601 111.214 28.7749C111.06 28.9862 110.874 29.1616 110.656 29.3013C110.498 29.3979 110.325 29.4731 110.135 29.5269C109.949 29.5806 109.746 29.6074 109.528 29.6074C109.277 29.6074 109.048 29.577 108.84 29.5161C108.636 29.4552 108.452 29.3675 108.287 29.2529C108.208 29.1956 108.133 29.133 108.062 29.0649C107.99 28.9969 107.922 28.9217 107.857 28.8394L107.809 29.5H106.896V21.25H107.89V24.3115C107.972 24.2077 108.063 24.1146 108.164 24.0322C108.264 23.9463 108.371 23.8729 108.486 23.812C108.629 23.7368 108.787 23.6795 108.958 23.6401C109.13 23.6007 109.317 23.5811 109.517 23.5811C109.768 23.5811 109.999 23.6151 110.21 23.6831C110.421 23.7511 110.613 23.846 110.785 23.9678C110.939 24.0824 111.076 24.222 111.198 24.3867C111.32 24.5479 111.427 24.7287 111.521 24.9292C111.617 25.1548 111.691 25.4054 111.741 25.6812C111.791 25.9533 111.816 26.2415 111.816 26.5459V26.6587ZM110.822 26.5459C110.822 26.3633 110.81 26.186 110.785 26.0142C110.763 25.8387 110.729 25.674 110.683 25.52C110.618 25.3302 110.534 25.1566 110.43 24.999C110.326 24.8415 110.199 24.7179 110.049 24.6284C109.945 24.564 109.829 24.5138 109.7 24.478C109.571 24.4422 109.428 24.4243 109.27 24.4243C109.098 24.4243 108.941 24.4476 108.797 24.4941C108.654 24.5371 108.527 24.598 108.416 24.6768C108.301 24.7591 108.199 24.8558 108.11 24.9668C108.024 25.0742 107.951 25.1924 107.89 25.3213V27.8618C107.954 27.9907 108.029 28.1107 108.115 28.2217C108.205 28.3291 108.307 28.424 108.421 28.5063C108.536 28.5887 108.665 28.6532 108.808 28.6997C108.951 28.7427 109.109 28.7642 109.281 28.7642C109.445 28.7642 109.596 28.7445 109.732 28.7051C109.868 28.6621 109.99 28.6012 110.097 28.5225C110.24 28.4222 110.36 28.2951 110.457 28.1411C110.554 27.9871 110.631 27.8153 110.688 27.6255C110.735 27.4823 110.769 27.3283 110.79 27.1636C110.812 26.9989 110.822 26.8306 110.822 26.6587V26.5459ZM117.359 27.9585C117.359 27.8403 117.336 27.7347 117.289 27.6416C117.243 27.5449 117.164 27.4572 117.053 27.3784C116.942 27.2996 116.795 27.228 116.612 27.1636C116.43 27.0955 116.202 27.0347 115.93 26.981C115.597 26.9129 115.293 26.8306 115.017 26.7339C114.745 26.6372 114.512 26.5208 114.319 26.3848C114.122 26.2523 113.97 26.0965 113.862 25.9175C113.755 25.7349 113.701 25.5236 113.701 25.2837C113.701 25.0474 113.757 24.8271 113.868 24.623C113.979 24.4154 114.134 24.2345 114.335 24.0806C114.535 23.9266 114.774 23.8049 115.049 23.7153C115.329 23.6258 115.635 23.5811 115.968 23.5811C116.326 23.5811 116.648 23.6276 116.935 23.7207C117.221 23.8138 117.465 23.9427 117.665 24.1074C117.866 24.2721 118.02 24.4655 118.127 24.6875C118.238 24.9059 118.293 25.1423 118.293 25.3965H117.3C117.3 25.2712 117.268 25.1494 117.203 25.0312C117.139 24.9095 117.049 24.8021 116.935 24.709C116.82 24.6159 116.68 24.5407 116.516 24.4834C116.354 24.4261 116.172 24.3975 115.968 24.3975C115.757 24.3975 115.57 24.4207 115.409 24.4673C115.252 24.5138 115.121 24.5765 115.017 24.6553C114.91 24.734 114.829 24.8254 114.775 24.9292C114.722 25.033 114.695 25.1405 114.695 25.2515C114.695 25.366 114.716 25.4681 114.759 25.5576C114.802 25.6471 114.877 25.7277 114.985 25.7993C115.089 25.8709 115.228 25.9354 115.404 25.9927C115.583 26.05 115.808 26.1055 116.081 26.1592C116.439 26.2344 116.759 26.3221 117.042 26.4224C117.325 26.519 117.563 26.6354 117.756 26.7715C117.95 26.9111 118.097 27.0723 118.197 27.2549C118.301 27.4375 118.353 27.6488 118.353 27.8887C118.353 28.1465 118.293 28.381 118.175 28.5923C118.061 28.8035 117.9 28.9844 117.692 29.1348C117.484 29.2852 117.235 29.4015 116.945 29.4839C116.655 29.5662 116.338 29.6074 115.995 29.6074C115.601 29.6074 115.25 29.5555 114.942 29.4517C114.634 29.3442 114.374 29.2028 114.163 29.0273C113.948 28.8555 113.784 28.6549 113.669 28.4258C113.558 28.1966 113.502 27.9585 113.502 27.7114H114.496C114.51 27.9155 114.564 28.0874 114.657 28.2271C114.754 28.3667 114.874 28.4795 115.017 28.5654C115.157 28.6514 115.312 28.7122 115.484 28.748C115.656 28.7839 115.826 28.8018 115.995 28.8018C116.26 28.8018 116.491 28.7713 116.688 28.7104C116.884 28.646 117.038 28.5583 117.149 28.4473C117.217 28.3792 117.269 28.304 117.305 28.2217C117.341 28.1393 117.359 28.0516 117.359 27.9585ZM125.378 22.5283H122.961V29.5H121.994V22.5283H119.577V21.6797H125.378V22.5283ZM126.431 26.5405C126.431 26.1216 126.492 25.7331 126.613 25.375C126.735 25.0133 126.91 24.7 127.14 24.4351C127.365 24.1701 127.641 23.9624 127.967 23.812C128.293 23.658 128.66 23.5811 129.068 23.5811C129.48 23.5811 129.848 23.658 130.174 23.812C130.504 23.9624 130.783 24.1701 131.012 24.4351C131.238 24.7 131.411 25.0133 131.533 25.375C131.655 25.7331 131.716 26.1216 131.716 26.5405V26.6587C131.716 27.0776 131.655 27.4661 131.533 27.8242C131.411 28.1823 131.238 28.4938 131.012 28.7588C130.783 29.0238 130.506 29.2314 130.18 29.3818C129.854 29.5322 129.487 29.6074 129.079 29.6074C128.667 29.6074 128.296 29.5322 127.967 29.3818C127.641 29.2314 127.365 29.0238 127.14 28.7588C126.91 28.4938 126.735 28.1823 126.613 27.8242C126.492 27.4661 126.431 27.0776 126.431 26.6587V26.5405ZM127.424 26.6587C127.424 26.9451 127.458 27.2191 127.526 27.4805C127.594 27.7383 127.698 27.9657 127.838 28.1626C127.974 28.3595 128.146 28.5153 128.354 28.6299C128.561 28.7445 128.803 28.8018 129.079 28.8018C129.351 28.8018 129.589 28.7445 129.793 28.6299C130.001 28.5153 130.174 28.3595 130.314 28.1626C130.45 27.9657 130.552 27.7383 130.62 27.4805C130.688 27.2191 130.722 26.9451 130.722 26.6587V26.5405C130.722 26.2576 130.686 25.9873 130.615 25.7295C130.547 25.4681 130.445 25.2389 130.309 25.042C130.169 24.8451 129.995 24.6893 129.788 24.5747C129.583 24.4565 129.344 24.3975 129.068 24.3975C128.792 24.3975 128.552 24.4565 128.348 24.5747C128.144 24.6893 127.974 24.8451 127.838 25.042C127.698 25.2389 127.594 25.4681 127.526 25.7295C127.458 25.9873 127.424 26.2576 127.424 26.5405V26.6587ZM133.306 29.5V21.6797H135.631C135.954 21.6833 136.269 21.7262 136.577 21.8086C136.885 21.8874 137.159 22.0109 137.398 22.1792C137.638 22.3475 137.83 22.5623 137.973 22.8237C138.116 23.0851 138.186 23.3984 138.183 23.7637C138.179 23.9678 138.145 24.154 138.081 24.3223C138.02 24.4906 137.936 24.641 137.828 24.7734C137.717 24.9095 137.594 25.0241 137.458 25.1172C137.325 25.2103 137.164 25.298 136.974 25.3804V25.3965C137.171 25.443 137.361 25.5272 137.543 25.6489C137.726 25.7707 137.876 25.9049 137.995 26.0518C138.12 26.2129 138.217 26.3937 138.285 26.5942C138.356 26.7948 138.392 27.0114 138.392 27.2441C138.396 27.6094 138.326 27.9316 138.183 28.2109C138.039 28.4902 137.848 28.723 137.608 28.9092C137.368 29.099 137.09 29.244 136.775 29.3442C136.464 29.4445 136.142 29.4964 135.809 29.5H133.306ZM134.305 25.8423V28.6567H135.835C136.043 28.6532 136.24 28.6191 136.426 28.5547C136.612 28.4867 136.777 28.3936 136.92 28.2754C137.064 28.1572 137.176 28.0122 137.259 27.8403C137.345 27.6685 137.388 27.4733 137.388 27.2549C137.391 27.0329 137.354 26.8359 137.275 26.6641C137.2 26.4922 137.094 26.3454 136.958 26.2236C136.822 26.1055 136.663 26.0142 136.48 25.9497C136.297 25.8853 136.1 25.8494 135.889 25.8423H134.305ZM134.305 25.0151H135.69C135.877 25.0116 136.059 24.9829 136.238 24.9292C136.417 24.8719 136.577 24.7896 136.716 24.6821C136.856 24.5783 136.969 24.4494 137.055 24.2954C137.141 24.1414 137.184 23.9624 137.184 23.7583C137.184 23.5399 137.141 23.3537 137.055 23.1997C136.972 23.0457 136.861 22.9186 136.722 22.8184C136.578 22.7217 136.414 22.6501 136.228 22.6035C136.045 22.557 135.857 22.5319 135.664 22.5283H134.305V25.0151ZM142.49 29.6074C142.082 29.6074 141.706 29.5376 141.362 29.3979C141.022 29.2583 140.73 29.0632 140.487 28.8125C140.243 28.5618 140.054 28.2646 139.917 27.9209C139.781 27.5771 139.713 27.203 139.713 26.7983V26.5728C139.713 26.1037 139.789 25.6847 139.939 25.3159C140.089 24.9435 140.29 24.6284 140.541 24.3706C140.788 24.1164 141.069 23.9212 141.384 23.7852C141.702 23.6491 142.028 23.5811 142.361 23.5811C142.78 23.5811 143.146 23.6545 143.457 23.8013C143.772 23.9445 144.034 24.1432 144.241 24.3975C144.449 24.6553 144.603 24.9578 144.703 25.3052C144.807 25.6525 144.859 26.0285 144.859 26.4331V26.8789H140.707V26.9165C140.732 27.1994 140.788 27.4482 140.874 27.6631C140.963 27.8779 141.085 28.0677 141.239 28.2324C141.396 28.4079 141.586 28.5457 141.808 28.646C142.03 28.7463 142.275 28.7964 142.544 28.7964C142.898 28.7964 143.214 28.7248 143.489 28.5815C143.765 28.4383 143.994 28.2485 144.177 28.0122L144.784 28.4849C144.59 28.7785 144.3 29.0399 143.914 29.269C143.53 29.4946 143.056 29.6074 142.49 29.6074ZM142.361 24.3975C142.161 24.3975 141.971 24.4351 141.792 24.5103C141.613 24.5819 141.452 24.6875 141.309 24.8271C141.165 24.9704 141.044 25.1458 140.943 25.3535C140.847 25.5576 140.779 25.7939 140.739 26.0625H143.865V26.0142C143.865 25.8351 143.831 25.6436 143.763 25.4395C143.695 25.2318 143.6 25.0527 143.479 24.9023C143.357 24.752 143.203 24.6302 143.017 24.5371C142.834 24.444 142.616 24.3975 142.361 24.3975ZM146.427 29.5V21.6797H148.237C148.542 21.6833 148.828 21.7155 149.097 21.7764C149.369 21.8337 149.619 21.916 149.849 22.0234C150.167 22.1702 150.448 22.3636 150.692 22.6035C150.939 22.8398 151.136 23.1138 151.283 23.4253C151.415 23.6903 151.515 23.9803 151.583 24.2954C151.655 24.6105 151.693 24.9471 151.696 25.3052V25.8799C151.696 26.2236 151.662 26.5495 151.594 26.8574C151.53 27.1654 151.435 27.4482 151.31 27.7061C151.181 27.9746 151.018 28.2181 150.821 28.4365C150.624 28.6549 150.404 28.8411 150.16 28.9951C149.902 29.1562 149.611 29.2798 149.285 29.3657C148.962 29.4517 148.613 29.4964 148.237 29.5H146.427ZM147.437 22.4961V28.689H148.237C148.524 28.6854 148.783 28.6496 149.016 28.5815C149.252 28.5135 149.462 28.4168 149.645 28.2915C149.838 28.1626 150.004 28.005 150.144 27.8188C150.287 27.6291 150.4 27.4178 150.482 27.1851C150.554 26.9953 150.608 26.7912 150.644 26.5728C150.679 26.3507 150.699 26.1198 150.703 25.8799V25.2944C150.699 25.0509 150.678 24.8182 150.638 24.5962C150.602 24.3706 150.547 24.1611 150.472 23.9678C150.375 23.7171 150.244 23.4915 150.08 23.291C149.918 23.0869 149.72 22.9222 149.483 22.7969C149.315 22.7038 149.127 22.6322 148.919 22.582C148.712 22.5283 148.484 22.4997 148.237 22.4961H147.437ZM152.856 26.5405C152.856 26.1216 152.917 25.7331 153.039 25.375C153.161 25.0133 153.336 24.7 153.565 24.4351C153.791 24.1701 154.067 23.9624 154.393 23.812C154.718 23.658 155.085 23.5811 155.494 23.5811C155.905 23.5811 156.274 23.658 156.6 23.812C156.93 23.9624 157.209 24.1701 157.438 24.4351C157.664 24.7 157.837 25.0133 157.959 25.375C158.081 25.7331 158.142 26.1216 158.142 26.5405V26.6587C158.142 27.0776 158.081 27.4661 157.959 27.8242C157.837 28.1823 157.664 28.4938 157.438 28.7588C157.209 29.0238 156.931 29.2314 156.605 29.3818C156.28 29.5322 155.913 29.6074 155.504 29.6074C155.093 29.6074 154.722 29.5322 154.393 29.3818C154.067 29.2314 153.791 29.0238 153.565 28.7588C153.336 28.4938 153.161 28.1823 153.039 27.8242C152.917 27.4661 152.856 27.0776 152.856 26.6587V26.5405ZM153.85 26.6587C153.85 26.9451 153.884 27.2191 153.952 27.4805C154.02 27.7383 154.124 27.9657 154.264 28.1626C154.4 28.3595 154.572 28.5153 154.779 28.6299C154.987 28.7445 155.229 28.8018 155.504 28.8018C155.777 28.8018 156.015 28.7445 156.219 28.6299C156.426 28.5153 156.6 28.3595 156.74 28.1626C156.876 27.9657 156.978 27.7383 157.046 27.4805C157.114 27.2191 157.148 26.9451 157.148 26.6587V26.5405C157.148 26.2576 157.112 25.9873 157.041 25.7295C156.972 25.4681 156.87 25.2389 156.734 25.042C156.595 24.8451 156.421 24.6893 156.213 24.5747C156.009 24.4565 155.769 24.3975 155.494 24.3975C155.218 24.3975 154.978 24.4565 154.774 24.5747C154.57 24.6893 154.4 24.8451 154.264 25.042C154.124 25.2389 154.02 25.4681 153.952 25.7295C153.884 25.9873 153.85 26.2576 153.85 26.5405V26.6587ZM159.742 29.5V23.6885H160.634L160.704 24.5479C160.79 24.4261 160.883 24.3151 160.983 24.2148C161.087 24.111 161.196 24.0215 161.311 23.9463C161.482 23.8317 161.669 23.744 161.869 23.6831C162.073 23.6187 162.288 23.5846 162.514 23.5811C162.818 23.5811 163.094 23.624 163.341 23.71C163.591 23.7959 163.805 23.9302 163.98 24.1128C164.155 24.2954 164.29 24.5282 164.383 24.811C164.479 25.0903 164.528 25.4233 164.528 25.8101V29.5H163.534V25.8315C163.534 25.5737 163.506 25.3553 163.448 25.1763C163.391 24.9972 163.307 24.8522 163.196 24.7412C163.081 24.6302 162.942 24.5496 162.777 24.4995C162.616 24.4494 162.43 24.4243 162.218 24.4243C162.036 24.4243 161.866 24.4512 161.708 24.5049C161.55 24.555 161.405 24.6248 161.273 24.7144C161.166 24.7931 161.065 24.8844 160.972 24.9883C160.883 25.0921 160.804 25.2067 160.736 25.332V29.5H159.742ZM168.916 29.6074C168.508 29.6074 168.132 29.5376 167.788 29.3979C167.448 29.2583 167.156 29.0632 166.913 28.8125C166.669 28.5618 166.479 28.2646 166.343 27.9209C166.207 27.5771 166.139 27.203 166.139 26.7983V26.5728C166.139 26.1037 166.214 25.6847 166.365 25.3159C166.515 24.9435 166.716 24.6284 166.966 24.3706C167.213 24.1164 167.494 23.9212 167.81 23.7852C168.128 23.6491 168.454 23.5811 168.787 23.5811C169.206 23.5811 169.571 23.6545 169.883 23.8013C170.198 23.9445 170.459 24.1432 170.667 24.3975C170.875 24.6553 171.029 24.9578 171.129 25.3052C171.233 25.6525 171.285 26.0285 171.285 26.4331V26.8789H167.133V26.9165C167.158 27.1994 167.213 27.4482 167.299 27.6631C167.389 27.8779 167.511 28.0677 167.665 28.2324C167.822 28.4079 168.012 28.5457 168.234 28.646C168.456 28.7463 168.701 28.7964 168.97 28.7964C169.324 28.7964 169.639 28.7248 169.915 28.5815C170.191 28.4383 170.42 28.2485 170.603 28.0122L171.209 28.4849C171.016 28.7785 170.726 29.0399 170.339 29.269C169.956 29.4946 169.482 29.6074 168.916 29.6074ZM168.787 24.3975C168.587 24.3975 168.397 24.4351 168.218 24.5103C168.039 24.5819 167.878 24.6875 167.734 24.8271C167.591 24.9704 167.469 25.1458 167.369 25.3535C167.272 25.5576 167.204 25.7939 167.165 26.0625H170.291V26.0142C170.291 25.8351 170.257 25.6436 170.189 25.4395C170.121 25.2318 170.026 25.0527 169.904 24.9023C169.783 24.752 169.629 24.6302 169.442 24.5371C169.26 24.444 169.041 24.3975 168.787 24.3975Z" fill="#7366FF"></path></svg> 