<?xml version="1.0" encoding="UTF-8"?> <svg xmlns="http://www.w3.org/2000/svg" width="64" height="32" viewBox="0 0 64 32" fill="none"><path d="M41.2578 19.125C41.2578 20.1605 40.4708 21 39.5 21C38.5292 21 37.7422 20.1605 37.7422 19.125C37.7422 18.0895 38.5292 17.25 39.5 17.25C40.4708 17.25 41.2578 18.0895 41.2578 19.125Z" fill="#F3F2F7"></path><path d="M18.3334 11.4881L15.4614 20.5127H12.9069L11.1383 14.7997L9.32445 20.5127H6.76991L3.88281 11.4881H6.34667L8.17566 17.3894L10.0802 11.4881H12.2871L14.1312 17.4993L16.0358 11.4881H18.3334Z" fill="#CAC9CF"></path><path d="M23.3909 20.6854C22.4739 20.6854 21.6475 20.4866 20.9119 20.089C20.1763 19.6809 19.5968 19.1211 19.1736 18.4096C18.7504 17.6981 18.5388 16.8976 18.5388 16.0082C18.5388 15.1189 18.7504 14.3184 19.1736 13.6069C19.5968 12.8849 20.1763 12.3251 20.9119 11.9275C21.6475 11.5195 22.4739 11.3154 23.3909 11.3154C24.2273 11.3154 24.9478 11.4462 25.5524 11.7078C26.1671 11.9694 26.6962 12.3879 27.1396 12.9634L25.5978 14.423C25.0234 13.7011 24.318 13.3401 23.4816 13.3401C22.7459 13.3401 22.1363 13.586 21.6526 14.0778C21.179 14.5695 20.9421 15.213 20.9421 16.0082C20.9421 16.5314 21.048 16.997 21.2596 17.4051C21.4813 17.8027 21.7836 18.1114 22.1665 18.3311C22.5595 18.5508 22.9979 18.6607 23.4816 18.6607C24.318 18.6607 25.0234 18.2997 25.5978 17.5777L27.1396 19.0374C26.7063 19.6024 26.1772 20.0209 25.5524 20.293C24.9377 20.5546 24.2172 20.6854 23.3909 20.6854Z" fill="#CAC9CF"></path><path d="M36.9658 11.4881L33.1869 20.5127H30.8289L27.0499 11.4881H29.5894L32.0683 17.6248L34.6078 11.4881H36.9658Z" fill="#CAC9CF"></path><path d="M51.4634 11.4881L47.6845 20.5127H45.3264L41.5475 11.4881H44.0869L46.5659 17.6248L49.1053 11.4881H51.4634Z" fill="#CAC9CF"></path><path d="M56.1341 20.6854C55.2171 20.6854 54.3908 20.4866 53.6552 20.089C52.9195 19.6809 52.3401 19.1211 51.9169 18.4096C51.4936 17.6981 51.282 16.8976 51.282 16.0082C51.282 15.1189 51.4936 14.3184 51.9169 13.6069C52.3401 12.8849 52.9195 12.3251 53.6552 11.9275C54.3908 11.5195 55.2171 11.3154 56.1341 11.3154C56.9705 11.3154 57.691 11.4462 58.2957 11.7078C58.9104 11.9694 59.4394 12.3879 59.8828 12.9634L58.341 14.423C57.7666 13.7011 57.0612 13.3401 56.2248 13.3401C55.4892 13.3401 54.8795 13.586 54.3958 14.0778C53.9222 14.5695 53.6854 15.213 53.6854 16.0082C53.6854 16.5314 53.7912 16.997 54.0028 17.4051C54.2245 17.8027 54.5268 18.1114 54.9098 18.3311C55.3028 18.5508 55.7411 18.6607 56.2248 18.6607C57.0612 18.6607 57.7666 18.2997 58.341 17.5777L59.8828 19.0374C59.4495 19.6024 58.9204 20.0209 58.2957 20.293C57.681 20.5546 56.9604 20.6854 56.1341 20.6854Z" fill="#CAC9CF"></path></svg> 