<?xml version="1.0" encoding="UTF-8"?> <svg xmlns="http://www.w3.org/2000/svg" width="64" height="32" viewBox="0 0 64 32" fill="none"><path d="M27.8234 21.5107C27.6795 21.5166 27.5436 21.5781 27.4445 21.6823L24.8618 24.8393C24.8274 24.9079 24.7584 24.9424 24.6896 25.0109C24.6656 25.0428 24.6344 25.0687 24.5986 25.0865C24.5628 25.1043 24.5233 25.1136 24.4832 25.1136C24.4432 25.1136 24.4037 25.1043 24.3679 25.0865C24.3321 25.0687 24.3009 25.0428 24.2769 25.0109L24.1047 24.8393L21.349 21.682C21.3066 21.6205 21.2502 21.5697 21.1844 21.534C21.1185 21.4983 21.0452 21.4785 20.9702 21.4764C20.9066 21.4749 20.8433 21.4863 20.7842 21.5099C20.7251 21.5335 20.6714 21.5688 20.6264 21.6137C20.5814 21.6585 20.546 21.712 20.5223 21.7709C20.4986 21.8298 20.4872 21.8928 20.4887 21.9562C20.4796 22.0157 20.4918 22.0764 20.5231 22.1278C20.5575 22.1964 20.5919 22.2309 20.6265 22.2994L23.4497 25.5941C23.5827 25.7378 23.7331 25.8646 23.8974 25.9715C24.0765 26.069 24.2788 26.1164 24.4828 26.1086C24.6972 26.1125 24.9094 26.0655 25.1019 25.9715C25.2728 25.8737 25.4244 25.7458 25.5495 25.5941L28.2022 22.299C28.2392 22.2569 28.2674 22.208 28.2852 22.1549C28.303 22.1019 28.3099 22.0458 28.3056 21.9901C28.3089 21.9264 28.2983 21.8628 28.2746 21.8036C28.2508 21.7445 28.2145 21.6911 28.168 21.6473C28.0753 21.5588 27.9517 21.5098 27.8234 21.5107V21.5107ZM34.1599 23.0891C34.2392 22.9527 34.3595 22.8446 34.5038 22.7802C34.6859 22.6906 34.8862 22.6437 35.0893 22.6431H40.0827C40.2106 22.6431 40.3332 22.5925 40.4236 22.5024C40.514 22.4123 40.5648 22.2901 40.5648 22.1627C40.5648 22.0353 40.514 21.9131 40.4236 21.823C40.3332 21.7329 40.2106 21.6823 40.0827 21.6823H34.8831C34.6057 21.6812 34.3327 21.7521 34.0911 21.8879C33.8655 22.0217 33.6669 22.1963 33.5057 22.4027C33.3391 22.6197 33.211 22.8634 33.1268 23.1234C33.0477 23.3796 33.0015 23.6448 32.9893 23.9126C32.9848 24.1705 33.0315 24.4268 33.1268 24.6666C33.1992 24.9247 33.3155 25.1685 33.4708 25.3873C33.6193 25.5926 33.8061 25.7674 34.0211 25.9021C34.2464 26.046 34.5105 26.1178 34.7779 26.1077H40.0813C40.2092 26.1077 40.3318 26.0571 40.4223 25.967C40.5127 25.8769 40.5635 25.7547 40.5635 25.6273C40.5635 25.4999 40.5127 25.3777 40.4223 25.2876C40.3318 25.1975 40.2092 25.1469 40.0813 25.1469H35.0897C34.8854 25.1588 34.682 25.1111 34.5043 25.0098C34.36 24.9453 34.2396 24.8373 34.1603 24.7009C34.0825 24.5732 34.0244 24.4345 33.9881 24.2896C33.9596 24.1544 33.9481 24.0163 33.9537 23.8783C33.9494 23.7404 33.961 23.6024 33.9881 23.467C34.0375 23.3376 34.0948 23.2114 34.1599 23.0891V23.0891ZM50.2767 22.4372C50.1282 22.2319 49.9413 22.0571 49.7263 21.9224C49.4976 21.7819 49.2378 21.6994 48.9696 21.6823H44.319C44.0415 21.6812 43.7686 21.7521 43.5269 21.8879C43.3014 22.0217 43.1028 22.1963 42.9415 22.4027C42.775 22.6197 42.6468 22.8634 42.5627 23.1234C42.4836 23.3796 42.4374 23.6448 42.4251 23.9126C42.4206 24.1705 42.4674 24.4268 42.5627 24.6666C42.6424 24.9109 42.7583 25.142 42.9067 25.3521C43.0551 25.5574 43.242 25.7322 43.457 25.8669C43.6857 26.0074 43.9456 26.0899 44.2137 26.107H48.8284C49.1058 26.1081 49.3787 26.0372 49.6204 25.9014C49.846 25.7676 50.0445 25.593 50.2058 25.3866C50.3724 25.1696 50.5005 24.9259 50.5846 24.6659C50.6637 24.4097 50.71 24.1445 50.7222 23.8767C50.7267 23.6188 50.6799 23.3625 50.5846 23.1227C50.5324 22.8749 50.4274 22.6411 50.2767 22.4372V22.4372ZM49.76 24.2903C49.7174 24.4331 49.6597 24.5709 49.5878 24.7016C49.5085 24.8379 49.3882 24.946 49.2439 25.0105C49.0618 25.1001 48.8615 25.147 48.6584 25.1476H44.56C44.3556 25.1595 44.1522 25.1118 43.9746 25.0105C43.8302 24.946 43.7099 24.8379 43.6306 24.7016C43.5528 24.5739 43.4947 24.4352 43.4584 24.2903C43.4299 24.1551 43.4183 24.017 43.424 23.879C43.4197 23.741 43.4312 23.6031 43.4584 23.4677C43.501 23.3249 43.5587 23.187 43.6306 23.0564C43.7099 22.92 43.8302 22.812 43.9746 22.7475C44.1567 22.6579 44.3569 22.611 44.56 22.6104H48.658C48.8623 22.5985 49.0657 22.6462 49.2434 22.7475C49.3877 22.812 49.5081 22.92 49.5874 23.0564C49.6652 23.1841 49.7233 23.3228 49.7596 23.4677C49.8054 23.74 49.8054 24.018 49.7596 24.2903H49.76ZM10.4325 21.682C10.3689 21.6806 10.3056 21.692 10.2465 21.7156C10.1874 21.7392 10.1337 21.7745 10.0887 21.8193C10.0437 21.8642 10.0083 21.9176 9.98463 21.9765C9.96095 22.0354 9.9495 22.0985 9.95097 22.1619V24.8048L3.99259 21.7165C3.9453 21.6768 3.89034 21.6472 3.8311 21.6295C3.77186 21.6117 3.7096 21.6063 3.64817 21.6135C3.58204 21.6168 3.51732 21.6338 3.45811 21.6633C3.3989 21.6928 3.34649 21.7343 3.30421 21.7851C3.23432 21.8856 3.19812 22.0056 3.20079 22.1278V25.5941C3.19748 25.6577 3.20806 25.7213 3.23182 25.7805C3.25557 25.8396 3.29193 25.893 3.33837 25.9368C3.38234 25.9831 3.43587 26.0193 3.49525 26.043C3.55463 26.0666 3.61847 26.0772 3.68234 26.0739C3.74621 26.0772 3.81004 26.0666 3.86943 26.043C3.92881 26.0193 3.98233 25.9831 4.0263 25.9368C4.07275 25.893 4.10911 25.8396 4.13286 25.7805C4.15661 25.7213 4.1672 25.6577 4.16389 25.5941V22.8832L10.0881 25.9715C10.1787 26.0361 10.2868 26.072 10.3981 26.0746C10.462 26.0779 10.5258 26.0673 10.5852 26.0437C10.6446 26.02 10.6981 25.9838 10.7421 25.9375C10.7722 25.9118 10.7968 25.8803 10.8146 25.845C10.8323 25.8097 10.8429 25.7712 10.8455 25.7318V25.5947V22.1619C10.8488 22.0982 10.8382 22.0346 10.8145 21.9755C10.7907 21.9163 10.7544 21.863 10.7079 21.8191C10.6781 21.7742 10.637 21.7379 10.5887 21.7138C10.5403 21.6897 10.4865 21.6788 10.4325 21.682ZM60.2292 21.8536C60.1618 21.7851 60.0754 21.7383 59.981 21.7192C59.8867 21.7001 59.7888 21.7096 59.6999 21.7465C59.6111 21.7834 59.5354 21.846 59.4825 21.9262C59.4297 22.0063 59.4023 22.1005 59.4037 22.1964V24.8393L53.4448 21.7506C53.3976 21.7109 53.3427 21.6813 53.2835 21.6636C53.2244 21.6459 53.1622 21.6404 53.1008 21.6475C53.0347 21.6509 52.97 21.6678 52.9108 21.6974C52.8516 21.7269 52.7992 21.7684 52.7569 21.8191C52.687 21.9197 52.6508 22.0396 52.6535 22.1619V25.6286C52.6535 25.6916 52.6659 25.754 52.6901 25.8122C52.7143 25.8704 52.7498 25.9233 52.7945 25.9678C52.8392 26.0124 52.8923 26.0477 52.9507 26.0719C53.0092 26.096 53.0718 26.1084 53.135 26.1084C53.1983 26.1084 53.2609 26.096 53.3193 26.0719C53.3777 26.0477 53.4308 26.0124 53.4755 25.9678C53.5202 25.9233 53.5557 25.8704 53.5799 25.8122C53.6041 25.754 53.6166 25.6916 53.6166 25.6286V22.9177L59.5399 26.006C59.6305 26.0706 59.7385 26.1065 59.8499 26.1091C59.9138 26.1124 59.9776 26.1018 60.037 26.0782C60.0964 26.0545 60.1499 26.0183 60.1939 25.972C60.2239 25.9463 60.2486 25.9148 60.2664 25.8795C60.2841 25.8442 60.2946 25.8057 60.2973 25.7663V25.6292V22.1971C60.3232 22.14 60.3306 22.0762 60.3185 22.0147C60.3064 21.9533 60.2755 21.897 60.2299 21.8539L60.2292 21.8536ZM30.6482 21.682C30.5846 21.6806 30.5213 21.692 30.4622 21.7156C30.4031 21.7392 30.3495 21.7745 30.3044 21.8193C30.2594 21.8642 30.224 21.9176 30.2003 21.9765C30.1767 22.0354 30.1652 22.0985 30.1667 22.1619V25.6286C30.1667 25.7558 30.2174 25.8779 30.3077 25.9678C30.398 26.0578 30.5205 26.1084 30.6482 26.1084C30.7759 26.1084 30.8984 26.0578 30.9887 25.9678C31.079 25.8779 31.1298 25.7558 31.1298 25.6286V22.1619C31.1331 22.0982 31.1225 22.0346 31.0988 21.9755C31.075 21.9163 31.0386 21.863 30.9922 21.8191C30.8943 21.7389 30.7737 21.691 30.6473 21.682H30.6482ZM19.9028 25.2854L17.4233 21.9912C17.2996 21.838 17.1477 21.7098 16.9756 21.6135C16.7965 21.516 16.5942 21.4687 16.3902 21.4764C16.1758 21.4725 15.9636 21.5195 15.7711 21.6135C15.6002 21.7113 15.4486 21.8392 15.3235 21.991L12.8774 25.2854C12.8404 25.3274 12.8122 25.3764 12.7944 25.4294C12.7766 25.4825 12.7697 25.5385 12.774 25.5943C12.7725 25.6577 12.784 25.7207 12.8077 25.7796C12.8313 25.8385 12.8668 25.892 12.9118 25.9368C12.9568 25.9817 13.0105 26.017 13.0695 26.0406C13.1286 26.0642 13.1919 26.0756 13.2556 26.0741C13.3994 26.0682 13.5353 26.0067 13.6344 25.9025L14.3223 24.976H18.4907L19.1786 25.8671C19.2181 25.9314 19.2739 25.9843 19.3404 26.0204C19.4069 26.0565 19.4818 26.0745 19.5574 26.0727C19.6211 26.0742 19.6844 26.0628 19.7435 26.0392C19.8025 26.0156 19.8562 25.9803 19.9012 25.9355C19.9462 25.8906 19.9817 25.8371 20.0053 25.7783C20.029 25.7194 20.0405 25.6563 20.039 25.5929C20.048 25.5335 20.0358 25.4727 20.0046 25.4213C19.9716 25.3882 19.9372 25.3196 19.9028 25.2854ZM14.9437 24.1872L16.0114 22.7804C16.0458 22.7119 16.1148 22.6774 16.1836 22.6088C16.2077 22.5769 16.2388 22.5511 16.2747 22.5332C16.3105 22.5154 16.35 22.5061 16.39 22.5061C16.43 22.5061 16.4695 22.5154 16.5053 22.5332C16.5411 22.5511 16.5723 22.5769 16.5964 22.6088L16.7686 22.7804L17.8362 24.1872H14.9437Z" fill="#CAC9CF"></path><path d="M43.7999 5.16406H43.5554C42.7528 5.16406 42.0878 5.19879 41.7044 5.89524L38.0371 12.6463C37.6879 13.2728 37.129 13.3422 36.7098 12.9246L36.675 12.8898C36.6401 12.8213 36.5702 12.7854 36.5353 12.7157C36.5353 12.7157 33.1475 7.7739 32.9728 7.49559C32.64 6.96088 32.2142 6.48952 31.7155 6.10362V6.10362C30.9822 5.58175 29.9344 5.16406 28.2577 5.16406C25.4638 5.16406 24.2065 6.31246 23.4032 7.80885C23.3345 7.98297 18.9317 16.126 18.9317 16.126C18.5476 16.8219 18.8969 17.3788 19.7001 17.3788H19.9446C20.7471 17.3788 21.4121 17.344 21.7956 16.6476L25.4638 9.89704C25.8131 9.27052 26.3719 9.20105 26.7911 9.61874L26.8259 9.65347C26.8608 9.72202 26.9307 9.75789 26.9656 9.82758C26.9656 9.82758 30.3534 14.7694 30.5281 15.0477C30.8609 15.5824 31.2867 16.0538 31.7854 16.4397V16.4397C32.5538 17.0312 33.5667 17.4142 35.2432 17.4142C38.0373 17.4142 39.2946 16.2658 40.0979 14.7694C40.1667 14.6302 44.6034 6.48657 44.6034 6.48657C44.9175 5.75563 44.6031 5.16406 43.7999 5.16406ZM20.9932 16.2308C20.8884 16.4049 20.7836 16.5091 19.9104 16.5091H19.7008L19.7357 16.4744C21.4124 13.4126 22.4601 11.3587 22.7048 10.941C23.2636 10.0015 23.9969 9.37494 24.5558 9.37494H24.6954L20.9932 16.2308ZM35.2081 16.5091C33.322 16.5091 32.449 15.987 31.7503 15.2216C31.5756 15.0127 31.4011 14.7692 31.2264 14.5256C31.0516 14.282 30.8423 13.9688 30.5279 13.5511L29.6898 12.2983L29.585 12.1241L27.664 9.34021C27.603 9.25185 27.5328 9.1702 27.4545 9.09663C26.3368 7.6697 24.9747 7.87854 23.927 8.40065C24.1714 7.63497 25.8131 6.07003 28.2577 6.07003C30.1438 6.07003 31.0168 6.59214 31.7155 7.35758C31.8902 7.56642 32.0647 7.81 32.2395 8.05357C32.4142 8.29714 32.6236 8.6104 32.9379 9.02809L33.7761 10.2809L33.8809 10.455L35.802 13.238C35.863 13.3264 35.9333 13.4081 36.0116 13.4816C37.1293 14.9085 38.4914 14.6997 39.5391 14.1776C39.2944 14.9435 37.653 16.5094 35.2081 16.5094V16.5091ZM43.7299 6.10362C42.0535 9.16541 41.0057 11.2193 40.7613 11.637C40.2025 12.5766 39.4691 13.2031 38.9103 13.2031H38.7707L42.5084 6.34834C42.6132 6.17422 42.718 6.07003 43.5912 6.07003H43.8008L43.7299 6.10362Z" fill="#CAC9CF"></path></svg> 