<?xml version="1.0" encoding="UTF-8"?> <svg xmlns="http://www.w3.org/2000/svg" width="890" height="890" viewBox="0 0 890 890" fill="none"><g clip-path="url(#clip0_2264_8754)"><rect width="890" height="890" fill="#FCFBFD"></rect><g opacity="0.5"><path opacity="0.2" d="M-393.116 45.4346H-433.026V85.3449M-393.116 45.4346V85.3449M-393.116 45.4346H-353.206M-393.116 85.3449H-433.026M-393.116 85.3449V125.255M-393.116 85.3449H-353.206M-433.026 85.3449V125.255M-393.116 125.255H-433.026M-393.116 125.255V165.166M-393.116 125.255H-353.206M-433.026 125.255V165.166M-393.116 165.166H-433.026M-393.116 165.166V205.076M-393.116 165.166H-353.206M-433.026 165.166V205.076M-393.116 205.076H-433.026M-393.116 205.076V244.986M-393.116 205.076H-353.206M-433.026 205.076V244.986M-393.116 244.986H-433.026M-393.116 244.986V284.896M-393.116 244.986H-353.206M-433.026 244.986V284.896M-393.116 284.896H-433.026M-393.116 284.896V324.807M-393.116 284.896H-353.206M-433.026 284.896V324.807M-393.116 324.807H-433.026M-393.116 324.807V364.717M-393.116 324.807H-353.206M-433.026 324.807V364.717M-393.116 364.717H-433.026M-393.116 364.717V404.627M-393.116 364.717H-353.206M-433.026 364.717V404.627M-393.116 404.627H-433.026M-393.116 404.627V444.538M-393.116 404.627H-353.206M-433.026 404.627V444.538M-393.116 444.538H-433.026M-393.116 444.538V484.448M-393.116 444.538H-353.206M-433.026 444.538V484.448M-393.116 484.448H-433.026M-393.116 484.448V524.358M-393.116 484.448H-353.206M-433.026 484.448V524.358M-393.116 524.358H-433.026M-393.116 524.358V564.269M-393.116 524.358H-353.206M-433.026 524.358V564.269M-393.116 564.269H-433.026M-393.116 564.269V604.179M-393.116 564.269H-353.206M-433.026 564.269V604.179M-393.116 604.179H-433.026M-393.116 604.179V644.089M-393.116 604.179H-353.206M-433.026 604.179V644.089M-393.116 644.089H-433.026M-393.116 644.089V684M-393.116 644.089H-353.206M-433.026 644.089V684M-393.116 684H-433.026M-393.116 684V723.91M-393.116 684H-353.206M-433.026 684V723.91M-393.116 723.91H-433.026M-393.116 723.91V763.82M-393.116 723.91H-353.206M-433.026 723.91V763.82M-393.116 763.82H-433.026M-393.116 763.82V803.731M-393.116 763.82H-353.206M-433.026 763.82V803.731M-393.116 803.731H-433.026M-393.116 803.731V843.641M-393.116 803.731H-353.206M-433.026 803.731V843.641H-393.116M-393.116 843.641H-353.206M-353.206 45.4346V85.3449M-353.206 45.4346H-313.295M-353.206 85.3449V125.255M-353.206 85.3449H-313.295M-353.206 125.255V165.166M-353.206 125.255H-313.295M-353.206 165.166V205.076M-353.206 165.166H-313.295M-353.206 205.076V244.986M-353.206 205.076H-313.295M-353.206 244.986V284.896M-353.206 244.986H-313.295M-353.206 284.896V324.807M-353.206 284.896H-313.295M-353.206 324.807V364.717M-353.206 324.807H-313.295M-353.206 364.717V404.627M-353.206 364.717H-313.295M-353.206 404.627V444.538M-353.206 404.627H-313.295M-353.206 444.538V484.448M-353.206 444.538H-313.295M-353.206 484.448V524.358M-353.206 484.448H-313.295M-353.206 524.358V564.269M-353.206 524.358H-313.295M-353.206 564.269V604.179M-353.206 564.269H-313.295M-353.206 604.179V644.089M-353.206 604.179H-313.295M-353.206 644.089V684M-353.206 644.089H-313.295M-353.206 684V723.91M-353.206 684H-313.295M-353.206 723.91V763.82M-353.206 723.91H-313.295M-353.206 763.82V803.731M-353.206 763.82H-313.295M-353.206 803.731V843.641M-353.206 803.731H-313.295M-353.206 843.641H-313.295M-313.295 45.4346V85.3449M-313.295 45.4346H-273.385M-313.295 85.3449V125.255M-313.295 85.3449H-273.385M-313.295 125.255V165.166M-313.295 125.255H-273.385M-313.295 165.166V205.076M-313.295 165.166H-273.385M-313.295 205.076V244.986M-313.295 205.076H-273.385M-313.295 244.986V284.896M-313.295 244.986H-273.385M-313.295 284.896V324.807M-313.295 284.896H-273.385M-313.295 324.807V364.717M-313.295 324.807H-273.385M-313.295 364.717V404.627M-313.295 364.717H-273.385M-313.295 404.627V444.538M-313.295 404.627H-273.385M-313.295 444.538V484.448M-313.295 444.538H-273.385M-313.295 484.448V524.358M-313.295 484.448H-273.385M-313.295 524.358V564.269M-313.295 524.358H-273.385M-313.295 564.269V604.179M-313.295 564.269H-273.385M-313.295 604.179V644.089M-313.295 604.179H-273.385M-313.295 644.089V684M-313.295 644.089H-273.385M-313.295 684V723.91M-313.295 684H-273.385M-313.295 723.91V763.82M-313.295 723.91H-273.385M-313.295 763.82V803.731M-313.295 763.82H-273.385M-313.295 803.731V843.641M-313.295 803.731H-273.385M-313.295 843.641H-273.385M-273.385 45.4346V85.3449M-273.385 45.4346H-233.475M-273.385 85.3449V125.255M-273.385 85.3449H-233.475M-273.385 125.255V165.166M-273.385 125.255H-233.475M-273.385 165.166V205.076M-273.385 165.166H-233.475M-273.385 205.076V244.986M-273.385 205.076H-233.475M-273.385 244.986V284.896M-273.385 244.986H-233.475M-273.385 284.896V324.807M-273.385 284.896H-233.475M-273.385 324.807V364.717M-273.385 324.807H-233.475M-273.385 364.717V404.627M-273.385 364.717H-233.475M-273.385 404.627V444.538M-273.385 404.627H-233.475M-273.385 444.538V484.448M-273.385 444.538H-233.475M-273.385 484.448V524.358M-273.385 484.448H-233.475M-273.385 524.358V564.269M-273.385 524.358H-233.475M-273.385 564.269V604.179M-273.385 564.269H-233.475M-273.385 604.179V644.089M-273.385 604.179H-233.475M-273.385 644.089V684M-273.385 644.089H-233.475M-273.385 684V723.91M-273.385 684H-233.475M-273.385 723.91V763.82M-273.385 723.91H-233.475M-273.385 763.82V803.731M-273.385 763.82H-233.475M-273.385 803.731V843.641M-273.385 803.731H-233.475M-273.385 843.641H-233.475M-233.475 45.4346V85.3449M-233.475 45.4346H-193.565M-233.475 85.3449V125.255M-233.475 85.3449H-193.565M-233.475 125.255V165.166M-233.475 125.255H-193.565M-233.475 165.166V205.076M-233.475 165.166H-193.565M-233.475 205.076V244.986M-233.475 205.076H-193.565M-233.475 244.986V284.896M-233.475 244.986H-193.565M-233.475 284.896V324.807M-233.475 284.896H-193.565M-233.475 324.807V364.717M-233.475 324.807H-193.565M-233.475 364.717V404.627M-233.475 364.717H-193.565M-233.475 404.627V444.538M-233.475 404.627H-193.565M-233.475 444.538V484.448M-233.475 444.538H-193.565M-233.475 484.448V524.358M-233.475 484.448H-193.565M-233.475 524.358V564.269M-233.475 524.358H-193.565M-233.475 564.269V604.179M-233.475 564.269H-193.565M-233.475 604.179V644.089M-233.475 604.179H-193.565M-233.475 644.089V684M-233.475 644.089H-193.565M-233.475 684V723.91M-233.475 684H-193.565M-233.475 723.91V763.82M-233.475 723.91H-193.565M-233.475 763.82V803.731M-233.475 763.82H-193.565M-233.475 803.731V843.641M-233.475 803.731H-193.565M-233.475 843.641H-193.565M-193.565 45.4346V85.3449M-193.565 45.4346H-153.654M-193.565 85.3449V125.255M-193.565 85.3449H-153.654M-193.565 125.255V165.166M-193.565 125.255H-153.654M-193.565 165.166V205.076M-193.565 165.166H-153.654M-193.565 205.076V244.986M-193.565 205.076H-153.654M-193.565 244.986V284.896M-193.565 244.986H-153.654M-193.565 284.896V324.807M-193.565 284.896H-153.654M-193.565 324.807V364.717M-193.565 324.807H-153.654M-193.565 364.717V404.627M-193.565 364.717H-153.654M-193.565 404.627V444.538M-193.565 404.627H-153.654M-193.565 444.538V484.448M-193.565 444.538H-153.654M-193.565 484.448V524.358M-193.565 484.448H-153.654M-193.565 524.358V564.269M-193.565 524.358H-153.654M-193.565 564.269V604.179M-193.565 564.269H-153.654M-193.565 604.179V644.089M-193.565 604.179H-153.654M-193.565 644.089V684M-193.565 644.089H-153.654M-193.565 684V723.91M-193.565 684H-153.654M-193.565 723.91V763.82M-193.565 723.91H-153.654M-193.565 763.82V803.731M-193.565 763.82H-153.654M-193.565 803.731V843.641M-193.565 803.731H-153.654M-193.565 843.641H-153.654M-153.654 45.4346V85.3449M-153.654 45.4346H-113.744M-153.654 85.3449V125.255M-153.654 85.3449H-113.744M-153.654 125.255V165.166M-153.654 125.255H-113.744M-153.654 165.166V205.076M-153.654 165.166H-113.744M-153.654 205.076V244.986M-153.654 205.076H-113.744M-153.654 244.986V284.896M-153.654 244.986H-113.744M-153.654 284.896V324.807M-153.654 284.896H-113.744M-153.654 324.807V364.717M-153.654 324.807H-113.744M-153.654 364.717V404.627M-153.654 364.717H-113.744M-153.654 404.627V444.538M-153.654 404.627H-113.744M-153.654 444.538V484.448M-153.654 444.538H-113.744M-153.654 484.448V524.358M-153.654 484.448H-113.744M-153.654 524.358V564.269M-153.654 524.358H-113.744M-153.654 564.269V604.179M-153.654 564.269H-113.744M-153.654 604.179V644.089M-153.654 604.179H-113.744M-153.654 644.089V684M-153.654 644.089H-113.744M-153.654 684V723.91M-153.654 684H-113.744M-153.654 723.91V763.82M-153.654 723.91H-113.744M-153.654 763.82V803.731M-153.654 763.82H-113.744M-153.654 803.731V843.641M-153.654 803.731H-113.744M-153.654 843.641H-113.744M-113.744 45.4346V85.3449M-113.744 45.4346H-73.8337M-113.744 85.3449V125.255M-113.744 85.3449H-73.8337M-113.744 125.255V165.166M-113.744 125.255H-73.8337M-113.744 165.166V205.076M-113.744 165.166H-73.8337M-113.744 205.076V244.986M-113.744 205.076H-73.8337M-113.744 244.986V284.896M-113.744 244.986H-73.8337M-113.744 284.896V324.807M-113.744 284.896H-73.8337M-113.744 324.807V364.717M-113.744 324.807H-73.8337M-113.744 364.717V404.627M-113.744 364.717H-73.8337M-113.744 404.627V444.538M-113.744 404.627H-73.8337M-113.744 444.538V484.448M-113.744 444.538H-73.8337M-113.744 484.448V524.358M-113.744 484.448H-73.8337M-113.744 524.358V564.269M-113.744 524.358H-73.8337M-113.744 564.269V604.179M-113.744 564.269H-73.8337M-113.744 604.179V644.089M-113.744 604.179H-73.8337M-113.744 644.089V684M-113.744 644.089H-73.8337M-113.744 684V723.91M-113.744 684H-73.8337M-113.744 723.91V763.82M-113.744 723.91H-73.8337M-113.744 763.82V803.731M-113.744 763.82H-73.8337M-113.744 803.731V843.641M-113.744 803.731H-73.8337M-113.744 843.641H-73.8337M-73.8337 45.4346V85.3449M-73.8337 45.4346H-33.9234M-73.8337 85.3449V125.255M-73.8337 85.3449H-33.9234M-73.8337 125.255V165.166M-73.8337 125.255H-33.9234M-73.8337 165.166V205.076M-73.8337 165.166H-33.9234M-73.8337 205.076V244.986M-73.8337 205.076H-33.9234M-73.8337 244.986V284.896M-73.8337 244.986H-33.9234M-73.8337 284.896V324.807M-73.8337 284.896H-33.9234M-73.8337 324.807V364.717M-73.8337 324.807H-33.9234M-73.8337 364.717V404.627M-73.8337 364.717H-33.9234M-73.8337 404.627V444.538M-73.8337 404.627H-33.9234M-73.8337 444.538V484.448M-73.8337 444.538H-33.9234M-73.8337 484.448V524.358M-73.8337 484.448H-33.9234M-73.8337 524.358V564.269M-73.8337 524.358H-33.9234M-73.8337 564.269V604.179M-73.8337 564.269H-33.9234M-73.8337 604.179V644.089M-73.8337 604.179H-33.9234M-73.8337 644.089V684M-73.8337 644.089H-33.9234M-73.8337 684V723.91M-73.8337 684H-33.9234M-73.8337 723.91V763.82M-73.8337 723.91H-33.9234M-73.8337 763.82V803.731M-73.8337 763.82H-33.9234M-73.8337 803.731V843.641M-73.8337 803.731H-33.9234M-73.8337 843.641H-33.9234M-33.9234 45.4346V85.3449M-33.9234 45.4346H5.98685M-33.9234 85.3449V125.255M-33.9234 85.3449H5.98685M-33.9234 125.255V165.166M-33.9234 125.255H5.98685M-33.9234 165.166V205.076M-33.9234 165.166H5.98685M-33.9234 205.076V244.986M-33.9234 205.076H5.98685M-33.9234 244.986V284.896M-33.9234 244.986H5.98685M-33.9234 284.896V324.807M-33.9234 284.896H5.98685M-33.9234 324.807V364.717M-33.9234 324.807H5.98685M-33.9234 364.717V404.627M-33.9234 364.717H5.98685M-33.9234 404.627V444.538M-33.9234 404.627H5.98685M-33.9234 444.538V484.448M-33.9234 444.538H5.98685M-33.9234 484.448V524.358M-33.9234 484.448H5.98685M-33.9234 524.358V564.269M-33.9234 524.358H5.98685M-33.9234 564.269V604.179M-33.9234 564.269H5.98685M-33.9234 604.179V644.089M-33.9234 604.179H5.98685M-33.9234 644.089V684M-33.9234 644.089H5.98685M-33.9234 684V723.91M-33.9234 684H5.98685M-33.9234 723.91V763.82M-33.9234 723.91H5.98685M-33.9234 763.82V803.731M-33.9234 763.82H5.98685M-33.9234 803.731V843.641M-33.9234 803.731H5.98685M-33.9234 843.641H5.98685M5.98685 45.4346V85.3449M5.98685 45.4346H45.8971M5.98685 85.3449V125.255M5.98685 85.3449H45.8971M5.98685 125.255V165.166M5.98685 125.255H45.8971M5.98685 165.166V205.076M5.98685 165.166H45.8971M5.98685 205.076V244.986M5.98685 205.076H45.8971M5.98685 244.986V284.896M5.98685 244.986H45.8971M5.98685 284.896V324.807M5.98685 284.896H45.8971M5.98685 324.807V364.717M5.98685 324.807H45.8971M5.98685 364.717V404.627M5.98685 364.717H45.8971M5.98685 404.627V444.538M5.98685 404.627H45.8971M5.98685 444.538V484.448M5.98685 444.538H45.8971M5.98685 484.448V524.358M5.98685 484.448H45.8971M5.98685 524.358V564.269M5.98685 524.358H45.8971M5.98685 564.269V604.179M5.98685 564.269H45.8971M5.98685 604.179V644.089M5.98685 604.179H45.8971M5.98685 644.089V684M5.98685 644.089H45.8971M5.98685 684V723.91M5.98685 684H45.8971M5.98685 723.91V763.82M5.98685 723.91H45.8971M5.98685 763.82V803.731M5.98685 763.82H45.8971M5.98685 803.731V843.641M5.98685 803.731H45.8971M5.98685 843.641H45.8971M45.8971 45.4346V85.3449M45.8971 45.4346H85.8074M45.8971 85.3449V125.255M45.8971 85.3449H85.8074M45.8971 125.255V165.166M45.8971 125.255H85.8074M45.8971 165.166V205.076M45.8971 165.166H85.8074M45.8971 205.076V244.986M45.8971 205.076H85.8074M45.8971 244.986V284.896M45.8971 244.986H85.8074M45.8971 284.896V324.807M45.8971 284.896H85.8074M45.8971 324.807V364.717M45.8971 324.807H85.8074M45.8971 364.717V404.627M45.8971 364.717H85.8074M45.8971 404.627V444.538M45.8971 404.627H85.8074M45.8971 444.538V484.448M45.8971 444.538H85.8074M45.8971 484.448V524.358M45.8971 484.448H85.8074M45.8971 524.358V564.269M45.8971 524.358H85.8074M45.8971 564.269V604.179M45.8971 564.269H85.8074M45.8971 604.179V644.089M45.8971 604.179H85.8074M45.8971 644.089V684M45.8971 644.089H85.8074M45.8971 684V723.91M45.8971 684H85.8074M45.8971 723.91V763.82M45.8971 723.91H85.8074M45.8971 763.82V803.731M45.8971 763.82H85.8074M45.8971 803.731V843.641M45.8971 803.731H85.8074M45.8971 843.641H85.8074M85.8074 45.4346V85.3449M85.8074 45.4346H125.718M85.8074 85.3449V125.255M85.8074 85.3449H125.718M85.8074 125.255V165.166M85.8074 125.255H125.718M85.8074 165.166V205.076M85.8074 165.166H125.718M85.8074 205.076V244.986M85.8074 205.076H125.718M85.8074 244.986V284.896M85.8074 244.986H125.718M85.8074 284.896V324.807M85.8074 284.896H125.718M85.8074 324.807V364.717M85.8074 324.807H125.718M85.8074 364.717V404.627M85.8074 364.717H125.718M85.8074 404.627V444.538M85.8074 404.627H125.718M85.8074 444.538V484.448M85.8074 444.538H125.718M85.8074 484.448V524.358M85.8074 484.448H125.718M85.8074 524.358V564.269M85.8074 524.358H125.718M85.8074 564.269V604.179M85.8074 564.269H125.718M85.8074 604.179V644.089M85.8074 604.179H125.718M85.8074 644.089V684M85.8074 644.089H125.718M85.8074 684V723.91M85.8074 684H125.718M85.8074 723.91V763.82M85.8074 723.91H125.718M85.8074 763.82V803.731M85.8074 763.82H125.718M85.8074 803.731V843.641M85.8074 803.731H125.718M85.8074 843.641H125.718M125.718 45.4346V85.3449M125.718 45.4346H165.628M125.718 85.3449V125.255M125.718 85.3449H165.628M125.718 125.255V165.166M125.718 125.255H165.628M125.718 165.166V205.076M125.718 165.166H165.628M125.718 205.076V244.986M125.718 205.076H165.628M125.718 244.986V284.896M125.718 244.986H165.628M125.718 284.896V324.807M125.718 284.896H165.628M125.718 324.807V364.717M125.718 324.807H165.628M125.718 364.717V404.627M125.718 364.717H165.628M125.718 404.627V444.538M125.718 404.627H165.628M125.718 444.538V484.448M125.718 444.538H165.628M125.718 484.448V524.358M125.718 484.448H165.628M125.718 524.358V564.269M125.718 524.358H165.628M125.718 564.269V604.179M125.718 564.269H165.628M125.718 604.179V644.089M125.718 604.179H165.628M125.718 644.089V684M125.718 644.089H165.628M125.718 684V723.91M125.718 684H165.628M125.718 723.91V763.82M125.718 723.91H165.628M125.718 763.82V803.731M125.718 763.82H165.628M125.718 803.731V843.641M125.718 803.731H165.628M125.718 843.641H165.628M165.628 45.4346V85.3449M165.628 45.4346H205.538M165.628 85.3449V125.255M165.628 85.3449H205.538M165.628 125.255V165.166M165.628 125.255H205.538M165.628 165.166V205.076M165.628 165.166H205.538M165.628 205.076V244.986M165.628 205.076H205.538M165.628 244.986V284.896M165.628 244.986H205.538M165.628 284.896V324.807M165.628 284.896H205.538M165.628 324.807V364.717M165.628 324.807H205.538M165.628 364.717V404.627M165.628 364.717H205.538M165.628 404.627V444.538M165.628 404.627H205.538M165.628 444.538V484.448M165.628 444.538H205.538M165.628 484.448V524.358M165.628 484.448H205.538M165.628 524.358V564.269M165.628 524.358H205.538M165.628 564.269V604.179M165.628 564.269H205.538M165.628 604.179V644.089M165.628 604.179H205.538M165.628 644.089V684M165.628 644.089H205.538M165.628 684V723.91M165.628 684H205.538M165.628 723.91V763.82M165.628 723.91H205.538M165.628 763.82V803.731M165.628 763.82H205.538M165.628 803.731V843.641M165.628 803.731H205.538M165.628 843.641H205.538M205.538 45.4346V85.3449M205.538 45.4346H245.449M205.538 85.3449V125.255M205.538 85.3449H245.449M205.538 125.255V165.166M205.538 125.255H245.449M205.538 165.166V205.076M205.538 165.166H245.449M205.538 205.076V244.986M205.538 205.076H245.449M205.538 244.986V284.896M205.538 244.986H245.449M205.538 284.896V324.807M205.538 284.896H245.449M205.538 324.807V364.717M205.538 324.807H245.449M205.538 364.717V404.627M205.538 364.717H245.449M205.538 404.627V444.538M205.538 404.627H245.449M205.538 444.538V484.448M205.538 444.538H245.449M205.538 484.448V524.358M205.538 484.448H245.449M205.538 524.358V564.269M205.538 524.358H245.449M205.538 564.269V604.179M205.538 564.269H245.449M205.538 604.179V644.089M205.538 604.179H245.449M205.538 644.089V684M205.538 644.089H245.449M205.538 684V723.91M205.538 684H245.449M205.538 723.91V763.82M205.538 723.91H245.449M205.538 763.82V803.731M205.538 763.82H245.449M205.538 803.731V843.641M205.538 803.731H245.449M205.538 843.641H245.449M245.449 45.4346V85.3449M245.449 45.4346H285.359M245.449 85.3449V125.255M245.449 85.3449H285.359M245.449 125.255V165.166M245.449 125.255H285.359M245.449 165.166V205.076M245.449 165.166H285.359M245.449 205.076V244.986M245.449 205.076H285.359M245.449 244.986V284.896M245.449 244.986H285.359M245.449 284.896V324.807M245.449 284.896H285.359M245.449 324.807V364.717M245.449 324.807H285.359M245.449 364.717V404.627M245.449 364.717H285.359M245.449 404.627V444.538M245.449 404.627H285.359M245.449 444.538V484.448M245.449 444.538H285.359M245.449 484.448V524.358M245.449 484.448H285.359M245.449 524.358V564.269M245.449 524.358H285.359M245.449 564.269V604.179M245.449 564.269H285.359M245.449 604.179V644.089M245.449 604.179H285.359M245.449 644.089V684M245.449 644.089H285.359M245.449 684V723.91M245.449 684H285.359M245.449 723.91V763.82M245.449 723.91H285.359M245.449 763.82V803.731M245.449 763.82H285.359M245.449 803.731V843.641M245.449 803.731H285.359M245.449 843.641H285.359M285.359 45.4346V85.3449M285.359 45.4346H325.269M285.359 85.3449V125.255M285.359 85.3449H325.269M285.359 125.255V165.166M285.359 125.255H325.269M285.359 165.166V205.076M285.359 165.166H325.269M285.359 205.076V244.986M285.359 205.076H325.269M285.359 244.986V284.896M285.359 244.986H325.269M285.359 284.896V324.807M285.359 284.896H325.269M285.359 324.807V364.717M285.359 324.807H325.269M285.359 364.717V404.627M285.359 364.717H325.269M285.359 404.627V444.538M285.359 404.627H325.269M285.359 444.538V484.448M285.359 444.538H325.269M285.359 484.448V524.358M285.359 484.448H325.269M285.359 524.358V564.269M285.359 524.358H325.269M285.359 564.269V604.179M285.359 564.269H325.269M285.359 604.179V644.089M285.359 604.179H325.269M285.359 644.089V684M285.359 644.089H325.269M285.359 684V723.91M285.359 684H325.269M285.359 723.91V763.82M285.359 723.91H325.269M285.359 763.82V803.731M285.359 763.82H325.269M285.359 803.731V843.641M285.359 803.731H325.269M285.359 843.641H325.269M325.269 45.4346V85.3449M325.269 45.4346H365.179M325.269 85.3449V125.255M325.269 85.3449H365.179M325.269 125.255V165.166M325.269 125.255H365.179M325.269 165.166V205.076M325.269 165.166H365.179M325.269 205.076V244.986M325.269 205.076H365.179M325.269 244.986V284.896M325.269 244.986H365.179M325.269 284.896V324.807M325.269 284.896H365.179M325.269 324.807V364.717M325.269 324.807H365.179M325.269 364.717V404.627M325.269 364.717H365.179M325.269 404.627V444.538M325.269 404.627H365.179M325.269 444.538V484.448M325.269 444.538H365.179M325.269 484.448V524.358M325.269 484.448H365.179M325.269 524.358V564.269M325.269 524.358H365.179M325.269 564.269V604.179M325.269 564.269H365.179M325.269 604.179V644.089M325.269 604.179H365.179M325.269 644.089V684M325.269 644.089H365.179M325.269 684V723.91M325.269 684H365.179M325.269 723.91V763.82M325.269 723.91H365.179M325.269 763.82V803.731M325.269 763.82H365.179M325.269 803.731V843.641M325.269 803.731H365.179M325.269 843.641H365.179M365.179 45.4346V85.3449M365.179 45.4346H405.09M365.179 85.3449V125.255M365.179 85.3449H405.09M365.179 125.255V165.166M365.179 125.255H405.09M365.179 165.166V205.076M365.179 165.166H405.09M365.179 205.076V244.986M365.179 205.076H405.09M365.179 244.986V284.896M365.179 244.986H405.09M365.179 284.896V324.807M365.179 284.896H405.09M365.179 324.807V364.717M365.179 324.807H405.09M365.179 364.717V404.627M365.179 364.717H405.09M365.179 404.627V444.538M365.179 404.627H405.09M365.179 444.538V484.448M365.179 444.538H405.09M365.179 484.448V524.358M365.179 484.448H405.09M365.179 524.358V564.269M365.179 524.358H405.09M365.179 564.269V604.179M365.179 564.269H405.09M365.179 604.179V644.089M365.179 604.179H405.09M365.179 644.089V684M365.179 644.089H405.09M365.179 684V723.91M365.179 684H405.09M365.179 723.91V763.82M365.179 723.91H405.09M365.179 763.82V803.731M365.179 763.82H405.09M365.179 803.731V843.641M365.179 803.731H405.09M365.179 843.641H405.09M405.09 45.4346V85.3449M405.09 45.4346H445M405.09 85.3449V125.255M405.09 85.3449H445M405.09 125.255V165.166M405.09 125.255H445M405.09 165.166V205.076M405.09 165.166H445M405.09 205.076V244.986M405.09 205.076H445M405.09 244.986V284.896M405.09 244.986H445M405.09 284.896V324.807M405.09 284.896H445M405.09 324.807V364.717M405.09 324.807H445M405.09 364.717V404.627M405.09 364.717H445M405.09 404.627V444.538M405.09 404.627H445M405.09 444.538V484.448M405.09 444.538H445M405.09 484.448V524.358M405.09 484.448H445M405.09 524.358V564.269M405.09 524.358H445M405.09 564.269V604.179M405.09 564.269H445M405.09 604.179V644.089M405.09 604.179H445M405.09 644.089V684M405.09 644.089H445M405.09 684V723.91M405.09 684H445M405.09 723.91V763.82M405.09 723.91H445M405.09 763.82V803.731M405.09 763.82H445M405.09 803.731V843.641M405.09 803.731H445M405.09 843.641H445M445 45.4346V85.3449M445 45.4346H484.91M445 85.3449V125.255M445 85.3449H484.91M445 125.255V165.166M445 125.255H484.91M445 165.166V205.076M445 165.166H484.91M445 205.076V244.986M445 205.076H484.91M445 244.986V284.896M445 244.986H484.91M445 284.896V324.807M445 284.896H484.91M445 324.807V364.717M445 324.807H484.91M445 364.717V404.627M445 364.717H484.91M445 404.627V444.538M445 404.627H484.91M445 444.538V484.448M445 444.538H484.91M445 484.448V524.358M445 484.448H484.91M445 524.358V564.269M445 524.358H484.91M445 564.269V604.179M445 564.269H484.91M445 604.179V644.089M445 604.179H484.91M445 644.089V684M445 644.089H484.91M445 684V723.91M445 684H484.91M445 723.91V763.82M445 723.91H484.91M445 763.82V803.731M445 763.82H484.91M445 803.731V843.641M445 803.731H484.91M445 843.641H484.91M484.91 45.4346V85.3449M484.91 45.4346H524.821M484.91 85.3449V125.255M484.91 85.3449H524.821M484.91 125.255V165.166M484.91 125.255H524.821M484.91 165.166V205.076M484.91 165.166H524.821M484.91 205.076V244.986M484.91 205.076H524.821M484.91 244.986V284.896M484.91 244.986H524.821M484.91 284.896V324.807M484.91 284.896H524.821M484.91 324.807V364.717M484.91 324.807H524.821M484.91 364.717V404.627M484.91 364.717H524.821M484.91 404.627V444.538M484.91 404.627H524.821M484.91 444.538V484.448M484.91 444.538H524.821M484.91 484.448V524.358M484.91 484.448H524.821M484.91 524.358V564.269M484.91 524.358H524.821M484.91 564.269V604.179M484.91 564.269H524.821M484.91 604.179V644.089M484.91 604.179H524.821M484.91 644.089V684M484.91 644.089H524.821M484.91 684V723.91M484.91 684H524.821M484.91 723.91V763.82M484.91 723.91H524.821M484.91 763.82V803.731M484.91 763.82H524.821M484.91 803.731V843.641M484.91 803.731H524.821M484.91 843.641H524.821M524.821 45.4346V85.3449M524.821 45.4346H564.731M524.821 85.3449V125.255M524.821 85.3449H564.731M524.821 125.255V165.166M524.821 125.255H564.731M524.821 165.166V205.076M524.821 165.166H564.731M524.821 205.076V244.986M524.821 205.076H564.731M524.821 244.986V284.896M524.821 244.986H564.731M524.821 284.896V324.807M524.821 284.896H564.731M524.821 324.807V364.717M524.821 324.807H564.731M524.821 364.717V404.627M524.821 364.717H564.731M524.821 404.627V444.538M524.821 404.627H564.731M524.821 444.538V484.448M524.821 444.538H564.731M524.821 484.448V524.358M524.821 484.448H564.731M524.821 524.358V564.269M524.821 524.358H564.731M524.821 564.269V604.179M524.821 564.269H564.731M524.821 604.179V644.089M524.821 604.179H564.731M524.821 644.089V684M524.821 644.089H564.731M524.821 684V723.91M524.821 684H564.731M524.821 723.91V763.82M524.821 723.91H564.731M524.821 763.82V803.731M524.821 763.82H564.731M524.821 803.731V843.641M524.821 803.731H564.731M524.821 843.641H564.731M564.731 45.4346V85.3449M564.731 45.4346H604.641M564.731 85.3449V125.255M564.731 85.3449H604.641M564.731 125.255V165.166M564.731 125.255H604.641M564.731 165.166V205.076M564.731 165.166H604.641M564.731 205.076V244.986M564.731 205.076H604.641M564.731 244.986V284.896M564.731 244.986H604.641M564.731 284.896V324.807M564.731 284.896H604.641M564.731 324.807V364.717M564.731 324.807H604.641M564.731 364.717V404.627M564.731 364.717H604.641M564.731 404.627V444.538M564.731 404.627H604.641M564.731 444.538V484.448M564.731 444.538H604.641M564.731 484.448V524.358M564.731 484.448H604.641M564.731 524.358V564.269M564.731 524.358H604.641M564.731 564.269V604.179M564.731 564.269H604.641M564.731 604.179V644.089M564.731 604.179H604.641M564.731 644.089V684M564.731 644.089H604.641M564.731 684V723.91M564.731 684H604.641M564.731 723.91V763.82M564.731 723.91H604.641M564.731 763.82V803.731M564.731 763.82H604.641M564.731 803.731V843.641M564.731 803.731H604.641M564.731 843.641H604.641M604.641 45.4346V85.3449M604.641 45.4346H644.552M604.641 85.3449V125.255M604.641 85.3449H644.552M604.641 125.255V165.166M604.641 125.255H644.552M604.641 165.166V205.076M604.641 165.166H644.552M604.641 205.076V244.986M604.641 205.076H644.552M604.641 244.986V284.896M604.641 244.986H644.552M604.641 284.896V324.807M604.641 284.896H644.552M604.641 324.807V364.717M604.641 324.807H644.552M604.641 364.717V404.627M604.641 364.717H644.552M604.641 404.627V444.538M604.641 404.627H644.552M604.641 444.538V484.448M604.641 444.538H644.552M604.641 484.448V524.358M604.641 484.448H644.552M604.641 524.358V564.269M604.641 524.358H644.552M604.641 564.269V604.179M604.641 564.269H644.552M604.641 604.179V644.089M604.641 604.179H644.552M604.641 644.089V684M604.641 644.089H644.552M604.641 684V723.91M604.641 684H644.552M604.641 723.91V763.82M604.641 723.91H644.552M604.641 763.82V803.731M604.641 763.82H644.552M604.641 803.731V843.641M604.641 803.731H644.552M604.641 843.641H644.552M644.552 45.4346V85.3449M644.552 45.4346H684.462M644.552 85.3449V125.255M644.552 85.3449H684.462M644.552 125.255V165.166M644.552 125.255H684.462M644.552 165.166V205.076M644.552 165.166H684.462M644.552 205.076V244.986M644.552 205.076H684.462M644.552 244.986V284.896M644.552 244.986H684.462M644.552 284.896V324.807M644.552 284.896H684.462M644.552 324.807V364.717M644.552 324.807H684.462M644.552 364.717V404.627M644.552 364.717H684.462M644.552 404.627V444.538M644.552 404.627H684.462M644.552 444.538V484.448M644.552 444.538H684.462M644.552 484.448V524.358M644.552 484.448H684.462M644.552 524.358V564.269M644.552 524.358H684.462M644.552 564.269V604.179M644.552 564.269H684.462M644.552 604.179V644.089M644.552 604.179H684.462M644.552 644.089V684M644.552 644.089H684.462M644.552 684V723.91M644.552 684H684.462M644.552 723.91V763.82M644.552 723.91H684.462M644.552 763.82V803.731M644.552 763.82H684.462M644.552 803.731V843.641M644.552 803.731H684.462M644.552 843.641H684.462M684.462 45.4346V85.3449M684.462 45.4346H724.372M684.462 85.3449V125.255M684.462 85.3449H724.372M684.462 125.255V165.166M684.462 125.255H724.372M684.462 165.166V205.076M684.462 165.166H724.372M684.462 205.076V244.986M684.462 205.076H724.372M684.462 244.986V284.896M684.462 244.986H724.372M684.462 284.896V324.807M684.462 284.896H724.372M684.462 324.807V364.717M684.462 324.807H724.372M684.462 364.717V404.627M684.462 364.717H724.372M684.462 404.627V444.538M684.462 404.627H724.372M684.462 444.538V484.448M684.462 444.538H724.372M684.462 484.448V524.358M684.462 484.448H724.372M684.462 524.358V564.269M684.462 524.358H724.372M684.462 564.269V604.179M684.462 564.269H724.372M684.462 604.179V644.089M684.462 604.179H724.372M684.462 644.089V684M684.462 644.089H724.372M684.462 684V723.91M684.462 684H724.372M684.462 723.91V763.82M684.462 723.91H724.372M684.462 763.82V803.731M684.462 763.82H724.372M684.462 803.731V843.641M684.462 803.731H724.372M684.462 843.641H724.372M724.372 45.4346V85.3449M724.372 45.4346H764.282M724.372 85.3449V125.255M724.372 85.3449H764.282M724.372 125.255V165.166M724.372 125.255H764.282M724.372 165.166V205.076M724.372 165.166H764.282M724.372 205.076V244.986M724.372 205.076H764.282M724.372 244.986V284.896M724.372 244.986H764.282M724.372 284.896V324.807M724.372 284.896H764.282M724.372 324.807V364.717M724.372 324.807H764.282M724.372 364.717V404.627M724.372 364.717H764.282M724.372 404.627V444.538M724.372 404.627H764.282M724.372 444.538V484.448M724.372 444.538H764.282M724.372 484.448V524.358M724.372 484.448H764.282M724.372 524.358V564.269M724.372 524.358H764.282M724.372 564.269V604.179M724.372 564.269H764.282M724.372 604.179V644.089M724.372 604.179H764.282M724.372 644.089V684M724.372 644.089H764.282M724.372 684V723.91M724.372 684H764.282M724.372 723.91V763.82M724.372 723.91H764.282M724.372 763.82V803.731M724.372 763.82H764.282M724.372 803.731V843.641M724.372 803.731H764.282M724.372 843.641H764.282M764.282 45.4346V85.3449M764.282 45.4346H804.193M764.282 85.3449V125.255M764.282 85.3449H804.193M764.282 125.255V165.166M764.282 125.255H804.193M764.282 165.166V205.076M764.282 165.166H804.193M764.282 205.076V244.986M764.282 205.076H804.193M764.282 244.986V284.896M764.282 244.986H804.193M764.282 284.896V324.807M764.282 284.896H804.193M764.282 324.807V364.717M764.282 324.807H804.193M764.282 364.717V404.627M764.282 364.717H804.193M764.282 404.627V444.538M764.282 404.627H804.193M764.282 444.538V484.448M764.282 444.538H804.193M764.282 484.448V524.358M764.282 484.448H804.193M764.282 524.358V564.269M764.282 524.358H804.193M764.282 564.269V604.179M764.282 564.269H804.193M764.282 604.179V644.089M764.282 604.179H804.193M764.282 644.089V684M764.282 644.089H804.193M764.282 684V723.91M764.282 684H804.193M764.282 723.91V763.82M764.282 723.91H804.193M764.282 763.82V803.731M764.282 763.82H804.193M764.282 803.731V843.641M764.282 803.731H804.193M764.282 843.641H804.193M804.193 45.4346V85.3449M804.193 45.4346H844.103M804.193 85.3449V125.255M804.193 85.3449H844.103M804.193 125.255V165.166M804.193 125.255H844.103M804.193 165.166V205.076M804.193 165.166H844.103M804.193 205.076V244.986M804.193 205.076H844.103M804.193 244.986V284.896M804.193 244.986H844.103M804.193 284.896V324.807M804.193 284.896H844.103M804.193 324.807V364.717M804.193 324.807H844.103M804.193 364.717V404.627M804.193 364.717H844.103M804.193 404.627V444.538M804.193 404.627H844.103M804.193 444.538V484.448M804.193 444.538H844.103M804.193 484.448V524.358M804.193 484.448H844.103M804.193 524.358V564.269M804.193 524.358H844.103M804.193 564.269V604.179M804.193 564.269H844.103M804.193 604.179V644.089M804.193 604.179H844.103M804.193 644.089V684M804.193 644.089H844.103M804.193 684V723.91M804.193 684H844.103M804.193 723.91V763.82M804.193 723.91H844.103M804.193 763.82V803.731M804.193 763.82H844.103M804.193 803.731V843.641M804.193 803.731H844.103M804.193 843.641H844.103M844.103 45.4346V85.3449M844.103 45.4346H884.013M844.103 85.3449V125.255M844.103 85.3449H884.013M844.103 125.255V165.166M844.103 125.255H884.013M844.103 165.166V205.076M844.103 165.166H884.013M844.103 205.076V244.986M844.103 205.076H884.013M844.103 244.986V284.896M844.103 244.986H884.013M844.103 284.896V324.807M844.103 284.896H884.013M844.103 324.807V364.717M844.103 324.807H884.013M844.103 364.717V404.627M844.103 364.717H884.013M844.103 404.627V444.538M844.103 404.627H884.013M844.103 444.538V484.448M844.103 444.538H884.013M844.103 484.448V524.358M844.103 484.448H884.013M844.103 524.358V564.269M844.103 524.358H884.013M844.103 564.269V604.179M844.103 564.269H884.013M844.103 604.179V644.089M844.103 604.179H884.013M844.103 644.089V684M844.103 644.089H884.013M844.103 684V723.91M844.103 684H884.013M844.103 723.91V763.82M844.103 723.91H884.013M844.103 763.82V803.731M844.103 763.82H884.013M844.103 803.731V843.641M844.103 803.731H884.013M844.103 843.641H884.013M884.013 45.4346V85.3449M884.013 45.4346H923.924M884.013 85.3449V125.255M884.013 85.3449H923.924M884.013 125.255V165.166M884.013 125.255H923.924M884.013 165.166V205.076M884.013 165.166H923.924M884.013 205.076V244.986M884.013 205.076H923.924M884.013 244.986V284.896M884.013 244.986H923.924M884.013 284.896V324.807M884.013 284.896H923.924M884.013 324.807V364.717M884.013 324.807H923.924M884.013 364.717V404.627M884.013 364.717H923.924M884.013 404.627V444.538M884.013 404.627H923.924M884.013 444.538V484.448M884.013 444.538H923.924M884.013 484.448V524.358M884.013 484.448H923.924M884.013 524.358V564.269M884.013 524.358H923.924M884.013 564.269V604.179M884.013 564.269H923.924M884.013 604.179V644.089M884.013 604.179H923.924M884.013 644.089V684M884.013 644.089H923.924M884.013 684V723.91M884.013 684H923.924M884.013 723.91V763.82M884.013 723.91H923.924M884.013 763.82V803.731M884.013 763.82H923.924M884.013 803.731V843.641M884.013 803.731H923.924M884.013 843.641H923.924M923.924 45.4346V85.3449M923.924 45.4346H963.834M923.924 85.3449V125.255M923.924 85.3449H963.834M923.924 125.255V165.166M923.924 125.255H963.834M923.924 165.166V205.076M923.924 165.166H963.834M923.924 205.076V244.986M923.924 205.076H963.834M923.924 244.986V284.896M923.924 244.986H963.834M923.924 284.896V324.807M923.924 284.896H963.834M923.924 324.807V364.717M923.924 324.807H963.834M923.924 364.717V404.627M923.924 364.717H963.834M923.924 404.627V444.538M923.924 404.627H963.834M923.924 444.538V484.448M923.924 444.538H963.834M923.924 484.448V524.358M923.924 484.448H963.834M923.924 524.358V564.269M923.924 524.358H963.834M923.924 564.269V604.179M923.924 564.269H963.834M923.924 604.179V644.089M923.924 604.179H963.834M923.924 644.089V684M923.924 644.089H963.834M923.924 684V723.91M923.924 684H963.834M923.924 723.91V763.82M923.924 723.91H963.834M923.924 763.82V803.731M923.924 763.82H963.834M923.924 803.731V843.641M923.924 803.731H963.834M923.924 843.641H963.834M963.834 45.4346V85.3449M963.834 45.4346H1003.74M963.834 85.3449V125.255M963.834 85.3449H1003.74M963.834 125.255V165.166M963.834 125.255H1003.74M963.834 165.166V205.076M963.834 165.166H1003.74M963.834 205.076V244.986M963.834 205.076H1003.74M963.834 244.986V284.896M963.834 244.986H1003.74M963.834 284.896V324.807M963.834 284.896H1003.74M963.834 324.807V364.717M963.834 324.807H1003.74M963.834 364.717V404.627M963.834 364.717H1003.74M963.834 404.627V444.538M963.834 404.627H1003.74M963.834 444.538V484.448M963.834 444.538H1003.74M963.834 484.448V524.358M963.834 484.448H1003.74M963.834 524.358V564.269M963.834 524.358H1003.74M963.834 564.269V604.179M963.834 564.269H1003.74M963.834 604.179V644.089M963.834 604.179H1003.74M963.834 644.089V684M963.834 644.089H1003.74M963.834 684V723.91M963.834 684H1003.74M963.834 723.91V763.82M963.834 723.91H1003.74M963.834 763.82V803.731M963.834 763.82H1003.74M963.834 803.731V843.641M963.834 803.731H1003.74M963.834 843.641H1003.74M1003.74 45.4346V85.3449M1003.74 45.4346H1043.65M1003.74 85.3449V125.255M1003.74 85.3449H1043.65M1003.74 125.255V165.166M1003.74 125.255H1043.65M1003.74 165.166V205.076M1003.74 165.166H1043.65M1003.74 205.076V244.986M1003.74 205.076H1043.65M1003.74 244.986V284.896M1003.74 244.986H1043.65M1003.74 284.896V324.807M1003.74 284.896H1043.65M1003.74 324.807V364.717M1003.74 324.807H1043.65M1003.74 364.717V404.627M1003.74 364.717H1043.65M1003.74 404.627V444.538M1003.74 404.627H1043.65M1003.74 444.538V484.448M1003.74 444.538H1043.65M1003.74 484.448V524.358M1003.74 484.448H1043.65M1003.74 524.358V564.269M1003.74 524.358H1043.65M1003.74 564.269V604.179M1003.74 564.269H1043.65M1003.74 604.179V644.089M1003.74 604.179H1043.65M1003.74 644.089V684M1003.74 644.089H1043.65M1003.74 684V723.91M1003.74 684H1043.65M1003.74 723.91V763.82M1003.74 723.91H1043.65M1003.74 763.82V803.731M1003.74 763.82H1043.65M1003.74 803.731V843.641M1003.74 803.731H1043.65M1003.74 843.641H1043.65M1043.65 45.4346V85.3449M1043.65 45.4346H1083.56M1043.65 85.3449V125.255M1043.65 85.3449H1083.56M1043.65 125.255V165.166M1043.65 125.255H1083.56M1043.65 165.166V205.076M1043.65 165.166H1083.56M1043.65 205.076V244.986M1043.65 205.076H1083.56M1043.65 244.986V284.896M1043.65 244.986H1083.56M1043.65 284.896V324.807M1043.65 284.896H1083.56M1043.65 324.807V364.717M1043.65 324.807H1083.56M1043.65 364.717V404.627M1043.65 364.717H1083.56M1043.65 404.627V444.538M1043.65 404.627H1083.56M1043.65 444.538V484.448M1043.65 444.538H1083.56M1043.65 484.448V524.358M1043.65 484.448H1083.56M1043.65 524.358V564.269M1043.65 524.358H1083.56M1043.65 564.269V604.179M1043.65 564.269H1083.56M1043.65 604.179V644.089M1043.65 604.179H1083.56M1043.65 644.089V684M1043.65 644.089H1083.56M1043.65 684V723.91M1043.65 684H1083.56M1043.65 723.91V763.82M1043.65 723.91H1083.56M1043.65 763.82V803.731M1043.65 763.82H1083.56M1043.65 803.731V843.641M1043.65 803.731H1083.56M1043.65 843.641H1083.56M1083.56 45.4346V85.3449M1083.56 45.4346H1123.48M1083.56 85.3449V125.255M1083.56 85.3449H1123.48M1083.56 125.255V165.166M1083.56 125.255H1123.48M1083.56 165.166V205.076M1083.56 165.166H1123.48M1083.56 205.076V244.986M1083.56 205.076H1123.48M1083.56 244.986V284.896M1083.56 244.986H1123.48M1083.56 284.896V324.807M1083.56 284.896H1123.48M1083.56 324.807V364.717M1083.56 324.807H1123.48M1083.56 364.717V404.627M1083.56 364.717H1123.48M1083.56 404.627V444.538M1083.56 404.627H1123.48M1083.56 444.538V484.448M1083.56 444.538H1123.48M1083.56 484.448V524.358M1083.56 484.448H1123.48M1083.56 524.358V564.269M1083.56 524.358H1123.48M1083.56 564.269V604.179M1083.56 564.269H1123.48M1083.56 604.179V644.089M1083.56 604.179H1123.48M1083.56 644.089V684M1083.56 644.089H1123.48M1083.56 684V723.91M1083.56 684H1123.48M1083.56 723.91V763.82M1083.56 723.91H1123.48M1083.56 763.82V803.731M1083.56 763.82H1123.48M1083.56 803.731V843.641M1083.56 803.731H1123.48M1083.56 843.641H1123.48M1123.48 45.4346V85.3449M1123.48 45.4346H1163.39M1123.48 85.3449V125.255M1123.48 85.3449H1163.39M1123.48 125.255V165.166M1123.48 125.255H1163.39M1123.48 165.166V205.076M1123.48 165.166H1163.39M1123.48 205.076V244.986M1123.48 205.076H1163.39M1123.48 244.986V284.896M1123.48 244.986H1163.39M1123.48 284.896V324.807M1123.48 284.896H1163.39M1123.48 324.807V364.717M1123.48 324.807H1163.39M1123.48 364.717V404.627M1123.48 364.717H1163.39M1123.48 404.627V444.538M1123.48 404.627H1163.39M1123.48 444.538V484.448M1123.48 444.538H1163.39M1123.48 484.448V524.358M1123.48 484.448H1163.39M1123.48 524.358V564.269M1123.48 524.358H1163.39M1123.48 564.269V604.179M1123.48 564.269H1163.39M1123.48 604.179V644.089M1123.48 604.179H1163.39M1123.48 644.089V684M1123.48 644.089H1163.39M1123.48 684V723.91M1123.48 684H1163.39M1123.48 723.91V763.82M1123.48 723.91H1163.39M1123.48 763.82V803.731M1123.48 763.82H1163.39M1123.48 803.731V843.641M1123.48 803.731H1163.39M1123.48 843.641H1163.39M1163.39 45.4346V85.3449M1163.39 45.4346H1203.3M1163.39 85.3449V125.255M1163.39 85.3449H1203.3M1163.39 125.255V165.166M1163.39 125.255H1203.3M1163.39 165.166V205.076M1163.39 165.166H1203.3M1163.39 205.076V244.986M1163.39 205.076H1203.3M1163.39 244.986V284.896M1163.39 244.986H1203.3M1163.39 284.896V324.807M1163.39 284.896H1203.3M1163.39 324.807V364.717M1163.39 324.807H1203.3M1163.39 364.717V404.627M1163.39 364.717H1203.3M1163.39 404.627V444.538M1163.39 404.627H1203.3M1163.39 444.538V484.448M1163.39 444.538H1203.3M1163.39 484.448V524.358M1163.39 484.448H1203.3M1163.39 524.358V564.269M1163.39 524.358H1203.3M1163.39 564.269V604.179M1163.39 564.269H1203.3M1163.39 604.179V644.089M1163.39 604.179H1203.3M1163.39 644.089V684M1163.39 644.089H1203.3M1163.39 684V723.91M1163.39 684H1203.3M1163.39 723.91V763.82M1163.39 723.91H1203.3M1163.39 763.82V803.731M1163.39 763.82H1203.3M1163.39 803.731V843.641M1163.39 803.731H1203.3M1163.39 843.641H1203.3M1203.3 45.4346V85.3449M1203.3 45.4346H1243.21M1203.3 85.3449V125.255M1203.3 85.3449H1243.21M1203.3 125.255V165.166M1203.3 125.255H1243.21M1203.3 165.166V205.076M1203.3 165.166H1243.21M1203.3 205.076V244.986M1203.3 205.076H1243.21M1203.3 244.986V284.896M1203.3 244.986H1243.21M1203.3 284.896V324.807M1203.3 284.896H1243.21M1203.3 324.807V364.717M1203.3 324.807H1243.21M1203.3 364.717V404.627M1203.3 364.717H1243.21M1203.3 404.627V444.538M1203.3 404.627H1243.21M1203.3 444.538V484.448M1203.3 444.538H1243.21M1203.3 484.448V524.358M1203.3 484.448H1243.21M1203.3 524.358V564.269M1203.3 524.358H1243.21M1203.3 564.269V604.179M1203.3 564.269H1243.21M1203.3 604.179V644.089M1203.3 604.179H1243.21M1203.3 644.089V684M1203.3 644.089H1243.21M1203.3 684V723.91M1203.3 684H1243.21M1203.3 723.91V763.82M1203.3 723.91H1243.21M1203.3 763.82V803.731M1203.3 763.82H1243.21M1203.3 803.731V843.641M1203.3 803.731H1243.21M1203.3 843.641H1243.21M1243.21 45.4346V85.3449M1243.21 45.4346H1283.12M1243.21 85.3449V125.255M1243.21 85.3449H1283.12M1243.21 125.255V165.166M1243.21 125.255H1283.12M1243.21 165.166V205.076M1243.21 165.166H1283.12M1243.21 205.076V244.986M1243.21 205.076H1283.12M1243.21 244.986V284.896M1243.21 244.986H1283.12M1243.21 284.896V324.807M1243.21 284.896H1283.12M1243.21 324.807V364.717M1243.21 324.807H1283.12M1243.21 364.717V404.627M1243.21 364.717H1283.12M1243.21 404.627V444.538M1243.21 404.627H1283.12M1243.21 444.538V484.448M1243.21 444.538H1283.12M1243.21 484.448V524.358M1243.21 484.448H1283.12M1243.21 524.358V564.269M1243.21 524.358H1283.12M1243.21 564.269V604.179M1243.21 564.269H1283.12M1243.21 604.179V644.089M1243.21 604.179H1283.12M1243.21 644.089V684M1243.21 644.089H1283.12M1243.21 684V723.91M1243.21 684H1283.12M1243.21 723.91V763.82M1243.21 723.91H1283.12M1243.21 763.82V803.731M1243.21 763.82H1283.12M1243.21 803.731V843.641M1243.21 803.731H1283.12M1243.21 843.641H1283.12M1283.12 45.4346V85.3449M1283.12 45.4346H1323.03V85.3449M1283.12 85.3449V125.255M1283.12 85.3449H1323.03M1283.12 125.255V165.166M1283.12 125.255H1323.03M1283.12 165.166V205.076M1283.12 165.166H1323.03M1283.12 205.076V244.986M1283.12 205.076H1323.03M1283.12 244.986V284.896M1283.12 244.986H1323.03M1283.12 284.896V324.807M1283.12 284.896H1323.03M1283.12 324.807V364.717M1283.12 324.807H1323.03M1283.12 364.717V404.627M1283.12 364.717H1323.03M1283.12 404.627V444.538M1283.12 404.627H1323.03M1283.12 444.538V484.448M1283.12 444.538H1323.03M1283.12 484.448V524.358M1283.12 484.448H1323.03M1283.12 524.358V564.269M1283.12 524.358H1323.03M1283.12 564.269V604.179M1283.12 564.269H1323.03M1283.12 604.179V644.089M1283.12 604.179H1323.03M1283.12 644.089V684M1283.12 644.089H1323.03M1283.12 684V723.91M1283.12 684H1323.03M1283.12 723.91V763.82M1283.12 723.91H1323.03M1283.12 763.82V803.731M1283.12 763.82H1323.03M1283.12 803.731V843.641M1283.12 803.731H1323.03M1283.12 843.641H1323.03V803.731M1323.03 85.3449V125.255M1323.03 125.255V165.166M1323.03 165.166V205.076M1323.03 205.076V244.986M1323.03 244.986V284.896M1323.03 284.896V324.807M1323.03 324.807V364.717M1323.03 364.717V404.627M1323.03 404.627V444.538M1323.03 444.538V484.448M1323.03 484.448V524.358M1323.03 524.358V564.269M1323.03 564.269V604.179M1323.03 604.179V644.089M1323.03 644.089V684M1323.03 684V723.91M1323.03 723.91V763.82M1323.03 763.82V803.731" stroke="black" stroke-width="0.5"></path><path d="M45.8979 193.103V217.049M33.9248 205.076H57.871" stroke="black" stroke-width="0.5"></path><path d="M45.8979 512.387V536.333M33.9248 524.36H57.871" stroke="black" stroke-width="0.5"></path><path d="M45.8979 831.668V855.614M33.9248 843.641H57.871" stroke="black" stroke-width="0.5"></path><path d="M365.178 193.103V217.049M353.205 205.076H377.151" stroke="black" stroke-width="0.5"></path><path d="M365.178 512.387V536.333M353.205 524.36H377.151" stroke="black" stroke-width="0.5"></path><path d="M365.178 831.668V855.614M353.205 843.641H377.151" stroke="black" stroke-width="0.5"></path><path d="M684.46 193.103V217.049M672.487 205.076H696.433" stroke="black" stroke-width="0.5"></path><path d="M684.459 512.387V536.333M672.486 524.36H696.433" stroke="black" stroke-width="0.5"></path><path d="M684.459 831.668V855.614M672.486 843.641H696.433" stroke="black" stroke-width="0.5"></path><path d="M45.8979 33.4619V57.4081M33.9248 45.435H57.871" stroke="black" stroke-width="0.5"></path><path d="M45.8979 352.744V376.69M33.9248 364.717H57.871" stroke="black" stroke-width="0.5"></path><path d="M45.8979 672.025V695.972M33.9248 683.998H57.871" stroke="black" stroke-width="0.5"></path><path d="M365.178 33.4619V57.4081M353.205 45.435H377.151" stroke="black" stroke-width="0.5"></path><path d="M365.178 352.744V376.69M353.205 364.717H377.151" stroke="black" stroke-width="0.5"></path><path d="M365.178 672.025V695.972M353.205 683.998H377.151" stroke="black" stroke-width="0.5"></path><path d="M684.46 33.4619V57.4081M672.487 45.435H696.433" stroke="black" stroke-width="0.5"></path><path d="M684.46 352.744V376.69M672.487 364.717H696.433" stroke="black" stroke-width="0.5"></path><path d="M684.46 672.025V695.972M672.487 683.998H696.433" stroke="black" stroke-width="0.5"></path><path d="M205.538 193.103V217.049M193.564 205.076H217.511" stroke="black" stroke-width="0.5"></path><path d="M205.538 512.387V536.333M193.564 524.36H217.511" stroke="black" stroke-width="0.5"></path><path d="M205.538 831.668V855.614M193.564 843.641H217.511" stroke="black" stroke-width="0.5"></path><path d="M524.818 193.103V217.049M512.845 205.076H536.791" stroke="black" stroke-width="0.5"></path><path d="M524.818 512.387V536.333M512.845 524.36H536.791" stroke="black" stroke-width="0.5"></path><path d="M524.818 831.668V855.614M512.845 843.641H536.791" stroke="black" stroke-width="0.5"></path><path d="M844.102 193.103V217.049M832.129 205.076H856.075" stroke="black" stroke-width="0.5"></path><path d="M844.102 512.387V536.333M832.129 524.36H856.075" stroke="black" stroke-width="0.5"></path><path d="M844.102 831.668V855.614M832.129 843.641H856.075" stroke="black" stroke-width="0.5"></path><path d="M205.538 33.4619V57.4081M193.564 45.435H217.511" stroke="black" stroke-width="0.5"></path><path d="M205.538 672.025V695.972M193.564 683.998H217.511" stroke="black" stroke-width="0.5"></path><path d="M524.818 33.4619V57.4081M512.845 45.435H536.791" stroke="black" stroke-width="0.5"></path><path d="M524.818 352.744V376.69M512.845 364.717H536.791" stroke="black" stroke-width="0.5"></path><path d="M524.818 672.025V695.972M512.845 683.998H536.791" stroke="black" stroke-width="0.5"></path><path d="M844.102 33.4619V57.4081M832.129 45.435H856.075" stroke="black" stroke-width="0.5"></path><path d="M844.103 352.744V376.69M832.13 364.717H856.077" stroke="black" stroke-width="0.5"></path><path d="M844.102 672.025V695.972M832.129 683.998H856.075" stroke="black" stroke-width="0.5"></path></g><g style="mix-blend-mode:lighten"><rect y="145" width="890" height="600" fill="url(#paint0_radial_2264_8754)"></rect></g></g><defs><radialGradient id="paint0_radial_2264_8754" cx="0" cy="0" r="1" gradientUnits="userSpaceOnUse" gradientTransform="translate(445 445) rotate(90) scale(300 445)"><stop stop-color="#FCFBFD" stop-opacity="0"></stop><stop offset="1" stop-color="#FCFBFD"></stop></radialGradient><clipPath id="clip0_2264_8754"><rect width="890" height="890" fill="white"></rect></clipPath></defs></svg> 